FiraSans-BoldItalic.ufo
<glyph name="numbersign" format="2">
  <advance width="568"/>
  <unicode hex="0023"/>
  <outline>
    <contour>
      <point x="579" y="680" type="line"/>
      <point x="418" y="680" type="line"/>
      <point x="236" y="0" type="line"/>
      <point x="396" y="0" type="line"/>
    </contour>
    <contour>
      <point x="353" y="680" type="line"/>
      <point x="192" y="680" type="line"/>
      <point x="10" y="0" type="line"/>
      <point x="170" y="0" type="line"/>
    </contour>
    <contour>
      <point x="516" y="257" type="line"/>
      <point x="13" y="257" type="line"/>
      <point x="-5" y="131" type="line"/>
      <point x="498" y="131" type="line"/>
    </contour>
    <contour>
      <point x="595" y="562" type="line"/>
      <point x="92" y="562" type="line"/>
      <point x="75" y="436" type="line"/>
      <point x="578" y="436" type="line"/>
    </contour>
  </outline>
</glyph>
<glyph name="ampersand" format="2">
  <advance width="775"/>
  <unicode hex="0026"/>
  <outline>
    <contour>
      <point x="366" y="716" type="curve" smooth="yes"/>
      <point x="178" y="716"/>
      <point x="123" y="604"/>
      <point x="123" y="529" type="curve" smooth="yes"/>
      <point x="123" y="473.707"/>
      <point x="141.076" y="435.668"/>
      <point x="193.614" y="374.665" type="curve"/>
      <point x="84.658" y="311.896"/>
      <point x="37" y="254"/>
      <point x="37" y="159" type="curve" smooth="yes"/>
      <point x="37" y="55"/>
      <point x="127" y="-20"/>
      <point x="270" y="-20" type="curve" smooth="yes"/>
      <point x="352" y="-20"/>
      <point x="421" y="-1"/>
      <point x="490.606" y="44.332" type="curve"/>
      <point x="548" y="-20" type="line"/>
      <point x="715" y="52" type="line"/>
      <point x="616.761" y="154.2" type="line"/>
      <point x="658.082" y="202.223"/>
      <point x="696.761" y="255.232"/>
      <point x="732" y="322" type="curve"/>
      <point x="581" y="371" type="line"/>
      <point x="562.941" y="324.046"/>
      <point x="545.696" y="288.506"/>
      <point x="524.85" y="254.811" type="curve"/>
      <point x="432.746" y="357.086" type="line"/>
      <point x="551.81" y="434.845"/>
      <point x="584" y="491.623"/>
      <point x="584" y="558" type="curve" smooth="yes"/>
      <point x="584" y="647"/>
      <point x="507" y="716"/>
    </contour>
    <contour>
      <point x="289.784" y="265.362" type="curve"/>
      <point x="404.965" y="136.359" type="line"/>
      <point x="378" y="125"/>
      <point x="348.952" y="116"/>
      <point x="314" y="116" type="curve" smooth="yes"/>
      <point x="267" y="116"/>
      <point x="245" y="139"/>
      <point x="245" y="175" type="curve" smooth="yes"/>
      <point x="245" y="211"/>
      <point x="258.613" y="237.773"/>
    </contour>
    <contour>
      <point x="361" y="594" type="curve" smooth="yes"/>
      <point x="385" y="594"/>
      <point x="403" y="580"/>
      <point x="403" y="554" type="curve" smooth="yes"/>
      <point x="403" y="526"/>
      <point x="392.357" y="497.936"/>
      <point x="339.22" y="460.853" type="curve"/>
      <point x="313.679" y="491.651"/>
      <point x="305" y="509.488"/>
      <point x="305" y="534" type="curve" smooth="yes"/>
      <point x="305" y="572"/>
      <point x="328" y="594"/>
    </contour>
  </outline>
</glyph>
<glyph name="parenleft" format="2">
  <advance width="313"/>
  <unicode hex="0028"/>
  <outline>
    <contour>
      <point x="276" y="868" type="line"/>
      <point x="107" y="671"/>
      <point x="6" y="502"/>
      <point x="6" y="238" type="curve" smooth="yes"/>
      <point x="6" y="64"/>
      <point x="69" y="-51"/>
      <point x="136" y="-166" type="curve"/>
      <point x="271" y="-88" type="line"/>
      <point x="219" y="5"/>
      <point x="197" y="101"/>
      <point x="197" y="217" type="curve" smooth="yes"/>
      <point x="197" y="418"/>
      <point x="258" y="619"/>
      <point x="394" y="781" type="curve"/>
    </contour>
  </outline>
</glyph>
<glyph name="parenright" format="2">
  <advance width="313"/>
  <unicode hex="0029"/>
  <outline>
    <contour>
      <point x="200" y="866" type="curve"/>
      <point x="64" y="788" type="line"/>
      <point x="117" y="694"/>
      <point x="138" y="598"/>
      <point x="138" y="480" type="curve" smooth="yes"/>
      <point x="138" y="279"/>
      <point x="78" y="82"/>
      <point x="-58" y="-81" type="curve"/>
      <point x="59" y="-168" type="line"/>
      <point x="227" y="25"/>
      <point x="330" y="199"/>
      <point x="330" y="459" type="curve" smooth="yes"/>
      <point x="330" y="635"/>
      <point x="267" y="751"/>
    </contour>
  </outline>
</glyph>
<glyph name="period" format="2">
  <advance width="240"/>
  <unicode hex="002E"/>
  <outline>
    <contour>
      <point x="82" y="-20" type="curve" smooth="yes"/>
      <point x="146" y="-20"/>
      <point x="196" y="33"/>
      <point x="196" y="95" type="curve" smooth="yes"/>
      <point x="196" y="149"/>
      <point x="158" y="186"/>
      <point x="107" y="186" type="curve" smooth="yes"/>
      <point x="42" y="186"/>
      <point x="-8" y="133"/>
      <point x="-8" y="73" type="curve" smooth="yes"/>
      <point x="-8" y="18"/>
      <point x="29" y="-20"/>
    </contour>
  </outline>
</glyph>
<glyph name="zero" format="2">
  <advance width="590"/>
  <unicode hex="0030"/>
  <outline>
    <contour>
      <point x="351" y="696" type="curve" smooth="yes"/>
      <point x="499" y="696"/>
      <point x="581" y="603"/>
      <point x="581" y="432" type="curve" smooth="yes"/>
      <point x="581" y="254"/>
      <point x="510" y="-20"/>
      <point x="259" y="-20" type="curve" smooth="yes"/>
      <point x="110" y="-20"/>
      <point x="29" y="76"/>
      <point x="29" y="248" type="curve" smooth="yes"/>
      <point x="29" y="429"/>
      <point x="100" y="696"/>
    </contour>
    <contour>
      <point x="340" y="553" type="curve" smooth="yes"/>
      <point x="252" y="553"/>
      <point x="222" y="336"/>
      <point x="222" y="207" type="curve" smooth="yes"/>
      <point x="222" y="144"/>
      <point x="240" y="124"/>
      <point x="271" y="124" type="curve" smooth="yes"/>
      <point x="358" y="124"/>
      <point x="389" y="345"/>
      <point x="389" y="474" type="curve" smooth="yes"/>
      <point x="389" y="537"/>
      <point x="370" y="553"/>
    </contour>
  </outline>
</glyph>
<glyph name="two" format="2">
  <advance width="518"/>
  <unicode hex="0032"/>
  <outline>
    <contour>
      <point x="291" y="696" type="curve" smooth="yes"/>
      <point x="181" y="696"/>
      <point x="99" y="652"/>
      <point x="31" y="579" type="curve"/>
      <point x="133" y="481" type="line"/>
      <point x="177" y="525"/>
      <point x="210" y="548"/>
      <point x="254" y="548" type="curve" smooth="yes"/>
      <point x="292" y="548"/>
      <point x="317" y="526"/>
      <point x="317" y="489" type="curve" smooth="yes"/>
      <point x="317" y="418"/>
      <point x="277" y="371"/>
      <point x="2" y="137" type="curve"/>
      <point x="-15" y="0" type="line"/>
      <point x="442" y="0" type="line"/>
      <point x="483" y="148" type="line"/>
      <point x="225" y="147" type="line"/>
      <point x="495" y="336"/>
      <point x="519" y="428"/>
      <point x="519" y="512" type="curve" smooth="yes"/>
      <point x="519" y="613"/>
      <point x="444" y="696"/>
    </contour>
  </outline>
</glyph>
<glyph name="six" format="2">
  <advance width="572"/>
  <unicode hex="0036"/>
  <outline>
    <contour>
      <point x="399" y="696" type="curve" smooth="yes"/>
      <point x="169" y="696"/>
      <point x="26" y="473"/>
      <point x="26" y="230" type="curve" smooth="yes"/>
      <point x="26" y="77"/>
      <point x="102" y="-20"/>
      <point x="269" y="-20" type="curve" smooth="yes"/>
      <point x="484" y="-20"/>
      <point x="556" y="167"/>
      <point x="556" y="278" type="curve" smooth="yes"/>
      <point x="556" y="395"/>
      <point x="491" y="464"/>
      <point x="388" y="464" type="curve" smooth="yes"/>
      <point x="340" y="464"/>
      <point x="283" y="447"/>
      <point x="234" y="406" type="curve"/>
      <point x="221" y="289" type="line"/>
      <point x="254" y="319"/>
      <point x="286" y="333"/>
      <point x="315" y="333" type="curve" smooth="yes"/>
      <point x="345" y="333"/>
      <point x="361" y="318"/>
      <point x="361" y="271" type="curve" smooth="yes"/>
      <point x="361" y="214"/>
      <point x="345" y="118"/>
      <point x="277" y="118" type="curve" smooth="yes"/>
      <point x="241" y="118"/>
      <point x="226" y="139"/>
      <point x="226" y="197" type="curve" smooth="yes"/>
      <point x="226" y="230"/>
      <point x="231" y="275"/>
      <point x="240" y="334" type="curve"/>
      <point x="246" y="391" type="line"/>
      <point x="269" y="506"/>
      <point x="323" y="560"/>
      <point x="390" y="560" type="curve" smooth="yes"/>
      <point x="423" y="560"/>
      <point x="447" y="551"/>
      <point x="469" y="536" type="curve"/>
      <point x="554" y="647" type="line"/>
      <point x="520" y="675"/>
      <point x="468" y="696"/>
    </contour>
  </outline>
</glyph>
<glyph name="less" format="2">
  <advance width="520"/>
  <unicode hex="003C"/>
  <outline>
    <contour>
      <point x="481" y="591" type="line"/>
      <point x="45" y="416" type="line"/>
      <point x="22" y="249" type="line"/>
      <point x="409" y="75" type="line"/>
      <point x="488" y="215" type="line"/>
      <point x="201" y="333" type="line"/>
      <point x="528" y="449" type="line"/>
    </contour>
  </outline>
</glyph>
<glyph name="question" format="2">
  <advance width="483"/>
  <unicode hex="003F"/>
  <outline>
    <contour>
      <point x="309" y="716" type="curve" smooth="yes"/>
      <point x="197" y="716"/>
      <point x="115" y="671"/>
      <point x="51" y="605" type="curve"/>
      <point x="158" y="507" type="line"/>
      <point x="197" y="542"/>
      <point x="234" y="562"/>
      <point x="271" y="562" type="curve" smooth="yes"/>
      <point x="298" y="562"/>
      <point x="312" y="551"/>
      <point x="312" y="530" type="curve" smooth="yes"/>
      <point x="312" y="448"/>
      <point x="124" y="461"/>
      <point x="124" y="289" type="curve" smooth="yes"/>
      <point x="124" y="273"/>
      <point x="126" y="257"/>
      <point x="130" y="241" type="curve"/>
      <point x="301" y="266" type="line"/>
      <point x="300" y="271"/>
      <point x="299" y="279"/>
      <point x="299" y="284" type="curve" smooth="yes"/>
      <point x="300" y="384"/>
      <point x="519" y="366"/>
      <point x="519" y="555" type="curve" smooth="yes"/>
      <point x="519" y="643"/>
      <point x="451" y="716"/>
    </contour>
    <component base="period" xOffset="115"/>
  </outline>
</glyph>
<glyph name="at" format="2">
  <advance width="1008"/>
  <unicode hex="0040"/>
  <outline>
    <contour>
      <point x="572" y="716" type="curve" smooth="yes"/>
      <point x="190" y="716"/>
      <point x="28" y="404"/>
      <point x="28" y="182" type="curve" smooth="yes"/>
      <point x="28" y="-58"/>
      <point x="192" y="-227"/>
      <point x="470" y="-227" type="curve" smooth="yes"/>
      <point x="537" y="-227"/>
      <point x="635" y="-209"/>
      <point x="699" y="-184" type="curve"/>
      <point x="671" y="-51" type="line"/>
      <point x="620" y="-70"/>
      <point x="541" y="-86"/>
      <point x="487" y="-86" type="curve" smooth="yes"/>
      <point x="296" y="-86"/>
      <point x="200" y="20"/>
      <point x="200" y="182" type="curve" smooth="yes"/>
      <point x="200" y="349"/>
      <point x="280" y="577"/>
      <point x="556" y="577" type="curve" smooth="yes"/>
      <point x="730" y="577"/>
      <point x="813" y="497"/>
      <point x="813" y="350" type="curve" smooth="yes"/>
      <point x="813" y="246"/>
      <point x="776" y="116"/>
      <point x="716" y="116" type="curve" smooth="yes"/>
      <point x="694" y="116"/>
      <point x="685" y="130"/>
      <point x="689" y="161" type="curve" smooth="yes"/>
      <point x="728" y="460" type="line"/>
      <point x="679" y="490"/>
      <point x="609" y="509"/>
      <point x="553" y="509" type="curve" smooth="yes"/>
      <point x="338" y="509"/>
      <point x="275" y="305"/>
      <point x="275" y="179" type="curve" smooth="yes"/>
      <point x="275" y="79"/>
      <point x="328" y="6"/>
      <point x="435" y="6" type="curve" smooth="yes"/>
      <point x="505" y="6"/>
      <point x="553" y="41"/>
      <point x="586.45" y="99.64" type="curve"/>
      <point x="597" y="46"/>
      <point x="651" y="1"/>
      <point x="726" y="1" type="curve" smooth="yes"/>
      <point x="896" y="1"/>
      <point x="981" y="192"/>
      <point x="981" y="349" type="curve" smooth="yes"/>
      <point x="981" y="554"/>
      <point x="831" y="716"/>
    </contour>
    <contour>
      <point x="477" y="125" type="curve" smooth="yes"/>
      <point x="457" y="125"/>
      <point x="445" y="138"/>
      <point x="445" y="175" type="curve" smooth="yes"/>
      <point x="445" y="257"/>
      <point x="463" y="389"/>
      <point x="530" y="389" type="curve" smooth="yes"/>
      <point x="539" y="389"/>
      <point x="547" y="388"/>
      <point x="556" y="384" type="curve"/>
      <point x="522.988" y="153.889" type="line"/>
      <point x="510.669" y="135.884"/>
      <point x="495" y="125"/>
    </contour>
  </outline>
</glyph>
<glyph name="A" format="2">
  <advance width="589"/>
  <unicode hex="0041"/>
  <anchor x="255" y="0" name="bottom"/>
  <anchor x="488" y="0" name="ogonek"/>
  <anchor x="354" y="696" name="top"/>
  <anchor x="202" y="696" name="topleft"/>
  <outline>
    <contour>
      <point x="475" y="696" type="line"/>
      <point x="233" y="696" type="line"/>
      <point x="-63" y="0" type="line"/>
      <point x="148" y="0" type="line"/>
      <point x="331" y="567" type="line"/>
      <point x="362" y="0" type="line"/>
      <point x="576" y="0" type="line"/>
    </contour>
    <contour>
      <point x="361" y="279" type="line"/>
      <point x="224" y="279" type="line"/>
      <point x="176" y="135" type="line"/>
      <point x="369" y="135" type="line"/>
    </contour>
  </outline>
</glyph>
<glyph name="C" format="2">
  <advance width="571"/>
  <unicode hex="0043"/>
  <anchor x="294" y="0" name="bottom"/>
  <anchor x="410" y="696" name="top"/>
  <outline>
    <contour>
      <point x="395" y="716" type="curve" smooth="yes"/>
      <point x="122" y="716"/>
      <point x="25" y="464"/>
      <point x="25" y="270" type="curve" smooth="yes"/>
      <point x="25" y="81"/>
      <point x="137" y="-20"/>
      <point x="301" y="-20" type="curve" smooth="yes"/>
      <point x="406" y="-20"/>
      <point x="488" y="25"/>
      <point x="545" y="76" type="curve"/>
      <point x="471" y="194" type="line"/>
      <point x="427" y="162"/>
      <point x="386" y="135"/>
      <point x="337" y="135" type="curve" smooth="yes"/>
      <point x="271" y="135"/>
      <point x="234" y="179"/>
      <point x="234" y="274" type="curve" smooth="yes"/>
      <point x="234" y="377"/>
      <point x="270" y="568"/>
      <point x="397" y="568" type="curve" smooth="yes"/>
      <point x="443" y="568"/>
      <point x="475" y="550"/>
      <point x="504" y="520" type="curve"/>
      <point x="613" y="626" type="line"/>
      <point x="564" y="684"/>
      <point x="491" y="716"/>
    </contour>
  </outline>
</glyph>
<glyph name="D" format="2">
  <advance width="644"/>
  <unicode hex="0044"/>
  <anchor x="252" y="0" name="bottom"/>
  <anchor x="334" y="348" name="center"/>
  <anchor x="346" y="696" name="top"/>
  <outline>
    <contour>
      <point x="320" y="696" type="curve" smooth="yes"/>
      <point x="103" y="696" type="line"/>
      <point x="6" y="0" type="line"/>
      <point x="237" y="0" type="line" smooth="yes"/>
      <point x="548" y="0"/>
      <point x="642" y="203"/>
      <point x="642" y="432" type="curve" smooth="yes"/>
      <point x="642" y="645"/>
      <point x="489" y="696"/>
    </contour>
    <contour>
      <point x="327" y="551" type="line" smooth="yes"/>
      <point x="397" y="551"/>
      <point x="434" y="524"/>
      <point x="434" y="430" type="curve" smooth="yes"/>
      <point x="434" y="314"/>
      <point x="408" y="145"/>
      <point x="267" y="145" type="curve" smooth="yes"/>
      <point x="228" y="145" type="line"/>
      <point x="285" y="551" type="line"/>
    </contour>
  </outline>
</glyph>
<glyph name="E" format="2">
  <advance width="511"/>
  <unicode hex="0045"/>
  <anchor x="229" y="0" name="bottom"/>
  <anchor x="421" y="0" name="ogonek"/>
  <anchor x="329" y="696" name="top"/>
  <anchor x="104" y="696" name="topleft"/>
  <outline>
    <contour>
      <point x="553" y="696" type="line"/>
      <point x="104" y="696" type="line"/>
      <point x="7" y="0" type="line"/>
      <point x="451" y="0" type="line"/>
      <point x="471" y="144" type="line"/>
      <point x="229" y="144" type="line"/>
      <point x="249" y="284" type="line"/>
      <point x="447" y="284" type="line"/>
      <point x="465" y="423" type="line"/>
      <point x="268" y="423" type="line"/>
      <point x="286" y="553" type="line"/>
      <point x="512" y="553" type="line"/>
    </contour>
  </outline>
</glyph>
<glyph name="F" format="2">
  <advance width="475"/>
  <unicode hex="0046"/>
  <anchor x="107" y="0" name="bottom"/>
  <anchor x="320" y="696" name="top"/>
  <outline>
    <contour>
      <point x="537" y="696" type="line"/>
      <point x="103" y="696" type="line"/>
      <point x="6" y="0" type="line"/>
      <point x="208" y="0" type="line"/>
      <point x="244" y="258" type="line"/>
      <point x="430" y="258" type="line"/>
      <point x="450" y="401" type="line"/>
      <point x="264" y="401" type="line"/>
      <point x="285" y="553" type="line"/>
      <point x="496" y="553" type="line"/>
    </contour>
  </outline>
</glyph>
<glyph name="H" format="2">
  <advance width="645"/>
  <unicode hex="0048"/>
  <anchor x="284" y="0" name="bottom"/>
  <anchor x="574" y="0" name="bottomright"/>
  <anchor x="334" y="348" name="center"/>
  <anchor x="382" y="696" name="top"/>
  <anchor x="104" y="696" name="topleft"/>
  <outline>
    <contour>
      <point x="5" y="0" type="line"/>
      <point x="207" y="0" type="line"/>
      <point x="246" y="281" type="line"/>
      <point x="400" y="281" type="line"/>
      <point x="362" y="0" type="line"/>
      <point x="564" y="0" type="line"/>
      <point x="661" y="696" type="line"/>
      <point x="459" y="696" type="line"/>
      <point x="423" y="439" type="line"/>
      <point x="268" y="439" type="line"/>
      <point x="304" y="696" type="line"/>
      <point x="103" y="696" type="line"/>
    </contour>
  </outline>
</glyph>
<glyph name="I" format="2">
  <advance width="289"/>
  <unicode hex="0049"/>
  <anchor x="107" y="0" name="bottom"/>
  <anchor x="173" y="0" name="ogonek"/>
  <anchor x="204" y="696" name="top"/>
  <anchor x="102" y="696" name="topleft"/>
  <outline>
    <contour>
      <point x="305" y="696" type="line"/>
      <point x="103" y="696" type="line"/>
      <point x="6" y="0" type="line"/>
      <point x="208" y="0" type="line"/>
    </contour>
  </outline>
</glyph>
<glyph name="J" format="2">
  <advance width="317"/>
  <unicode hex="004A"/>
  <anchor x="234" y="696" name="top"/>
  <outline>
    <contour>
      <point x="335" y="696" type="line"/>
      <point x="133" y="696" type="line"/>
      <point x="52" y="119" type="line" smooth="yes"/>
      <point x="41" y="42"/>
      <point x="24" y="-10"/>
      <point x="-68" y="-44" type="curve"/>
      <point x="-32" y="-189" type="line"/>
      <point x="92" y="-149"/>
      <point x="226" y="-84"/>
      <point x="254" y="110" type="curve" smooth="yes"/>
    </contour>
  </outline>
</glyph>
<glyph name="L" format="2">
  <advance width="514"/>
  <unicode hex="004C"/>
  <anchor x="226" y="0" name="bottom"/>
  <anchor x="415" y="404" name="center"/>
  <anchor x="204" y="696" name="top"/>
  <anchor x="324" y="696" name="topright"/>
  <outline>
    <contour>
      <point x="305" y="696" type="line"/>
      <point x="103" y="696" type="line"/>
      <point x="6" y="0" type="line"/>
      <point x="445" y="0" type="line"/>
      <point x="487" y="158" type="line"/>
      <point x="230" y="158" type="line"/>
    </contour>
  </outline>
</glyph>
<glyph name="M" format="2">
  <advance width="777"/>
  <unicode hex="004D"/>
  <anchor x="350" y="0" name="bottom"/>
  <anchor x="735" y="0" name="bottomright"/>
  <anchor x="442" y="696" name="top"/>
  <outline>
    <contour>
      <point x="772" y="696" type="line"/>
      <point x="516" y="696" type="line"/>
      <point x="380" y="226" type="line"/>
      <point x="367" y="696" type="line"/>
      <point x="123" y="696" type="line"/>
      <point x="-23" y="0" type="line"/>
      <point x="176" y="0" type="line"/>
      <point x="215" y="247" type="line" smooth="yes"/>
      <point x="231" y="341"/>
      <point x="237" y="415"/>
      <point x="239" y="550" type="curve"/>
      <point x="262" y="70" type="line"/>
      <point x="456" y="70" type="line"/>
      <point x="602" y="552" type="line"/>
      <point x="578" y="428"/>
      <point x="564" y="338"/>
      <point x="554" y="248" type="curve" smooth="yes"/>
      <point x="525" y="0" type="line"/>
      <point x="724" y="0" type="line"/>
    </contour>
  </outline>
</glyph>
<glyph name="N" format="2">
  <advance width="640"/>
  <unicode hex="004E"/>
  <anchor x="283" y="0" name="bottom"/>
  <anchor x="380" y="696" name="top"/>
  <outline>
    <contour>
      <point x="656" y="696" type="line"/>
      <point x="480" y="696" type="line"/>
      <point x="450" y="484" type="line" smooth="yes"/>
      <point x="431" y="348"/>
      <point x="435" y="268"/>
      <point x="442" y="169" type="curve"/>
      <point x="353" y="696" type="line"/>
      <point x="103" y="696" type="line"/>
      <point x="6" y="0" type="line"/>
      <point x="182" y="0" type="line"/>
      <point x="211" y="205" type="line" smooth="yes"/>
      <point x="230" y="344"/>
      <point x="225" y="440"/>
      <point x="220" y="527" type="curve"/>
      <point x="305" y="0" type="line"/>
      <point x="559" y="0" type="line"/>
    </contour>
  </outline>
</glyph>
<glyph name="R" format="2">
  <advance width="612"/>
  <unicode hex="0052"/>
  <anchor x="270" y="0" name="bottom"/>
  <anchor x="367" y="696" name="top"/>
  <outline>
    <contour>
      <point x="354" y="696" type="curve" smooth="yes"/>
      <point x="103" y="696" type="line"/>
      <point x="6" y="0" type="line"/>
      <point x="208" y="0" type="line"/>
      <point x="285" y="555" type="line"/>
      <point x="329" y="555" type="line" smooth="yes"/>
      <point x="382" y="555"/>
      <point x="410" y="535"/>
      <point x="410" y="491" type="curve" smooth="yes"/>
      <point x="410" y="441"/>
      <point x="385" y="386"/>
      <point x="314" y="386" type="curve" smooth="yes"/>
      <point x="245" y="386" type="line"/>
      <point x="226" y="248" type="line"/>
      <point x="392" y="247" type="line"/>
      <point x="586" y="319"/>
      <point x="618" y="403"/>
      <point x="618" y="504" type="curve" smooth="yes"/>
      <point x="618" y="619"/>
      <point x="528" y="696"/>
    </contour>
    <contour>
      <point x="462" y="300" type="line"/>
      <point x="278" y="262" type="line"/>
      <point x="375" y="0" type="line"/>
      <point x="595" y="0" type="line"/>
    </contour>
  </outline>
</glyph>
<glyph name="S" format="2">
  <advance width="576"/>
  <unicode hex="0053"/>
  <anchor x="250" y="0" name="bottom"/>
  <anchor x="361" y="696" name="top"/>
  <outline>
    <contour>
      <point x="346" y="716" type="curve" smooth="yes"/>
      <point x="144" y="716"/>
      <point x="58" y="601"/>
      <point x="58" y="486" type="curve" smooth="yes"/>
      <point x="58" y="398"/>
      <point x="105" y="331"/>
      <point x="244" y="285" type="curve" smooth="yes"/>
      <point x="319" y="259"/>
      <point x="342" y="236"/>
      <point x="342" y="200" type="curve" smooth="yes"/>
      <point x="342" y="158"/>
      <point x="310" y="134"/>
      <point x="249" y="134" type="curve" smooth="yes"/>
      <point x="182" y="134"/>
      <point x="131" y="158"/>
      <point x="88" y="201" type="curve"/>
      <point x="-25" y="86" type="line"/>
      <point x="29" y="31"/>
      <point x="115" y="-20"/>
      <point x="244" y="-20" type="curve" smooth="yes"/>
      <point x="478" y="-20"/>
      <point x="556" y="118"/>
      <point x="556" y="238" type="curve" smooth="yes"/>
      <point x="556" y="337"/>
      <point x="501" y="399"/>
      <point x="380" y="440" type="curve" smooth="yes"/>
      <point x="296" y="468"/>
      <point x="271" y="481"/>
      <point x="271" y="514" type="curve" smooth="yes"/>
      <point x="271" y="547"/>
      <point x="300" y="570"/>
      <point x="354" y="570" type="curve" smooth="yes"/>
      <point x="407" y="570"/>
      <point x="451" y="552"/>
      <point x="492" y="515" type="curve"/>
      <point x="594" y="620" type="line"/>
      <point x="534" y="681"/>
      <point x="452" y="716"/>
    </contour>
  </outline>
</glyph>
<glyph name="T" format="2">
  <advance width="542"/>
  <unicode hex="0054"/>
  <anchor x="234" y="0" name="bottom"/>
  <anchor x="345" y="0" name="bottomright"/>
  <anchor x="283" y="348" name="center"/>
  <anchor x="332" y="696" name="top"/>
  <outline>
    <contour>
      <point x="608" y="696" type="line"/>
      <point x="64" y="696" type="line"/>
      <point x="43" y="542" type="line"/>
      <point x="209" y="542" type="line"/>
      <point x="133" y="0" type="line"/>
      <point x="335" y="0" type="line"/>
      <point x="411" y="542" type="line"/>
      <point x="566" y="542" type="line"/>
    </contour>
  </outline>
</glyph>
<glyph name="V" format="2">
  <advance width="567"/>
  <unicode hex="0056"/>
  <anchor x="245" y="0" name="bottom"/>
  <anchor x="343" y="696" name="top"/>
  <outline>
    <contour>
      <point x="652" y="696" type="line"/>
      <point x="443" y="696" type="line"/>
      <point x="273" y="143" type="line"/>
      <point x="246" y="696" type="line"/>
      <point x="35" y="696" type="line"/>
      <point x="122" y="0" type="line"/>
      <point x="382" y="0" type="line"/>
    </contour>
  </outline>
</glyph>
<glyph name="W" format="2">
  <advance width="847"/>
  <unicode hex="0057"/>
  <anchor x="385.976" y="0" name="bottom"/>
  <anchor x="486" y="696" name="top"/>
  <outline>
    <contour>
      <point x="905" y="696" type="line"/>
      <point x="709" y="696" type="line"/>
      <point x="574" y="149" type="line"/>
      <point x="590" y="696" type="line"/>
      <point x="378" y="696" type="line"/>
      <point x="229" y="149" type="line"/>
      <point x="262" y="696" type="line"/>
      <point x="62" y="696" type="line"/>
      <point x="61" y="0" type="line"/>
      <point x="317" y="0" type="line"/>
      <point x="455" y="500" type="line"/>
      <point x="446" y="0" type="line"/>
      <point x="709" y="0" type="line"/>
    </contour>
  </outline>
</glyph>
<glyph name="X" format="2">
  <advance width="594"/>
  <unicode hex="0058"/>
  <anchor x="258" y="0" name="bottom"/>
  <anchor x="507" y="0" name="bottomright"/>
  <anchor x="356" y="696" name="top"/>
  <outline>
    <contour>
      <point x="277" y="696" type="line"/>
      <point x="62" y="696" type="line"/>
      <point x="186" y="369" type="line"/>
      <point x="290" y="249" type="line"/>
      <point x="350" y="0" type="line"/>
      <point x="566" y="0" type="line"/>
      <point x="428" y="375" type="line"/>
      <point x="322" y="486" type="line"/>
    </contour>
    <contour>
      <point x="649" y="696" type="line"/>
      <point x="434" y="696" type="line"/>
      <point x="322" y="486" type="line"/>
      <point x="185" y="369" type="line"/>
      <point x="-48" y="0" type="line"/>
      <point x="168" y="0" type="line"/>
      <point x="290" y="249" type="line"/>
      <point x="429" y="375" type="line"/>
    </contour>
  </outline>
</glyph>
<glyph name="Y" format="2">
  <advance width="608"/>
  <unicode hex="0059"/>
  <anchor x="267" y="0" name="bottom"/>
  <anchor x="364" y="696" name="top"/>
  <anchor x="46" y="696" name="topleft"/>
  <outline>
    <contour>
      <point x="683" y="696" type="line"/>
      <point x="467" y="696" type="line"/>
      <point x="325" y="412" type="line"/>
      <point x="262" y="696" type="line"/>
      <point x="45" y="696" type="line"/>
      <point x="202" y="256" type="line"/>
      <point x="166" y="0" type="line"/>
      <point x="368" y="0" type="line"/>
      <point x="404" y="257" type="line"/>
    </contour>
  </outline>
</glyph>
<glyph name="Z" format="2">
  <advance width="545"/>
  <unicode hex="005A"/>
  <anchor x="223" y="0" name="bottom"/>
  <anchor x="333" y="696" name="top"/>
  <outline>
    <contour>
      <point x="-28" y="0" type="line"/>
      <point x="474" y="0" type="line"/>
      <point x="516" y="161" type="line"/>
      <point x="232" y="161" type="line"/>
      <point x="561" y="543" type="line"/>
      <point x="582" y="696" type="line"/>
      <point x="97" y="696" type="line"/>
      <point x="76" y="540" type="line"/>
      <point x="326" y="540" type="line"/>
      <point x="-8" y="151" type="line"/>
    </contour>
  </outline>
</glyph>
<glyph name="a" format="2">
  <advance width="574"/>
  <unicode hex="0061"/>
  <anchor x="277" y="0" name="bottom"/>
  <anchor x="494" y="-16" name="ogonek"/>
  <anchor x="347" y="534" name="top"/>
  <outline>
    <contour>
      <point x="330" y="554" type="curve" smooth="yes"/>
      <point x="94" y="554"/>
      <point x="11" y="354"/>
      <point x="11" y="197" type="curve" smooth="yes"/>
      <point x="11" y="64"/>
      <point x="72" y="-20"/>
      <point x="186" y="-20" type="curve" smooth="yes"/>
      <point x="262" y="-20"/>
      <point x="310" y="19"/>
      <point x="345" y="72" type="curve"/>
      <point x="366" y="15"/>
      <point x="424" y="-12"/>
      <point x="486" y="-16" type="curve"/>
      <point x="542" y="110" type="line"/>
      <point x="516" y="121"/>
      <point x="516" y="138"/>
      <point x="520" y="172" type="curve" smooth="yes"/>
      <point x="566" y="491" type="line"/>
      <point x="492" y="535"/>
      <point x="405" y="554"/>
    </contour>
    <contour>
      <point x="322" y="418" type="curve" smooth="yes"/>
      <point x="338" y="418"/>
      <point x="349" y="416"/>
      <point x="364" y="412" type="curve"/>
      <point x="330" y="182" type="line"/>
      <point x="306" y="141"/>
      <point x="279" y="122"/>
      <point x="253" y="122" type="curve" smooth="yes"/>
      <point x="231" y="122"/>
      <point x="210" y="132"/>
      <point x="210" y="198" type="curve" smooth="yes"/>
      <point x="210" y="292"/>
      <point x="237" y="418"/>
    </contour>
  </outline>
</glyph>
<glyph name="b" format="2">
  <advance width="583"/>
  <unicode hex="0062"/>
  <anchor x="254" y="0" name="bottom"/>
  <anchor x="401" y="744" name="top"/>
  <outline>
    <contour>
      <point x="407" y="554" type="curve" smooth="yes"/>
      <point x="357" y="554"/>
      <point x="300" y="530"/>
      <point x="265" y="493" type="curve"/>
      <point x="303" y="764" type="line"/>
      <point x="107" y="744" type="line"/>
      <point x="7" y="30" type="line"/>
      <point x="77" y="-1"/>
      <point x="156" y="-20"/>
      <point x="244" y="-20" type="curve" smooth="yes"/>
      <point x="514" y="-20"/>
      <point x="571" y="191"/>
      <point x="571" y="347" type="curve" smooth="yes"/>
      <point x="571" y="478"/>
      <point x="518" y="554"/>
    </contour>
    <contour>
      <point x="326" y="412" type="curve" smooth="yes"/>
      <point x="351" y="412"/>
      <point x="372" y="400"/>
      <point x="372" y="338" type="curve" smooth="yes"/>
      <point x="372" y="249"/>
      <point x="345" y="121"/>
      <point x="266" y="121" type="curve" smooth="yes"/>
      <point x="245" y="121"/>
      <point x="228" y="126"/>
      <point x="215" y="131" type="curve"/>
      <point x="247" y="359" type="line"/>
      <point x="272" y="396"/>
      <point x="299" y="412"/>
    </contour>
  </outline>
</glyph>
<glyph name="d" format="2">
  <advance width="585"/>
  <unicode hex="0064"/>
  <anchor x="253" y="0" name="bottom"/>
  <anchor x="291" y="267" name="center"/>
  <anchor x="337" y="744" name="top"/>
  <anchor x="625" y="744" name="topright"/>
  <outline>
    <contour>
      <point x="419" y="764" type="line"/>
      <point x="384" y="511" type="line"/>
      <point x="358" y="537"/>
      <point x="319" y="554"/>
      <point x="271" y="554" type="curve" smooth="yes"/>
      <point x="88" y="554"/>
      <point x="11" y="347"/>
      <point x="11" y="197" type="curve" smooth="yes"/>
      <point x="11" y="61"/>
      <point x="65" y="-20"/>
      <point x="178" y="-20" type="curve" smooth="yes"/>
      <point x="253" y="-20"/>
      <point x="303" y="25"/>
      <point x="335" y="69" type="curve"/>
      <point x="334" y="0" type="line"/>
      <point x="507" y="0" type="line"/>
      <point x="611" y="744" type="line"/>
    </contour>
    <contour>
      <point x="315" y="413" type="curve" smooth="yes"/>
      <point x="336" y="413"/>
      <point x="352" y="406"/>
      <point x="367" y="391" type="curve"/>
      <point x="341" y="205" type="line"/>
      <point x="317" y="166"/>
      <point x="284" y="122"/>
      <point x="251" y="122" type="curve" smooth="yes"/>
      <point x="230" y="122"/>
      <point x="211" y="133"/>
      <point x="211" y="199" type="curve" smooth="yes"/>
      <point x="211" y="278"/>
      <point x="233" y="413"/>
    </contour>
  </outline>
</glyph>
<glyph name="e" format="2">
  <advance width="542"/>
  <unicode hex="0065"/>
  <anchor x="251" y="0" name="bottom"/>
  <anchor x="412" y="11" name="ogonek"/>
  <anchor x="316" y="534" name="top"/>
  <outline>
    <contour>
      <point x="331" y="554" type="curve" smooth="yes"/>
      <point x="94" y="554"/>
      <point x="12" y="356"/>
      <point x="12" y="211" type="curve" smooth="yes"/>
      <point x="12" y="75"/>
      <point x="90" y="-20"/>
      <point x="261" y="-20" type="curve" smooth="yes"/>
      <point x="351" y="-20"/>
      <point x="427" y="13"/>
      <point x="486" y="56" type="curve"/>
      <point x="419" y="169" type="line"/>
      <point x="369" y="137"/>
      <point x="331" y="120"/>
      <point x="287" y="120" type="curve" smooth="yes"/>
      <point x="240" y="120"/>
      <point x="205" y="140"/>
      <point x="205" y="208" type="curve" smooth="yes"/>
      <point x="205" y="286"/>
      <point x="226" y="429"/>
      <point x="312" y="429" type="curve" smooth="yes"/>
      <point x="341" y="429"/>
      <point x="351" y="413"/>
      <point x="351" y="392" type="curve" smooth="yes"/>
      <point x="351" y="367"/>
      <point x="334" y="305"/>
      <point x="203" y="302" type="curve"/>
      <point x="189" y="190" type="line"/>
      <point x="348" y="202"/>
      <point x="545" y="247"/>
      <point x="545" y="401" type="curve" smooth="yes"/>
      <point x="545" y="488"/>
      <point x="470" y="554"/>
    </contour>
  </outline>
</glyph>
<glyph name="m" format="2">
  <advance width="821"/>
  <unicode hex="006D"/>
  <anchor x="376" y="0" name="bottom"/>
  <anchor x="456" y="534" name="top"/>
  <outline>
    <contour>
      <point x="410" y="554" type="curve" smooth="yes"/>
      <point x="347" y="554"/>
      <point x="286.997" y="517.769"/>
      <point x="247.875" y="455.715" type="curve"/>
      <point x="247" y="534" type="line"/>
      <point x="78" y="534" type="line"/>
      <point x="4" y="0" type="line"/>
      <point x="198" y="0" type="line"/>
      <point x="238.325" y="280.694" type="line"/>
      <point x="261" y="354"/>
      <point x="290" y="393"/>
      <point x="311" y="393" type="curve" smooth="yes"/>
      <point x="324" y="393"/>
      <point x="333" y="383"/>
      <point x="327" y="341" type="curve" smooth="yes"/>
      <point x="279" y="0" type="line"/>
      <point x="473" y="0" type="line"/>
      <point x="528" y="393" type="line" smooth="yes"/>
      <point x="542" y="495"/>
      <point x="496" y="554"/>
    </contour>
    <contour>
      <point x="686" y="554" type="curve" smooth="yes"/>
      <point x="608" y="554"/>
      <point x="525" y="489"/>
      <point x="493" y="397" type="curve"/>
      <point x="509" y="275" type="line"/>
      <point x="536" y="352"/>
      <point x="564" y="393"/>
      <point x="588" y="393" type="curve" smooth="yes"/>
      <point x="601" y="393"/>
      <point x="609" y="383"/>
      <point x="603" y="341" type="curve" smooth="yes"/>
      <point x="554" y="0" type="line"/>
      <point x="748" y="0" type="line"/>
      <point x="803" y="393" type="line" smooth="yes"/>
      <point x="817" y="495"/>
      <point x="771" y="554"/>
    </contour>
  </outline>
</glyph>
<glyph name="p" format="2">
  <advance width="583"/>
  <unicode hex="0070"/>
  <anchor x="232" y="-215" name="bottom"/>
  <anchor x="331" y="534" name="top"/>
  <outline>
    <contour>
      <point x="-28" y="-227" type="line"/>
      <point x="166" y="-207" type="line"/>
      <point x="196" y="-6" type="line"/>
      <point x="211" y="-12"/>
      <point x="239" y="-20"/>
      <point x="289" y="-20" type="curve" smooth="yes"/>
      <point x="503" y="-20"/>
      <point x="572" y="191"/>
      <point x="572" y="347" type="curve" smooth="yes"/>
      <point x="572" y="478"/>
      <point x="519" y="554"/>
      <point x="406" y="554" type="curve" smooth="yes"/>
      <point x="361.615" y="554"/>
      <point x="305.126" y="534.448"/>
      <point x="251.806" y="479.175" type="curve"/>
      <point x="251" y="534" type="line"/>
      <point x="78" y="534" type="line"/>
    </contour>
    <contour>
      <point x="267" y="121" type="curve" smooth="yes"/>
      <point x="246" y="121"/>
      <point x="229" y="126"/>
      <point x="216" y="131" type="curve"/>
      <point x="248.385" y="359.566" type="line"/>
      <point x="273.277" y="396.163"/>
      <point x="300.138" y="412"/>
      <point x="327" y="412" type="curve" smooth="yes"/>
      <point x="352" y="412"/>
      <point x="373" y="400"/>
      <point x="373" y="338" type="curve" smooth="yes"/>
      <point x="373" y="249"/>
      <point x="346" y="121"/>
    </contour>
  </outline>
</glyph>
<glyph name="r" format="2">
  <advance width="399"/>
  <unicode hex="0072"/>
  <anchor x="101" y="0" name="bottom"/>
  <anchor x="263" y="534" name="top"/>
  <outline>
    <contour>
      <point x="396" y="551" type="curve" smooth="yes"/>
      <point x="342.614" y="551"/>
      <point x="281.569" y="507.342"/>
      <point x="247.722" y="439.465" type="curve"/>
      <point x="247" y="534" type="line"/>
      <point x="78" y="534" type="line"/>
      <point x="4" y="0" type="line"/>
      <point x="198" y="0" type="line"/>
      <point x="229.505" y="225.166" type="line"/>
      <point x="254.054" y="295.842"/>
      <point x="283.764" y="359"/>
      <point x="348" y="359" type="curve" smooth="yes"/>
      <point x="364" y="359"/>
      <point x="377" y="356"/>
      <point x="394" y="351" type="curve"/>
      <point x="449" y="542" type="line"/>
      <point x="432" y="548"/>
      <point x="418" y="551"/>
    </contour>
  </outline>
</glyph>
<glyph name="t" format="2">
  <advance width="389"/>
  <unicode hex="0074"/>
  <anchor x="200" y="0" name="bottom"/>
  <anchor x="192" y="267" name="center"/>
  <anchor x="221" y="649" name="top"/>
  <anchor x="334" y="809" name="topright"/>
  <outline>
    <contour>
      <point x="309" y="669" type="line"/>
      <point x="137" y="649" type="line"/>
      <point x="88" y="474" type="line"/>
      <point x="49" y="198" type="line" smooth="yes"/>
      <point x="30" y="57"/>
      <point x="88" y="-20"/>
      <point x="211" y="-20" type="curve" smooth="yes"/>
      <point x="259" y="-20"/>
      <point x="325" y="-6"/>
      <point x="373" y="22" type="curve"/>
      <point x="325" y="148" type="line"/>
      <point x="307" y="140"/>
      <point x="292" y="135"/>
      <point x="274" y="135" type="curve" smooth="yes"/>
      <point x="250" y="135"/>
      <point x="237" y="148"/>
      <point x="244" y="198" type="curve" smooth="yes"/>
    </contour>
    <contour>
      <point x="410" y="534" type="line"/>
      <point x="33" y="534" type="line"/>
      <point x="15" y="400" type="line"/>
      <point x="370" y="400" type="line"/>
    </contour>
  </outline>
</glyph>
<glyph name="u" format="2">
  <advance width="554"/>
  <unicode hex="0075"/>
  <anchor x="251" y="0" name="bottom"/>
  <anchor x="486" y="0" name="bottomright"/>
  <anchor x="484" y="0" name="ogonek"/>
  <anchor x="312" y="534" name="top"/>
  <anchor x="560" y="534" name="topright"/>
  <outline>
    <contour>
      <point x="144" y="-20" type="curve" smooth="yes"/>
      <point x="208.247" y="-20"/>
      <point x="264.913" y="14.538"/>
      <point x="308.585" y="67.378" type="curve"/>
      <point x="307" y="0" type="line"/>
      <point x="476" y="0" type="line"/>
      <point x="550" y="534" type="line"/>
      <point x="356" y="534" type="line"/>
      <point x="309.299" y="200.804" type="line"/>
      <point x="286.728" y="163.148"/>
      <point x="262.078" y="138"/>
      <point x="242" y="138" type="curve" smooth="yes"/>
      <point x="225" y="138"/>
      <point x="214" y="147"/>
      <point x="220" y="189" type="curve" smooth="yes"/>
      <point x="267" y="534" type="line"/>
      <point x="73" y="534" type="line"/>
      <point x="19" y="151" type="line" smooth="yes"/>
      <point x="5" y="49"/>
      <point x="41" y="-20"/>
    </contour>
  </outline>
</glyph>
<glyph name="v" format="2">
  <advance width="514"/>
  <unicode hex="0076"/>
  <anchor x="225" y="0" name="bottom"/>
  <anchor x="298" y="534" name="top"/>
  <outline>
    <contour>
      <point x="568" y="534" type="line"/>
      <point x="366" y="534" type="line"/>
      <point x="245" y="143" type="line"/>
      <point x="230" y="534" type="line"/>
      <point x="22" y="534" type="line"/>
      <point x="108" y="0" type="line"/>
      <point x="341" y="0" type="line"/>
    </contour>
  </outline>
</glyph>
<glyph name="w" format="2">
  <advance width="756"/>
  <unicode hex="0077"/>
  <anchor x="345" y="0" name="bottom"/>
  <anchor x="416" y="534" name="top"/>
  <outline>
    <contour>
      <point x="797" y="534" type="line"/>
      <point x="611" y="534" type="line"/>
      <point x="514" y="151" type="line"/>
      <point x="512" y="534" type="line"/>
      <point x="331" y="534" type="line"/>
      <point x="209" y="151" type="line"/>
      <point x="231" y="534" type="line"/>
      <point x="35" y="534" type="line"/>
      <point x="66" y="0" type="line"/>
      <point x="289" y="0" type="line"/>
      <point x="393" y="358" type="line"/>
      <point x="400" y="0" type="line"/>
      <point x="620" y="0" type="line"/>
    </contour>
  </outline>
</glyph>
<glyph name="x" format="2">
  <advance width="518"/>
  <unicode hex="0078"/>
  <anchor x="219" y="0" name="bottom"/>
  <anchor x="431" y="0" name="bottomright"/>
  <anchor x="292" y="534" name="top"/>
  <outline>
    <contour>
      <point x="244" y="534" type="line"/>
      <point x="30" y="534" type="line"/>
      <point x="141" y="283" type="line"/>
      <point x="242" y="178" type="line"/>
      <point x="286" y="0" type="line"/>
      <point x="499" y="0" type="line"/>
      <point x="379" y="282" type="line"/>
      <point x="273" y="377" type="line"/>
    </contour>
    <contour>
      <point x="545" y="534" type="line"/>
      <point x="341" y="534" type="line"/>
      <point x="273" y="377" type="line"/>
      <point x="141" y="283" type="line"/>
      <point x="-57" y="0" type="line"/>
      <point x="151" y="0" type="line"/>
      <point x="242" y="178" type="line"/>
      <point x="379" y="282" type="line"/>
    </contour>
  </outline>
</glyph>
<glyph name="y" format="2">
  <advance width="520"/>
  <unicode hex="0079"/>
  <anchor x="204" y="-215" name="bottom"/>
  <anchor x="297" y="534" name="top"/>
  <outline>
    <contour>
      <point x="573" y="534" type="line"/>
      <point x="370" y="534" type="line"/>
      <point x="234" y="122" type="line"/>
      <point x="223" y="534" type="line"/>
      <point x="21" y="534" type="line"/>
      <point x="96" y="0" type="line"/>
      <point x="165" y="1" type="line"/>
      <point x="127" y="-59"/>
      <point x="80" y="-83"/>
      <point x="-22" y="-93" type="curve"/>
      <point x="-18" y="-228" type="line"/>
      <point x="158" y="-223"/>
      <point x="280" y="-148"/>
      <point x="344" y="0" type="curve" smooth="yes"/>
    </contour>
  </outline>
</glyph>
<glyph name="z" format="2">
  <advance width="460"/>
  <unicode hex="007A"/>
  <anchor x="182" y="0" name="bottom"/>
  <anchor x="271" y="534" name="top"/>
  <outline>
    <contour>
      <point x="482" y="534" type="line"/>
      <point x="60" y="534" type="line"/>
      <point x="40" y="390" type="line"/>
      <point x="222" y="390" type="line"/>
      <point x="-16" y="138" type="line"/>
      <point x="-34" y="0" type="line"/>
      <point x="398" y="0" type="line"/>
      <point x="435" y="146" type="line"/>
      <point x="229" y="146" type="line"/>
      <point x="464" y="397" type="line"/>
    </contour>
  </outline>
</glyph>
<glyph name="cent" format="2">
  <advance width="469"/>
  <unicode hex="00A2"/>
  <anchor x="235" y="0" name="bottom"/>
  <anchor x="323" y="534" name="top"/>
  <outline>
    <contour>
      <point x="396" y="696" type="line"/>
      <point x="265" y="696" type="line"/>
      <point x="242" y="535" type="line"/>
      <point x="374" y="538" type="line"/>
    </contour>
    <contour>
      <point x="167" y="-1" type="line"/>
      <point x="143" y="-165" type="line"/>
      <point x="276" y="-165" type="line"/>
      <point x="299" y="-5" type="line"/>
    </contour>
    <component base="c"/>
  </outline>
</glyph>
<glyph name="copyright" format="2">
  <advance width="810"/>
  <unicode hex="00A9"/>
  <outline>
    <contour>
      <point x="429" y="777" type="curve" smooth="yes"/>
      <point x="233" y="777"/>
      <point x="75" y="635"/>
      <point x="75" y="431" type="curve" smooth="yes"/>
      <point x="75" y="227"/>
      <point x="233" y="86"/>
      <point x="429" y="86" type="curve" smooth="yes"/>
      <point x="626" y="86"/>
      <point x="781" y="227"/>
      <point x="781" y="431" type="curve" smooth="yes"/>
      <point x="781" y="635"/>
      <point x="626" y="777"/>
    </contour>
    <contour>
      <point x="431" y="633" type="curve" smooth="yes"/>
      <point x="321" y="633"/>
      <point x="246" y="554"/>
      <point x="246" y="432" type="curve" smooth="yes"/>
      <point x="246" y="302"/>
      <point x="317" y="230"/>
      <point x="432" y="230" type="curve" smooth="yes"/>
      <point x="485" y="230"/>
      <point x="536" y="251"/>
      <point x="574" y="287" type="curve"/>
      <point x="523" y="362" type="line"/>
      <point x="498" y="342"/>
      <point x="474" y="333"/>
      <point x="444" y="333" type="curve" smooth="yes"/>
      <point x="407" y="333"/>
      <point x="382" y="358"/>
      <point x="382" y="432" type="curve" smooth="yes"/>
      <point x="382" y="505"/>
      <point x="411" y="530"/>
      <point x="447" y="530" type="curve" smooth="yes"/>
      <point x="471" y="530"/>
      <point x="488" y="527"/>
      <point x="514" y="507" type="curve"/>
      <point x="570" y="576" type="line"/>
      <point x="534" y="612"/>
      <point x="481" y="633"/>
    </contour>
    <contour>
      <point x="429" y="681" type="curve" smooth="yes"/>
      <point x="568" y="681"/>
      <point x="671" y="581"/>
      <point x="671" y="431" type="curve" smooth="yes"/>
      <point x="671" y="281"/>
      <point x="568" y="182"/>
      <point x="429" y="182" type="curve" smooth="yes"/>
      <point x="289" y="182"/>
      <point x="186" y="281"/>
      <point x="186" y="431" type="curve" smooth="yes"/>
      <point x="186" y="581"/>
      <point x="289" y="681"/>
    </contour>
  </outline>
</glyph>
<glyph name="logicalnot" format="2">
  <advance width="536"/>
  <unicode hex="00AC"/>
  <outline>
    <contour>
      <point x="518" y="407" type="line"/>
      <point x="58" y="407" type="line"/>
      <point x="37" y="257" type="line"/>
      <point x="331" y="257" type="line"/>
      <point x="308" y="97" type="line"/>
      <point x="474" y="97" type="line"/>
    </contour>
  </outline>
</glyph>
<glyph name="registered" format="2">
  <advance width="635"/>
  <unicode hex="00AE"/>
  <outline>
    <contour>
      <point x="349" y="764" type="curve" smooth="yes"/>
      <point x="183" y="764"/>
      <point x="60" y="648"/>
      <point x="60" y="479" type="curve" smooth="yes"/>
      <point x="60" y="311"/>
      <point x="183" y="196"/>
      <point x="349" y="196" type="curve" smooth="yes"/>
      <point x="514" y="196"/>
      <point x="635" y="311"/>
      <point x="635" y="479" type="curve" smooth="yes"/>
      <point x="635" y="648"/>
      <point x="514" y="764"/>
    </contour>
    <contour>
      <point x="403" y="479" type="line"/>
      <point x="329" y="462" type="line"/>
      <point x="393" y="347" type="line"/>
      <point x="484" y="347" type="line"/>
    </contour>
    <contour>
      <point x="349" y="686" type="curve" smooth="yes"/>
      <point x="463" y="686"/>
      <point x="543" y="606"/>
      <point x="543" y="479" type="curve" smooth="yes"/>
      <point x="543" y="352"/>
      <point x="463" y="274"/>
      <point x="349" y="274" type="curve" smooth="yes"/>
      <point x="234" y="274"/>
      <point x="152" y="352"/>
      <point x="152" y="479" type="curve" smooth="yes"/>
      <point x="152" y="606"/>
      <point x="234" y="686"/>
    </contour>
    <contour>
      <point x="325" y="633" type="curve" smooth="yes"/>
      <point x="237" y="633" type="line"/>
      <point x="237" y="347" type="line"/>
      <point x="317" y="347" type="line"/>
      <point x="317" y="574" type="line"/>
      <point x="345" y="574" type="line" smooth="yes"/>
      <point x="368" y="574"/>
      <point x="383" y="565"/>
      <point x="383" y="546" type="curve" smooth="yes"/>
      <point x="383" y="523"/>
      <point x="366" y="514"/>
      <point x="346" y="514" type="curve" smooth="yes"/>
      <point x="301" y="514" type="line"/>
      <point x="301" y="448" type="line"/>
      <point x="353" y="448" type="line"/>
      <point x="395" y="459" type="line"/>
      <point x="435" y="472"/>
      <point x="465" y="501"/>
      <point x="465" y="543" type="curve" smooth="yes"/>
      <point x="465" y="605"/>
      <point x="417" y="633"/>
    </contour>
  </outline>
</glyph>
<glyph name="degree" format="2">
  <advance width="507"/>
  <unicode hex="00B0"/>
  <outline>
    <contour>
      <point x="228" y="362" type="curve"/>
      <point x="336" y="362"/>
      <point x="432" y="437"/>
      <point x="432" y="561" type="curve" smooth="yes"/>
      <point x="432" y="657"/>
      <point x="363" y="716"/>
      <point x="269" y="716" type="curve"/>
      <point x="161" y="716"/>
      <point x="65" y="641"/>
      <point x="65" y="517" type="curve" smooth="yes"/>
      <point x="65" y="421"/>
      <point x="134" y="362"/>
    </contour>
    <contour>
      <point x="237" y="470" type="curve"/>
      <point x="205" y="470"/>
      <point x="190" y="491"/>
      <point x="190" y="525" type="curve" smooth="yes"/>
      <point x="190" y="573"/>
      <point x="216" y="608"/>
      <point x="260" y="608" type="curve"/>
      <point x="292" y="608"/>
      <point x="307" y="587"/>
      <point x="307" y="553" type="curve" smooth="yes"/>
      <point x="307" y="505"/>
      <point x="281" y="470"/>
    </contour>
  </outline>
</glyph>
<glyph name="paragraph" format="2">
  <advance width="808"/>
  <unicode hex="00B6"/>
  <outline>
    <contour>
      <point x="767" y="696" type="line"/>
      <point x="387" y="696" type="line"/>
      <point x="349" y="662" type="line"/>
      <point x="225" y="-228" type="line"/>
      <point x="395" y="-207" type="line"/>
      <point x="503" y="563" type="line"/>
      <point x="580" y="563" type="line"/>
      <point x="470" y="-228" type="line"/>
      <point x="640" y="-207" type="line"/>
    </contour>
    <contour>
      <point x="387" y="696" type="line"/>
      <point x="204" y="696"/>
      <point x="77" y="605"/>
      <point x="77" y="442" type="curve" smooth="yes"/>
      <point x="77" y="323"/>
      <point x="157" y="247"/>
      <point x="312" y="252" type="curve"/>
    </contour>
  </outline>
</glyph>
<glyph name="ordmasculine" format="2">
  <advance width="488"/>
  <unicode hex="00BA"/>
  <outline>
    <contour>
      <point x="302" y="696" type="curve"/>
      <point x="150" y="696"/>
      <point x="50" y="590"/>
      <point x="50" y="437" type="curve" smooth="yes"/>
      <point x="50" y="321"/>
      <point x="126" y="260"/>
      <point x="246" y="260" type="curve"/>
      <point x="397" y="260"/>
      <point x="498" y="365"/>
      <point x="498" y="517" type="curve" smooth="yes"/>
      <point x="498" y="635"/>
      <point x="423" y="696"/>
    </contour>
    <contour>
      <point x="289" y="574" type="curve"/>
      <point x="313" y="574"/>
      <point x="325" y="559"/>
      <point x="325" y="523" type="curve" smooth="yes"/>
      <point x="325" y="463"/>
      <point x="310" y="382"/>
      <point x="259" y="382" type="curve"/>
      <point x="234" y="382"/>
      <point x="223" y="398"/>
      <point x="223" y="435" type="curve" smooth="yes"/>
      <point x="223" y="495"/>
      <point x="237" y="574"/>
    </contour>
    <component base="minus" xOffset="-52" yOffset="-257"/>
  </outline>
</glyph>
<glyph name="AE" format="2">
  <advance width="846.816"/>
  <unicode hex="00C6"/>
  <anchor x="385.884" y="0" name="bottom"/>
  <anchor x="541" y="696" name="top"/>
  <outline>
    <contour>
      <point x="854" y="696" type="line"/>
      <point x="288" y="696" type="line"/>
      <point x="-64" y="0" type="line"/>
      <point x="155" y="0" type="line"/>
      <point x="397" y="549" type="line"/>
      <point x="401" y="0" type="line"/>
      <point x="791" y="0" type="line"/>
      <point x="811" y="144" type="line"/>
      <point x="583" y="144" type="line"/>
      <point x="571" y="553" type="line"/>
      <point x="814" y="553" type="line"/>
    </contour>
    <contour>
      <point x="409" y="279" type="line"/>
      <point x="261" y="279" type="line"/>
      <point x="198" y="135" type="line"/>
      <point x="408" y="135" type="line"/>
    </contour>
    <contour>
      <point x="806" y="421" type="line"/>
      <point x="558" y="421" type="line"/>
      <point x="565" y="282" type="line"/>
      <point x="788" y="282" type="line"/>
    </contour>
  </outline>
</glyph>
<glyph name="Eth" format="2">
  <advance width="653"/>
  <unicode hex="00D0"/>
  <anchor x="261" y="0" name="bottom"/>
  <anchor x="343" y="348" name="center"/>
  <anchor x="355" y="696" name="top"/>
  <outline>
    <contour>
      <point x="392" y="411" type="line"/>
      <point x="72" y="411" type="line"/>
      <point x="24" y="411" type="line"/>
      <point x="8" y="295" type="line"/>
      <point x="376" y="295" type="line"/>
    </contour>
    <component base="D" xOffset="9"/>
  </outline>
</glyph>
<glyph name="multiply" format="2">
  <advance width="519"/>
  <unicode hex="00D7"/>
  <outline>
    <contour>
      <point x="404" y="525" type="line"/>
      <point x="274" y="408" type="line"/>
      <point x="182" y="525" type="line"/>
      <point x="65" y="423" type="line"/>
      <point x="161" y="305" type="line"/>
      <point x="34" y="193" type="line"/>
      <point x="127" y="87" type="line"/>
      <point x="256" y="206" type="line"/>
      <point x="349" y="87" type="line"/>
      <point x="465" y="189" type="line"/>
      <point x="368" y="309" type="line"/>
      <point x="496" y="419" type="line"/>
    </contour>
  </outline>
</glyph>
<glyph name="germandbls" format="2">
  <advance width="598"/>
  <unicode hex="00DF"/>
  <outline>
    <contour>
      <point x="-71" y="-227" type="line"/>
      <point x="64" y="-184"/>
      <point x="181" y="-112"/>
      <point x="207" y="76" type="curve" smooth="yes"/>
      <point x="271" y="536" type="line" smooth="yes"/>
      <point x="279" y="596"/>
      <point x="299" y="629"/>
      <point x="339" y="629" type="curve" smooth="yes"/>
      <point x="361" y="629"/>
      <point x="372" y="615"/>
      <point x="372" y="595" type="curve" smooth="yes"/>
      <point x="372" y="508"/>
      <point x="269" y="501"/>
      <point x="269" y="375" type="curve" smooth="yes"/>
      <point x="269" y="269"/>
      <point x="381" y="260"/>
      <point x="381" y="181" type="curve" smooth="yes"/>
      <point x="381" y="165"/>
      <point x="374" y="130"/>
      <point x="329" y="130" type="curve" smooth="yes"/>
      <point x="319" y="130"/>
      <point x="306" y="132"/>
      <point x="293" y="139" type="curve"/>
      <point x="220" y="10" type="line"/>
      <point x="252" y="-7"/>
      <point x="298" y="-20"/>
      <point x="345" y="-20" type="curve" smooth="yes"/>
      <point x="517" y="-20"/>
      <point x="582" y="97"/>
      <point x="582" y="193" type="curve" smooth="yes"/>
      <point x="582" y="344"/>
      <point x="441" y="360"/>
      <point x="441" y="424" type="curve" smooth="yes"/>
      <point x="441" y="490"/>
      <point x="558" y="505"/>
      <point x="558" y="613" type="curve" smooth="yes"/>
      <point x="558" y="697"/>
      <point x="492" y="764"/>
      <point x="358" y="764" type="curve" smooth="yes"/>
      <point x="194" y="764"/>
      <point x="96" y="675"/>
      <point x="76" y="531" type="curve"/>
      <point x="8" y="44" type="line" smooth="yes"/>
      <point x="-2" y="-29"/>
      <point x="-47" y="-61"/>
      <point x="-118" y="-86" type="curve"/>
    </contour>
  </outline>
</glyph>
<glyph name="ae" format="2">
  <advance width="843"/>
  <unicode hex="00E6"/>
  <anchor x="358" y="0" name="bottom"/>
  <anchor x="459" y="534" name="top"/>
  <outline>
    <contour>
      <point x="290" y="554" type="curve" smooth="yes"/>
      <point x="231" y="554"/>
      <point x="160" y="540"/>
      <point x="90" y="513" type="curve"/>
      <point x="118" y="387" type="line"/>
      <point x="173" y="405"/>
      <point x="225" y="412"/>
      <point x="263" y="412" type="curve" smooth="yes"/>
      <point x="305" y="412"/>
      <point x="339" y="399"/>
      <point x="347" y="370" type="curve"/>
      <point x="342" y="359"/>
      <point x="336" y="347"/>
      <point x="331" y="330" type="curve"/>
      <point x="285" y="330" type="line" smooth="yes"/>
      <point x="53" y="330"/>
      <point x="-3" y="224"/>
      <point x="-3" y="127" type="curve" smooth="yes"/>
      <point x="-3" y="39"/>
      <point x="63" y="-20"/>
      <point x="164" y="-20" type="curve" smooth="yes"/>
      <point x="235" y="-20"/>
      <point x="299" y="1"/>
      <point x="359" y="65" type="curve"/>
      <point x="397" y="11"/>
      <point x="464" y="-20"/>
      <point x="562" y="-20" type="curve" smooth="yes"/>
      <point x="652" y="-20"/>
      <point x="728" y="13"/>
      <point x="787" y="56" type="curve"/>
      <point x="720" y="169" type="line"/>
      <point x="670" y="137"/>
      <point x="632" y="120"/>
      <point x="588" y="120" type="curve" smooth="yes"/>
      <point x="545" y="120"/>
      <point x="512" y="131"/>
      <point x="507" y="191" type="curve"/>
      <point x="662" y="205"/>
      <point x="846" y="252"/>
      <point x="846" y="401" type="curve" smooth="yes"/>
      <point x="846" y="488"/>
      <point x="771" y="554"/>
      <point x="632" y="554" type="curve" smooth="yes"/>
      <point x="561" y="554"/>
      <point x="492" y="528"/>
      <point x="452" y="489" type="curve"/>
      <point x="418" y="529"/>
      <point x="374" y="554"/>
    </contour>
    <contour>
      <point x="315" y="222" type="line"/>
      <point x="315" y="194"/>
      <point x="316" y="178"/>
      <point x="319" y="162" type="curve"/>
      <point x="292" y="138"/>
      <point x="269" y="119"/>
      <point x="241" y="119" type="curve" smooth="yes"/>
      <point x="212" y="119"/>
      <point x="201" y="137"/>
      <point x="201" y="159" type="curve" smooth="yes"/>
      <point x="201" y="200"/>
      <point x="234" y="222"/>
      <point x="286" y="222" type="curve" smooth="yes"/>
    </contour>
    <contour>
      <point x="609" y="429" type="curve" smooth="yes"/>
      <point x="642" y="429"/>
      <point x="652" y="413"/>
      <point x="652" y="389" type="curve" smooth="yes"/>
      <point x="652" y="372"/>
      <point x="636" y="309"/>
      <point x="515" y="302" type="curve"/>
      <point x="527" y="367"/>
      <point x="555" y="429"/>
    </contour>
  </outline>
</glyph>
<glyph name="eth" format="2">
  <advance width="574"/>
  <unicode hex="00F0"/>
  <anchor x="247" y="0" name="bottom"/>
  <anchor x="302" y="744" name="top"/>
  <outline>
    <contour>
      <point x="168" y="763" type="curve"/>
      <point x="115" y="639" type="line"/>
      <point x="148" y="634"/>
      <point x="197" y="624"/>
      <point x="251" y="605" type="curve"/>
      <point x="334" y="549"/>
      <point x="359" y="505"/>
      <point x="375" y="435" type="curve"/>
      <point x="366" y="343" type="line"/>
      <point x="349" y="209"/>
      <point x="341" y="121"/>
      <point x="263" y="121" type="curve" smooth="yes"/>
      <point x="228" y="121"/>
      <point x="207" y="139"/>
      <point x="207" y="191" type="curve" smooth="yes"/>
      <point x="207" y="259"/>
      <point x="227" y="348"/>
      <point x="297" y="348" type="curve" smooth="yes"/>
      <point x="329" y="348"/>
      <point x="354" y="337"/>
      <point x="373" y="317" type="curve"/>
      <point x="382" y="437" type="line"/>
      <point x="347" y="465"/>
      <point x="311" y="482"/>
      <point x="254" y="482" type="curve" smooth="yes"/>
      <point x="94" y="482"/>
      <point x="9" y="331"/>
      <point x="9" y="197" type="curve" smooth="yes"/>
      <point x="9" y="58"/>
      <point x="110" y="-20"/>
      <point x="247" y="-20" type="curve" smooth="yes"/>
      <point x="445" y="-20"/>
      <point x="561" y="150"/>
      <point x="561" y="373" type="curve" smooth="yes"/>
      <point x="561" y="510"/>
      <point x="507" y="619"/>
      <point x="368" y="706" type="curve"/>
      <point x="275" y="743"/>
      <point x="225" y="755"/>
    </contour>
    <contour>
      <point x="389" y="811" type="line"/>
      <point x="293" y="721" type="line"/>
      <point x="199" y="635" type="line"/>
      <point x="136" y="576" type="line"/>
      <point x="248" y="521" type="line"/>
      <point x="310" y="577" type="line"/>
      <point x="409" y="666" type="line"/>
      <point x="474" y="726" type="line"/>
    </contour>
  </outline>
</glyph>
<glyph name="oslash" format="2">
  <advance width="572"/>
  <unicode hex="00F8"/>
  <anchor x="251" y="0" name="bottom"/>
  <anchor x="324" y="534" name="top"/>
  <outline>
    <contour>
      <point x="247" y="-20" type="curve" smooth="yes"/>
      <point x="481" y="-20"/>
      <point x="557" y="165"/>
      <point x="558" y="323" type="curve" smooth="yes"/>
      <point x="559" y="453"/>
      <point x="472" y="554"/>
      <point x="323" y="554" type="curve" smooth="yes"/>
      <point x="89" y="554"/>
      <point x="13" y="370"/>
      <point x="13" y="211" type="curve" smooth="yes"/>
      <point x="13" y="75"/>
      <point x="103" y="-20"/>
    </contour>
    <contour>
      <point x="262" y="122" type="curve" smooth="yes"/>
      <point x="211" y="122"/>
      <point x="189" y="143"/>
      <point x="189" y="206" type="curve" smooth="yes"/>
      <point x="189" y="270"/>
      <point x="212" y="412"/>
      <point x="311" y="412" type="curve" smooth="yes"/>
      <point x="354" y="412"/>
      <point x="381" y="389"/>
      <point x="381" y="324" type="curve" smooth="yes"/>
      <point x="381" y="264"/>
      <point x="358" y="122"/>
    </contour>
    <contour>
      <point x="101" y="39" type="line"/>
      <point x="40" y="-97" type="line"/>
      <point x="172" y="-138" type="line"/>
      <point x="230" y="-4" type="line"/>
      <point x="256" y="107" type="line"/>
      <point x="378" y="369" type="line"/>
      <point x="470" y="495" type="line"/>
      <point x="535" y="632" type="line"/>
      <point x="402" y="673" type="line"/>
      <point x="341" y="538" type="line"/>
      <point x="317" y="427" type="line"/>
      <point x="194" y="161" type="line"/>
    </contour>
  </outline>
</glyph>
<glyph name="dcroat" format="2">
  <advance width="596"/>
  <unicode hex="0111"/>
  <anchor x="253" y="0" name="bottom"/>
  <anchor x="291" y="267" name="center"/>
  <anchor x="337" y="744" name="top"/>
  <anchor x="625" y="744" name="topright"/>
  <outline>
    <contour>
      <point x="655" y="696" type="line"/>
      <point x="282" y="696" type="line"/>
      <point x="281" y="590" type="line"/>
      <point x="589" y="590" type="line"/>
      <point x="640" y="590" type="line"/>
    </contour>
    <component base="d"/>
  </outline>
</glyph>
<glyph name="Hbar" format="2">
  <advance width="669.059"/>
  <unicode hex="0126"/>
  <anchor x="294" y="0" name="bottom"/>
  <anchor x="584" y="0" name="bottomright"/>
  <anchor x="344" y="348" name="center"/>
  <anchor x="392" y="696" name="top"/>
  <anchor x="114" y="696" name="topleft"/>
  <outline>
    <contour>
      <point x="708" y="601" type="line"/>
      <point x="654" y="601" type="line"/>
      <point x="51" y="601" type="line"/>
      <point x="36" y="495" type="line"/>
      <point x="86" y="495" type="line"/>
      <point x="693" y="495" type="line"/>
    </contour>
    <component base="H" xOffset="10"/>
  </outline>
</glyph>
<glyph name="hbar" format="2">
  <advance width="569"/>
  <unicode hex="0127"/>
  <anchor x="255" y="0" name="bottom"/>
  <anchor x="289" y="267" name="center"/>
  <anchor x="356" y="744" name="top"/>
  <outline>
    <contour>
      <point x="434" y="696" type="line"/>
      <point x="61" y="696" type="line"/>
      <point x="46" y="590" type="line"/>
      <point x="97" y="590" type="line"/>
      <point x="404" y="590" type="line"/>
    </contour>
    <component base="h" xOffset="10"/>
  </outline>
</glyph>
<glyph name="dotlessi" format="2">
  <advance width="276"/>
  <unicode hex="0131"/>
  <anchor x="101" y="0" name="bottom"/>
  <anchor x="169" y="0" name="ogonek"/>
  <anchor x="175" y="534" name="top"/>
  <outline>
    <contour>
      <point x="272" y="534" type="line"/>
      <point x="78" y="534" type="line"/>
      <point x="4" y="0" type="line"/>
      <point x="198" y="0" type="line"/>
    </contour>
  </outline>
</glyph>
<glyph name="Lslash" format="2">
  <advance width="562.319"/>
  <unicode hex="0141"/>
  <anchor x="274" y="0" name="bottom"/>
  <anchor x="463" y="404" name="center"/>
  <anchor x="252" y="696" name="top"/>
  <anchor x="372" y="696" name="topright"/>
  <outline>
    <contour>
      <point x="83" y="205" type="line"/>
      <point x="486" y="439" type="line"/>
      <point x="437" y="541" type="line"/>
      <point x="0" y="287" type="line"/>
      <point x="47" y="184" type="line"/>
    </contour>
    <component base="L" xOffset="48"/>
  </outline>
</glyph>
<glyph name="lslash" format="2">
  <advance width="359"/>
  <unicode hex="0142"/>
  <anchor x="180" y="0" name="bottom"/>
  <anchor x="431" y="373" name="center"/>
  <anchor x="235" y="744" name="top"/>
  <anchor x="351" y="744" name="topright"/>
  <outline>
    <contour>
      <point x="360" y="554" type="line"/>
      <point x="-4" y="343" type="line"/>
      <point x="24" y="227" type="line"/>
      <point x="385" y="435" type="line"/>
    </contour>
    <component base="l" xOffset="36"/>
  </outline>
</glyph>
<glyph name="Tbar" format="2">
  <advance width="542"/>
  <unicode hex="0166"/>
  <anchor x="234" y="0" name="bottom"/>
  <anchor x="345" y="0" name="bottomright"/>
  <anchor x="283" y="348" name="center"/>
  <anchor x="332" y="696" name="top"/>
  <outline>
    <contour>
      <point x="496" y="391" type="line"/>
      <point x="390" y="391" type="line"/>
      <point x="81" y="391" type="line"/>
      <point x="67" y="285" type="line"/>
      <point x="173" y="285" type="line"/>
      <point x="482" y="285" type="line"/>
    </contour>
    <component base="T"/>
  </outline>
</glyph>
<glyph name="tbar" format="2">
  <advance width="389"/>
  <unicode hex="0167"/>
  <anchor x="200" y="0" name="bottom"/>
  <anchor x="192" y="267" name="center"/>
  <anchor x="221" y="649" name="top"/>
  <anchor x="334" y="809" name="topright"/>
  <outline>
    <contour>
      <point x="366" y="364" type="line"/>
      <point x="75" y="364" type="line"/>
      <point x="19" y="364" type="line"/>
      <point x="2" y="240" type="line"/>
      <point x="330" y="240" type="line"/>
    </contour>
    <component base="t"/>
  </outline>
</glyph>
<glyph name="bstroke" format="2">
  <advance width="595"/>
  <unicode hex="0180"/>
  <anchor x="266" y="0" name="bottom"/>
  <anchor x="413" y="744" name="top"/>
  <outline>
    <contour>
      <point x="434" y="696" type="line"/>
      <point x="61" y="696" type="line"/>
      <point x="46" y="590" type="line"/>
      <point x="97" y="590" type="line"/>
      <point x="404" y="590" type="line"/>
    </contour>
    <component base="b" xOffset="12"/>
  </outline>
</glyph>
<glyph name="Tonesix" format="2">
  <advance width="615"/>
  <unicode hex="0184"/>
  <anchor x="269.976" y="0" name="bottom"/>
  <anchor x="367.792" y="696" name="top"/>
  <outline>
    <contour>
      <point x="26" y="0" type="line"/>
      <point x="300" y="0" type="line" smooth="yes"/>
      <point x="522" y="0"/>
      <point x="606" y="147"/>
      <point x="606" y="276" type="curve" smooth="yes"/>
      <point x="606" y="402"/>
      <point x="515" y="469"/>
      <point x="355" y="469" type="curve" smooth="yes"/>
      <point x="278" y="469" type="line"/>
      <point x="259" y="331" type="line"/>
      <point x="316" y="331" type="line" smooth="yes"/>
      <point x="372" y="331"/>
      <point x="394" y="300"/>
      <point x="394" y="260" type="curve" smooth="yes"/>
      <point x="394" y="217"/>
      <point x="375" y="145"/>
      <point x="292" y="145" type="curve" smooth="yes"/>
      <point x="248" y="145" type="line"/>
      <point x="325" y="696" type="line"/>
      <point x="159" y="696" type="line"/>
      <point x="92" y="471" type="line"/>
    </contour>
    <contour>
      <point x="92" y="471" type="line"/>
      <point x="159" y="696" type="line"/>
      <point x="120" y="633"/>
      <point x="74" y="575"/>
      <point x="21" y="528" type="curve"/>
    </contour>
  </outline>
</glyph>
<glyph name="Dtopbar" format="2">
  <advance width="596"/>
  <unicode hex="018B"/>
  <anchor x="260.476" y="0" name="bottom"/>
  <anchor x="358.292" y="696" name="top"/>
  <outline>
    <contour>
      <point x="410" y="686" type="line"/>
      <point x="334" y="145" type="line"/>
      <point x="289" y="145" type="line" smooth="yes"/>
      <point x="239" y="145"/>
      <point x="214" y="168"/>
      <point x="214" y="214" type="curve" smooth="yes"/>
      <point x="214" y="274"/>
      <point x="249" y="318"/>
      <point x="318" y="318" type="curve" smooth="yes"/>
      <point x="373" y="318" type="line"/>
      <point x="393" y="456" type="line"/>
      <point x="314" y="456" type="line" smooth="yes"/>
      <point x="120" y="456"/>
      <point x="2" y="365"/>
      <point x="2" y="207" type="curve" smooth="yes"/>
      <point x="2" y="75"/>
      <point x="101" y="0"/>
      <point x="241" y="0" type="curve" smooth="yes"/>
      <point x="516" y="0" type="line"/>
      <point x="613" y="696" type="line"/>
    </contour>
    <contour>
      <point x="162" y="696" type="line"/>
      <point x="141" y="543" type="line"/>
      <point x="405" y="543" type="line"/>
      <point x="613" y="696" type="line"/>
    </contour>
  </outline>
</glyph>
<glyph name="Iotaafrican" format="2">
  <advance width="397"/>
  <unicode hex="0196"/>
  <anchor x="156" y="0" name="bottom"/>
  <anchor x="195" y="696" name="top"/>
  <outline>
    <contour>
      <point x="296" y="696" type="line"/>
      <point x="94" y="696" type="line"/>
      <point x="25" y="207" type="line"/>
      <point x="227" y="207" type="line"/>
    </contour>
    <component base="hookHELPERright.case" xOffset="28" yOffset="207"/>
  </outline>
</glyph>
<glyph name="Khook" format="2">
  <advance width="661"/>
  <unicode hex="0198"/>
  <anchor x="292.976" y="0" name="bottom"/>
  <anchor x="390.792" y="696" name="top"/>
  <outline>
    <contour>
      <point x="305" y="696" type="line"/>
      <point x="103" y="696" type="line"/>
      <point x="6" y="0" type="line"/>
      <point x="208" y="0" type="line"/>
    </contour>
    <contour>
      <point x="576" y="525" type="line" smooth="yes"/>
      <point x="605" y="566"/>
      <point x="619" y="574"/>
      <point x="643" y="574" type="curve" smooth="yes"/>
      <point x="661" y="574"/>
      <point x="670" y="569"/>
      <point x="678" y="565" type="curve"/>
      <point x="740" y="677" type="line"/>
      <point x="714" y="697"/>
      <point x="680" y="716"/>
      <point x="621" y="716" type="curve" smooth="yes"/>
      <point x="530" y="716"/>
      <point x="482" y="683"/>
      <point x="418" y="590" type="curve" smooth="yes"/>
      <point x="266" y="371" type="line"/>
      <point x="402" y="0" type="line"/>
      <point x="630" y="0" type="line"/>
      <point x="472" y="377" type="line"/>
    </contour>
  </outline>
</glyph>
<glyph name="lambdastroke" format="2">
  <advance width="540"/>
  <unicode hex="019B"/>
  <anchor x="232.476" y="0" name="bottom"/>
  <anchor x="337.038" y="744" name="top"/>
  <outline>
    <contour>
      <point x="205" y="509" type="line"/>
      <point x="275" y="555" type="line"/>
      <point x="384" y="627" type="line"/>
      <point x="458" y="676" type="line"/>
      <point x="400" y="767" type="line"/>
      <point x="292" y="693" type="line"/>
      <point x="197" y="630" type="line"/>
      <point x="116" y="574" type="line"/>
    </contour>
    <contour>
      <point x="145" y="764" type="curve"/>
      <point x="109" y="641" type="line"/>
      <point x="228" y="634"/>
      <point x="264" y="591"/>
      <point x="271" y="470" type="curve"/>
      <point x="186" y="485" type="line"/>
      <point x="-34" y="27" type="line"/>
      <point x="156" y="-20" type="line"/>
      <point x="271" y="341" type="line"/>
      <point x="270" y="156"/>
      <point x="285" y="86"/>
      <point x="331" y="-19" type="curve"/>
      <point x="528" y="39" type="line"/>
      <point x="473" y="141"/>
      <point x="454" y="228"/>
      <point x="436" y="428" type="curve" smooth="yes"/>
      <point x="412" y="690"/>
      <point x="324" y="740"/>
    </contour>
  </outline>
</glyph>
<glyph name="Nhookleft" format="2">
  <advance width="639"/>
  <unicode hex="019D"/>
  <anchor x="283" y="0" name="bottom"/>
  <anchor x="380" y="696" name="top"/>
  <outline>
    <contour>
      <point x="-48" y="-227" type="curve" smooth="yes"/>
      <point x="79" y="-227"/>
      <point x="157" y="-159"/>
      <point x="179" y="-19" type="curve" smooth="yes"/>
      <point x="182" y="0" type="line"/>
      <point x="6" y="0" type="line"/>
      <point x="2" y="-28" type="line" smooth="yes"/>
      <point x="-4" y="-71"/>
      <point x="-25" y="-89"/>
      <point x="-57" y="-89" type="curve" smooth="yes"/>
      <point x="-83" y="-89"/>
      <point x="-98" y="-82"/>
      <point x="-119" y="-70" type="curve"/>
      <point x="-198" y="-181" type="line"/>
      <point x="-166" y="-207"/>
      <point x="-120" y="-227"/>
    </contour>
    <component base="N"/>
  </outline>
</glyph>
<glyph name="Zstroke" format="2">
  <advance width="545"/>
  <unicode hex="01B5"/>
  <anchor x="234.976" y="0" name="bottom"/>
  <anchor x="332.792" y="696" name="top"/>
  <outline>
    <contour>
      <point x="-28" y="0" type="line"/>
      <point x="474" y="0" type="line"/>
      <point x="516" y="161" type="line"/>
      <point x="217" y="161" type="line"/>
      <point x="561" y="543" type="line"/>
      <point x="582" y="696" type="line"/>
      <point x="97" y="696" type="line"/>
      <point x="76" y="540" type="line"/>
      <point x="346" y="540" type="line"/>
      <point x="-8" y="151" type="line"/>
    </contour>
    <component base="hyphen" xScale="1.3" yScale="0.8" xOffset="1" yOffset="97"/>
  </outline>
</glyph>
<glyph name="zstroke" format="2">
  <advance width="462"/>
  <unicode hex="01B6"/>
  <anchor x="193.476" y="0" name="bottom"/>
  <anchor x="268.524" y="534" name="top"/>
  <outline>
    <contour>
      <point x="482" y="534" type="line"/>
      <point x="60" y="534" type="line"/>
      <point x="40" y="400" type="line"/>
      <point x="252" y="400" type="line"/>
      <point x="-16" y="128" type="line"/>
      <point x="-34" y="0" type="line"/>
      <point x="398" y="0" type="line"/>
      <point x="435" y="136" type="line"/>
      <point x="199" y="136" type="line"/>
      <point x="464" y="407" type="line"/>
    </contour>
    <component base="hyphen" xScale="1.2" yScale="0.7" xOffset="-14" yOffset="59"/>
  </outline>
</glyph>
<glyph name="glottalinvertedstroke" format="2">
  <advance width="503"/>
  <unicode hex="01BE"/>
  <anchor x="191" y="0" name="bottom"/>
  <anchor x="288" y="744" name="top"/>
  <outline>
    <contour>
      <point x="109" y="626" type="line"/>
      <point x="95" y="520" type="line"/>
      <point x="162" y="520" type="line"/>
      <point x="449" y="520" type="line"/>
      <point x="463" y="626" type="line"/>
    </contour>
    <component base="glottalstopinverted"/>
  </outline>
</glyph>
<glyph name="clickalveolar" format="2">
  <advance width="342"/>
  <unicode hex="01C2"/>
  <outline>
    <contour>
      <point x="20" y="391" type="line"/>
      <point x="106" y="391" type="line"/>
      <point x="355" y="391" type="line"/>
      <point x="370" y="496" type="line"/>
      <point x="35" y="496" type="line"/>
    </contour>
    <contour>
      <point x="-2" y="242" type="line"/>
      <point x="85" y="242" type="line"/>
      <point x="334" y="242" type="line"/>
      <point x="349" y="347" type="line"/>
      <point x="13" y="347" type="line"/>
    </contour>
    <component base="clickdental" xOffset="45"/>
  </outline>
</glyph>
<glyph name="clickretroflex" format="2">
  <advance width="288"/>
  <unicode hex="01C3"/>
  <outline>
    <contour>
      <point x="294" y="761" type="line"/>
      <point x="126" y="744" type="line"/>
      <point x="58" y="250" type="line"/>
      <point x="223" y="250" type="line"/>
    </contour>
    <component base="period" xOffset="27"/>
  </outline>
</glyph>
<glyph name="dotlessj" format="2">
  <advance width="274"/>
  <unicode hex="0237"/>
  <anchor x="66" y="-215" name="bottom"/>
  <anchor x="174" y="534" name="top"/>
  <outline>
    <contour>
      <point x="-71" y="-227" type="line"/>
      <point x="64" y="-184"/>
      <point x="181" y="-112"/>
      <point x="207" y="76" type="curve" smooth="yes"/>
      <point x="271" y="534" type="line"/>
      <point x="77" y="534" type="line"/>
      <point x="12" y="66" type="line" smooth="yes"/>
      <point x="0" y="-21"/>
      <point x="-40" y="-59"/>
      <point x="-118" y="-86" type="curve"/>
    </contour>
  </outline>
</glyph>
<glyph name="Cstroke" format="2">
  <advance width="571"/>
  <unicode hex="023B"/>
  <anchor x="247.976" y="0" name="bottom"/>
  <anchor x="345.792" y="696" name="top"/>
  <outline>
    <contour>
      <point x="483" y="759" type="line"/>
      <point x="150" y="-62" type="line"/>
      <point x="215" y="-77" type="line"/>
      <point x="547" y="744" type="line"/>
    </contour>
    <component base="C"/>
  </outline>
</glyph>
<glyph name="cstroke" format="2">
  <advance width="469"/>
  <unicode hex="023C"/>
  <anchor x="235" y="0" name="bottom"/>
  <anchor x="323" y="534" name="top"/>
  <outline>
    <contour>
      <point x="406" y="604" type="line"/>
      <point x="136" y="-62" type="line"/>
      <point x="197" y="-77" type="line"/>
      <point x="466" y="589" type="line"/>
    </contour>
    <component base="c"/>
  </outline>
</glyph>
<glyph name="Tdiagonalstroke" format="2">
  <advance width="542"/>
  <unicode hex="023E"/>
  <anchor x="233.476" y="0" name="bottom"/>
  <anchor x="331.292" y="696" name="top"/>
  <outline>
    <contour>
      <point x="543" y="759" type="line"/>
      <point x="70" y="-52" type="line"/>
      <point x="119" y="-77" type="line"/>
      <point x="591" y="734" type="line"/>
    </contour>
    <contour>
      <point x="608" y="696" type="line"/>
      <point x="64" y="696" type="line"/>
      <point x="45" y="552" type="line"/>
      <point x="226" y="552" type="line"/>
      <point x="148" y="0" type="line"/>
      <point x="320" y="0" type="line"/>
      <point x="398" y="552" type="line"/>
      <point x="568" y="552" type="line"/>
    </contour>
  </outline>
</glyph>
<glyph name="Bstroke" format="2">
  <advance width="626"/>
  <unicode hex="0243"/>
  <anchor x="354" y="696" name="top"/>
  <outline>
    <contour>
      <point x="349" y="266" type="line"/>
      <point x="58" y="266" type="line"/>
      <point x="10" y="266" type="line"/>
      <point x="-2" y="180" type="line"/>
      <point x="337" y="180" type="line"/>
    </contour>
    <component base="B" xOffset="16"/>
  </outline>
</glyph>
<glyph name="Ubar" format="2">
  <advance width="677"/>
  <unicode hex="0244"/>
  <anchor x="299" y="0" name="bottom"/>
  <anchor x="434" y="0" name="ogonek"/>
  <anchor x="396" y="696" name="top"/>
  <anchor x="689" y="696" name="topright"/>
  <outline>
    <contour>
      <point x="715" y="601" type="line"/>
      <point x="666" y="601" type="line"/>
      <point x="51" y="601" type="line"/>
      <point x="37" y="495" type="line"/>
      <point x="86" y="495" type="line"/>
      <point x="701" y="495" type="line"/>
    </contour>
    <component base="U" xOffset="20"/>
  </outline>
</glyph>
<glyph name="Estroke" format="2">
  <advance width="510"/>
  <unicode hex="0246"/>
  <anchor x="217.476" y="0" name="bottom"/>
  <anchor x="421" y="0" name="ogonek"/>
  <anchor x="315.292" y="696" name="top"/>
  <anchor x="104" y="696" name="topleft"/>
  <outline>
    <contour>
      <point x="477" y="759" type="line"/>
      <point x="144" y="-62" type="line"/>
      <point x="209" y="-77" type="line"/>
      <point x="541" y="744" type="line"/>
    </contour>
    <component base="E"/>
  </outline>
</glyph>
<glyph name="Qhooktail" format="2">
  <advance width="675"/>
  <unicode hex="024A"/>
  <anchor x="397.792" y="696" name="top"/>
  <outline>
    <contour>
      <point x="242" y="-20" type="curve" smooth="yes"/>
      <point x="326" y="-20"/>
      <point x="384" y="15"/>
      <point x="429" y="87" type="curve"/>
      <point x="447" y="210" type="line"/>
      <point x="412" y="149"/>
      <point x="360" y="121"/>
      <point x="313" y="121" type="curve" smooth="yes"/>
      <point x="261" y="121"/>
      <point x="231" y="152"/>
      <point x="231" y="248" type="curve" smooth="yes"/>
      <point x="231" y="393"/>
      <point x="274" y="570"/>
      <point x="379" y="570" type="curve" smooth="yes"/>
      <point x="420" y="570"/>
      <point x="443" y="552"/>
      <point x="462" y="528" type="curve"/>
      <point x="531" y="607" type="line"/>
      <point x="490" y="660"/>
      <point x="448" y="716"/>
      <point x="347" y="716" type="curve" smooth="yes"/>
      <point x="145" y="716"/>
      <point x="23" y="490"/>
      <point x="24" y="253" type="curve" smooth="yes"/>
      <point x="23" y="85"/>
      <point x="107" y="-20"/>
    </contour>
    <contour>
      <point x="382" y="0" type="line"/>
      <point x="584" y="0" type="line"/>
      <point x="681" y="696" type="line"/>
      <point x="501" y="696" type="line"/>
      <point x="458" y="544" type="line"/>
      <point x="403" y="152" type="line"/>
    </contour>
    <component base="hookHELPERright.case" xOffset="385"/>
  </outline>
</glyph>
<glyph name="Rstroke" format="2">
  <advance width="628"/>
  <unicode hex="024C"/>
  <anchor x="286" y="0" name="bottom"/>
  <anchor x="383" y="696" name="top"/>
  <outline>
    <contour>
      <point x="315" y="248" type="line"/>
      <point x="240" y="386" type="line"/>
      <point x="76" y="386" type="line"/>
      <point x="27" y="386" type="line"/>
      <point x="8" y="248" type="line"/>
    </contour>
    <component base="R" xOffset="16"/>
  </outline>
</glyph>
<glyph name="Ystroke" format="2">
  <advance width="610"/>
  <unicode hex="024E"/>
  <anchor x="267.476" y="0" name="bottom"/>
  <anchor x="365.292" y="696" name="top"/>
  <outline>
    <contour>
      <point x="674" y="621" type="line"/>
      <point x="637" y="621" type="line"/>
      <point x="74" y="621" type="line"/>
      <point x="35" y="621" type="line"/>
      <point x="21" y="515" type="line"/>
      <point x="660" y="515" type="line"/>
    </contour>
    <contour>
      <point x="685" y="696" type="line"/>
      <point x="489" y="696" type="line"/>
      <point x="325" y="392" type="line"/>
      <point x="244" y="696" type="line"/>
      <point x="47" y="696" type="line"/>
      <point x="204" y="256" type="line"/>
      <point x="168" y="0" type="line"/>
      <point x="370" y="0" type="line"/>
      <point x="406" y="257" type="line"/>
    </contour>
  </outline>
</glyph>
<glyph name="ystroke" format="2">
  <advance width="561"/>
  <unicode hex="024F"/>
  <anchor x="225" y="-215" name="bottom"/>
  <anchor x="318" y="534" name="top"/>
  <outline>
    <contour>
      <point x="5" y="284" type="line"/>
      <point x="561" y="284" type="line"/>
      <point x="577" y="399" type="line"/>
      <point x="537" y="399" type="line"/>
      <point x="60" y="399" type="line"/>
      <point x="21" y="399" type="line"/>
    </contour>
    <component base="y" xOffset="21"/>
  </outline>
</glyph>
<glyph name="bhook" format="2">
  <advance width="583"/>
  <unicode hex="0253"/>
  <anchor x="252" y="0" name="bottom"/>
  <anchor x="359" y="744" name="top"/>
  <outline>
    <contour>
      <point x="272" y="533" type="line"/>
      <point x="78" y="533" type="line"/>
      <point x="7" y="30" type="line"/>
      <point x="77" y="-1"/>
      <point x="156" y="-20"/>
      <point x="244" y="-20" type="curve" smooth="yes"/>
      <point x="514" y="-20"/>
      <point x="571" y="191"/>
      <point x="571" y="347" type="curve" smooth="yes"/>
      <point x="571" y="478"/>
      <point x="518" y="554"/>
      <point x="405" y="554" type="curve" smooth="yes"/>
      <point x="359" y="554"/>
      <point x="300" y="530"/>
      <point x="267" y="493" type="curve"/>
    </contour>
    <contour>
      <point x="326" y="412" type="curve" smooth="yes"/>
      <point x="351" y="412"/>
      <point x="372" y="400"/>
      <point x="372" y="338" type="curve" smooth="yes"/>
      <point x="372" y="249"/>
      <point x="345" y="121"/>
      <point x="266" y="121" type="curve" smooth="yes"/>
      <point x="245" y="121"/>
      <point x="228" y="126"/>
      <point x="215" y="131" type="curve"/>
      <point x="247" y="359" type="line"/>
      <point x="272" y="396"/>
      <point x="299" y="412"/>
    </contour>
    <component base="hookaboveHELPER" xOffset="7"/>
  </outline>
</glyph>
<glyph name="jdotlessstroke" format="2">
  <advance width="343"/>
  <unicode hex="025F"/>
  <anchor x="107" y="-215" name="bottom"/>
  <anchor x="215" y="534" name="top"/>
  <outline>
    <contour>
      <point x="-5" y="184" type="line"/>
      <point x="67" y="184" type="line"/>
      <point x="329" y="184" type="line"/>
      <point x="348" y="319" type="line"/>
      <point x="14" y="319" type="line"/>
    </contour>
    <component base="dotlessj" xOffset="41"/>
  </outline>
</glyph>
<glyph name="hhook" format="2">
  <advance width="559"/>
  <unicode hex="0266"/>
  <anchor x="241" y="0" name="bottom"/>
  <anchor x="385" y="744" name="top"/>
  <outline>
    <contour>
      <point x="422" y="554" type="curve" smooth="yes"/>
      <point x="359" y="554"/>
      <point x="294" y="511"/>
      <point x="260" y="448" type="curve"/>
      <point x="272" y="533" type="line"/>
      <point x="78" y="533" type="line"/>
      <point x="3" y="0" type="line"/>
      <point x="197" y="0" type="line"/>
      <point x="237" y="278" type="line"/>
      <point x="272" y="353"/>
      <point x="304" y="393"/>
      <point x="327" y="393" type="curve" smooth="yes"/>
      <point x="341" y="393"/>
      <point x="351" y="383"/>
      <point x="344" y="341" type="curve" smooth="yes"/>
      <point x="292" y="0" type="line"/>
      <point x="486" y="0" type="line"/>
      <point x="541" y="393" type="line" smooth="yes"/>
      <point x="555" y="495"/>
      <point x="509" y="554"/>
    </contour>
    <component base="hookaboveHELPER" xOffset="7"/>
  </outline>
</glyph>
<glyph name="Ismall" format="2">
  <advance width="331"/>
  <unicode hex="026A"/>
  <anchor x="128" y="0" name="bottom"/>
  <anchor x="204" y="534" name="top"/>
  <outline>
    <contour>
      <point x="31" y="0" type="line"/>
      <point x="225" y="0" type="line"/>
      <point x="300" y="534" type="line"/>
      <point x="106" y="534" type="line"/>
    </contour>
    <contour>
      <point x="-29" y="0" type="line"/>
      <point x="285" y="0" type="line"/>
      <point x="304" y="135" type="line"/>
      <point x="-10" y="135" type="line"/>
    </contour>
    <contour>
      <point x="27" y="399" type="line"/>
      <point x="341" y="399" type="line"/>
      <point x="360" y="534" type="line"/>
      <point x="46" y="534" type="line"/>
    </contour>
  </outline>
</glyph>
<glyph name="lhookretroflex" format="2">
  <advance width="275"/>
  <unicode hex="026D"/>
  <anchor x="175" y="-215" name="bottom"/>
  <anchor x="204" y="744" name="top"/>
  <outline>
    <contour>
      <point x="303" y="764" type="line"/>
      <point x="107" y="744" type="line"/>
      <point x="3" y="0" type="line"/>
      <point x="197" y="0" type="line"/>
    </contour>
    <component base="hookHELPERright" xOffset="17"/>
  </outline>
</glyph>
<glyph name="lezh" format="2">
  <advance width="723"/>
  <unicode hex="026E"/>
  <anchor x="363" y="-215" name="bottom"/>
  <anchor x="395" y="373" name="center"/>
  <anchor x="451" y="744" name="top"/>
  <anchor x="315" y="744" name="topright"/>
  <outline>
    <contour>
      <point x="366" y="-227" type="curve" smooth="yes"/>
      <point x="546" y="-227"/>
      <point x="681" y="-120"/>
      <point x="681" y="45" type="curve" smooth="yes"/>
      <point x="681" y="154"/>
      <point x="607" y="210"/>
      <point x="490" y="217" type="curve"/>
      <point x="471" y="217" type="line"/>
      <point x="290" y="109" type="line"/>
      <point x="390" y="109" type="line" smooth="yes"/>
      <point x="448" y="109"/>
      <point x="483" y="93"/>
      <point x="483" y="43" type="curve" smooth="yes"/>
      <point x="483" y="-36"/>
      <point x="437" y="-79"/>
      <point x="370" y="-79" type="curve" smooth="yes"/>
      <point x="329" y="-79"/>
      <point x="299" y="-67"/>
      <point x="267" y="-38" type="curve"/>
      <point x="165" y="-153" type="line"/>
      <point x="211" y="-198"/>
      <point x="276" y="-227"/>
    </contour>
    <contour>
      <point x="290" y="109" type="line"/>
      <point x="443" y="149" type="line"/>
      <point x="697" y="402" type="line"/>
      <point x="714" y="534" type="line"/>
      <point x="258" y="534" type="line"/>
      <point x="238" y="390" type="line"/>
      <point x="473" y="390" type="line"/>
      <point x="304" y="216" type="line"/>
    </contour>
    <component base="l"/>
  </outline>
</glyph>
<glyph name="Nsmall" format="2">
  <advance width="571"/>
  <unicode hex="0274"/>
  <anchor x="248" y="0" name="bottom"/>
  <anchor x="324" y="534" name="top"/>
  <outline>
    <contour>
      <point x="567" y="534" type="line"/>
      <point x="398" y="534" type="line"/>
      <point x="384" y="428" type="line" smooth="yes"/>
      <point x="368" y="314"/>
      <point x="373" y="257"/>
      <point x="377" y="167" type="curve"/>
      <point x="303" y="534" type="line"/>
      <point x="78" y="534" type="line"/>
      <point x="4" y="0" type="line"/>
      <point x="174" y="0" type="line"/>
      <point x="190" y="114" type="line" smooth="yes"/>
      <point x="204" y="220"/>
      <point x="199" y="301"/>
      <point x="195" y="368" type="curve"/>
      <point x="265" y="0" type="line"/>
      <point x="493" y="0" type="line"/>
    </contour>
  </outline>
</glyph>
<glyph name="rlonglegturned" format="2">
  <advance width="399"/>
  <unicode hex="027A"/>
  <anchor x="328" y="744" name="top"/>
  <anchor x="121" y="0" name="bottom"/>
  <outline>
    <contour>
      <point x="201" y="534" type="line"/>
      <point x="395" y="534" type="line"/>
      <point x="425" y="744" type="line"/>
      <point x="233" y="764" type="line"/>
    </contour>
    <component base="rturned"/>
  </outline>
</glyph>
<glyph name="rfishhook" format="2">
  <advance width="396"/>
  <unicode hex="027E"/>
  <anchor x="96" y="0" name="bottom"/>
  <anchor x="294" y="534" name="top"/>
  <outline>
    <contour>
      <point x="238" y="328" type="line"/>
      <point x="44" y="328" type="line"/>
      <point x="-1" y="0" type="line"/>
      <point x="193" y="0" type="line"/>
    </contour>
    <component base="hookHELPER" xScale="-1" yScale="-1" xOffset="405" yOffset="328"/>
  </outline>
</glyph>
<glyph name="rfishhookreversed" format="2">
  <advance width="397"/>
  <unicode hex="027F"/>
  <anchor x="227" y="0" name="bottom"/>
  <anchor x="214" y="534" name="top"/>
  <outline>
    <contour>
      <point x="370" y="327" type="line"/>
      <point x="176" y="327" type="line"/>
      <point x="130" y="0" type="line"/>
      <point x="324" y="0" type="line"/>
    </contour>
    <component base="hookHELPERright" xScale="-1" yScale="-1" xOffset="356" yOffset="327"/>
  </outline>
</glyph>
<glyph name="esh" format="2">
  <advance width="334"/>
  <unicode hex="0283"/>
  <anchor x="-15" y="-215" name="bottom"/>
  <anchor x="343" y="744" name="top"/>
  <outline>
    <contour>
      <point x="301" y="534" type="line"/>
      <point x="107" y="534" type="line"/>
      <point x="33" y="0" type="line"/>
      <point x="227" y="0" type="line"/>
    </contour>
    <component base="hookHELPER" xOffset="-134"/>
    <component base="hookaboveHELPER2" xOffset="36"/>
  </outline>
</glyph>
<glyph name="jdotlessstrokehook" format="2">
  <advance width="347"/>
  <unicode hex="0284"/>
  <anchor x="110" y="-215" name="bottom"/>
  <anchor x="343" y="744" name="top"/>
  <outline>
    <contour>
      <point x="-28" y="-227" type="line"/>
      <point x="107" y="-184"/>
      <point x="224" y="-112"/>
      <point x="250" y="76" type="curve" smooth="yes"/>
      <point x="314" y="534" type="line"/>
      <point x="120" y="534" type="line"/>
      <point x="51" y="36" type="line" smooth="yes"/>
      <point x="40" y="-41"/>
      <point x="3" y="-65"/>
      <point x="-71" y="-96" type="curve"/>
    </contour>
    <contour>
      <point x="-28" y="0" type="line"/>
      <point x="306" y="0" type="line"/>
      <point x="325" y="135" type="line"/>
      <point x="-9" y="135" type="line"/>
    </contour>
    <component base="hookaboveHELPER2" xOffset="49"/>
  </outline>
</glyph>
<glyph name="eshsquatreversed" format="2">
  <advance width="527"/>
  <unicode hex="0285"/>
  <anchor x="221" y="0" name="bottom"/>
  <anchor x="293" y="534" name="top"/>
  <outline>
    <contour>
      <point x="369" y="327" type="line"/>
      <point x="175" y="327" type="line"/>
      <point x="158" y="207" type="line"/>
      <point x="352" y="207" type="line"/>
    </contour>
    <component base="hookHELPERright" xScale="-1" yScale="-1" xOffset="355" yOffset="327"/>
    <component base="hookHELPERright" xOffset="172" yOffset="207"/>
  </outline>
</glyph>
<glyph name="tretroflexhook" format="2">
  <advance width="388"/>
  <unicode hex="0288"/>
  <anchor x="207" y="-215" name="bottom"/>
  <anchor x="222" y="651" name="top"/>
  <outline>
    <contour>
      <point x="309" y="669" type="line"/>
      <point x="137" y="649" type="line"/>
      <point x="88" y="474" type="line"/>
      <point x="21" y="0" type="line"/>
      <point x="215" y="0" type="line"/>
    </contour>
    <contour>
      <point x="408" y="534" type="line"/>
      <point x="33" y="534" type="line"/>
      <point x="15" y="400" type="line"/>
      <point x="370" y="400" type="line"/>
    </contour>
    <component base="hookHELPERright" xOffset="35"/>
  </outline>
</glyph>
<glyph name="ubar" format="2">
  <advance width="619"/>
  <unicode hex="0289"/>
  <anchor x="272" y="0" name="bottom"/>
  <anchor x="521" y="0" name="bottomright"/>
  <anchor x="519" y="0" name="ogonek"/>
  <anchor x="348" y="534" name="top"/>
  <anchor x="595" y="534" name="topright"/>
  <outline>
    <contour>
      <point x="3" y="284" type="line"/>
      <point x="73" y="284" type="line"/>
      <point x="621" y="284" type="line"/>
      <point x="637" y="399" type="line"/>
      <point x="566" y="399" type="line"/>
      <point x="19" y="399" type="line"/>
    </contour>
    <component base="u" xOffset="35"/>
  </outline>
</glyph>
<glyph name="yturned" format="2">
  <advance width="520"/>
  <unicode hex="028E"/>
  <anchor x="225" y="0" name="bottom"/>
  <anchor x="329" y="744" name="top"/>
  <outline>
    <contour>
      <point x="-53" y="0" type="line"/>
      <point x="150" y="0" type="line"/>
      <point x="286" y="412" type="line"/>
      <point x="297" y="0" type="line"/>
      <point x="499" y="0" type="line"/>
      <point x="424" y="534" type="line"/>
      <point x="355" y="533" type="line"/>
      <point x="391" y="595"/>
      <point x="441" y="620"/>
      <point x="542" y="631" type="curve"/>
      <point x="538" y="764" type="line"/>
      <point x="362" y="759"/>
      <point x="240" y="684"/>
      <point x="176" y="534" type="curve" smooth="yes"/>
    </contour>
  </outline>
</glyph>
<glyph name="Ysmall" format="2">
  <advance width="510"/>
  <unicode hex="028F"/>
  <anchor x="217" y="0" name="bottom"/>
  <anchor x="293" y="534" name="top"/>
  <outline>
    <contour>
      <point x="568" y="534" type="line"/>
      <point x="360" y="534" type="line"/>
      <point x="262" y="321" type="line"/>
      <point x="224" y="534" type="line"/>
      <point x="18" y="534" type="line"/>
      <point x="148" y="188" type="line"/>
      <point x="121" y="0" type="line"/>
      <point x="315" y="0" type="line"/>
      <point x="342" y="189" type="line"/>
    </contour>
  </outline>
</glyph>
<glyph name="bilabialclick" format="2">
  <advance width="787"/>
  <unicode hex="0298"/>
  <anchor x="407.4" y="347.4" name="_center"/>
  <anchor x="453.792" y="696" name="top"/>
  <anchor x="355.976" y="0" name="bottom"/>
  <outline>
    <contour>
      <point x="455" y="716" type="curve" smooth="yes"/>
      <point x="205" y="716"/>
      <point x="27" y="539"/>
      <point x="27" y="289" type="curve" smooth="yes"/>
      <point x="27" y="101"/>
      <point x="153" y="-20"/>
      <point x="357" y="-20" type="curve" smooth="yes"/>
      <point x="611" y="-20"/>
      <point x="785" y="163"/>
      <point x="784" y="410" type="curve" smooth="yes"/>
      <point x="785" y="597"/>
      <point x="660" y="716"/>
    </contour>
    <contour>
      <point x="441" y="584" type="curve" smooth="yes"/>
      <point x="531" y="584"/>
      <point x="593" y="533"/>
      <point x="593" y="415" type="curve" smooth="yes"/>
      <point x="593" y="253"/>
      <point x="528" y="112"/>
      <point x="371" y="112" type="curve" smooth="yes"/>
      <point x="274" y="112"/>
      <point x="218" y="163"/>
      <point x="218" y="278" type="curve" smooth="yes"/>
      <point x="219" y="442"/>
      <point x="282" y="584"/>
    </contour>
    <component base="dotaccentcomb" xScale="0.8" yScale="0.8" xOffset="245" yOffset="-231"/>
  </outline>
</glyph>
<glyph name="kturned" format="2">
  <advance width="551"/>
  <unicode hex="029E"/>
  <anchor x="153" y="-215" name="bottom"/>
  <anchor x="294" y="534" name="top"/>
  <outline>
    <contour>
      <point x="-53" y="0" type="line"/>
      <point x="146" y="0" type="line"/>
      <point x="314" y="242" type="line"/>
      <point x="229" y="534" type="line"/>
      <point x="19" y="534" type="line"/>
      <point x="124" y="244" type="line"/>
    </contour>
    <contour>
      <point x="256" y="-227" type="line"/>
      <point x="449" y="-208" type="line"/>
      <point x="553" y="534" type="line"/>
      <point x="359" y="534" type="line"/>
    </contour>
  </outline>
</glyph>
<glyph name="Lsmall" format="2">
  <advance width="454"/>
  <unicode hex="029F"/>
  <anchor x="189" y="0" name="bottom"/>
  <anchor x="175" y="534" name="top"/>
  <outline>
    <contour>
      <point x="272" y="534" type="line"/>
      <point x="78" y="534" type="line"/>
      <point x="4" y="0" type="line"/>
      <point x="388" y="0" type="line"/>
      <point x="429" y="148" type="line"/>
      <point x="219" y="148" type="line"/>
    </contour>
  </outline>
</glyph>
<glyph name="glottalstopstroke" format="2">
  <advance width="501"/>
  <unicode hex="02A1"/>
  <anchor x="191" y="0" name="bottom"/>
  <anchor x="288" y="744" name="top"/>
  <outline>
    <contour>
      <point x="59" y="226" type="line"/>
      <point x="45" y="120" type="line"/>
      <point x="112" y="120" type="line"/>
      <point x="399" y="120" type="line"/>
      <point x="413" y="226" type="line"/>
    </contour>
    <component base="glottalstop"/>
  </outline>
</glyph>
<glyph name="glottalstopstrokereversed" format="2">
  <advance width="495"/>
  <unicode hex="02A2"/>
  <anchor x="231" y="0" name="bottom"/>
  <anchor x="345" y="744" name="top"/>
  <outline>
    <contour>
      <point x="426" y="226" type="line"/>
      <point x="72" y="226" type="line"/>
      <point x="58" y="120" type="line"/>
      <point x="345" y="120" type="line"/>
      <point x="412" y="120" type="line"/>
    </contour>
    <component base="glottalstopreversed"/>
  </outline>
</glyph>
<glyph name="dzaltone" format="2">
  <advance width="1003"/>
  <unicode hex="02A3"/>
  <anchor x="463.976" y="0" name="bottom"/>
  <anchor x="291" y="267" name="center"/>
  <anchor x="568.538" y="744" name="top"/>
  <anchor x="625" y="744" name="topright"/>
  <outline>
    <contour>
      <point x="1025" y="534" type="line"/>
      <point x="573" y="534" type="line"/>
      <point x="553" y="390" type="line"/>
      <point x="773" y="390" type="line"/>
      <point x="526" y="131" type="line"/>
      <point x="509" y="0" type="line"/>
      <point x="941" y="0" type="line"/>
      <point x="978" y="146" type="line"/>
      <point x="762" y="146" type="line"/>
      <point x="1007" y="397" type="line"/>
    </contour>
    <component base="d"/>
  </outline>
</glyph>
<glyph name="dzcurl" format="2">
  <advance width="1130"/>
  <unicode hex="02A5"/>
  <anchor x="253" y="0" name="bottom"/>
  <anchor x="291" y="267" name="center"/>
  <anchor x="632.038" y="744" name="top"/>
  <anchor x="625" y="744" name="topright"/>
  <outline>
    <contour>
      <point x="510" y="0" type="line"/>
      <point x="885" y="0" type="line"/>
      <point x="974" y="146" type="line"/>
      <point x="746" y="146" type="line"/>
      <point x="1008" y="407" type="line"/>
      <point x="1025" y="534" type="line"/>
      <point x="574" y="534" type="line"/>
      <point x="554" y="390" type="line"/>
      <point x="782" y="390" type="line"/>
      <point x="527" y="134" type="line"/>
    </contour>
    <contour>
      <point x="758" y="-131" type="curve"/>
      <point x="861" y="-133" type="line"/>
      <point x="869" y="-82"/>
      <point x="875" y="-32"/>
      <point x="885" y="0" type="curve"/>
      <point x="919" y="130" type="line"/>
      <point x="935" y="178"/>
      <point x="959" y="201"/>
      <point x="983" y="201" type="curve" smooth="yes"/>
      <point x="998" y="201"/>
      <point x="1006" y="194"/>
      <point x="1006" y="182" type="curve" smooth="yes"/>
      <point x="1006" y="158"/>
      <point x="985" y="146"/>
      <point x="955" y="146" type="curve"/>
      <point x="886" y="0" type="line"/>
      <point x="1031" y="-1"/>
      <point x="1131" y="57"/>
      <point x="1131" y="182" type="curve" smooth="yes"/>
      <point x="1131" y="256"/>
      <point x="1080" y="297"/>
      <point x="1008" y="297" type="curve" smooth="yes"/>
      <point x="935" y="297"/>
      <point x="871" y="261"/>
      <point x="822" y="146" type="curve"/>
      <point x="783" y="2" type="line"/>
      <point x="773" y="-34"/>
      <point x="765" y="-84"/>
    </contour>
    <component base="d"/>
  </outline>
</glyph>
<glyph name="tesh" format="2">
  <advance width="643"/>
  <unicode hex="02A7"/>
  <anchor x="254" y="-215" name="bottom"/>
  <anchor x="387" y="744" name="top"/>
  <outline>
    <contour>
      <point x="309" y="669" type="line"/>
      <point x="137" y="649" type="line"/>
      <point x="88" y="474" type="line"/>
      <point x="49" y="198" type="line" smooth="yes"/>
      <point x="29" y="57"/>
      <point x="88" y="-19"/>
      <point x="221" y="-20" type="curve" smooth="yes"/>
      <point x="269" y="-20"/>
      <point x="325" y="-6"/>
      <point x="372" y="21" type="curve"/>
      <point x="369" y="144" type="line"/>
      <point x="345" y="139"/>
      <point x="322" y="135"/>
      <point x="292" y="135" type="curve" smooth="yes"/>
      <point x="254" y="135"/>
      <point x="237" y="148"/>
      <point x="243" y="194" type="curve" smooth="yes"/>
    </contour>
    <contour>
      <point x="485" y="534" type="line"/>
      <point x="33" y="534" type="line"/>
      <point x="15" y="400" type="line"/>
      <point x="448" y="400" type="line"/>
    </contour>
    <component base="esh" xOffset="309"/>
  </outline>
</glyph>
<glyph name="fengdigraph" format="2">
  <advance width="868"/>
  <unicode hex="02A9"/>
  <anchor x="369" y="-215" name="bottom"/>
  <anchor x="502" y="744" name="top"/>
  <anchor x="378" y="534" name="topleft"/>
  <outline>
    <contour>
      <point x="350" y="764" type="curve" smooth="yes"/>
      <point x="205" y="764"/>
      <point x="123" y="677"/>
      <point x="108" y="566" type="curve" smooth="yes"/>
      <point x="30" y="0" type="line"/>
      <point x="223" y="0" type="line"/>
      <point x="301" y="554" type="line" smooth="yes"/>
      <point x="308" y="604"/>
      <point x="331" y="622"/>
      <point x="369" y="622" type="curve" smooth="yes"/>
      <point x="390" y="622"/>
      <point x="420" y="617"/>
      <point x="446" y="602" type="curve"/>
      <point x="512" y="717" type="line"/>
      <point x="478" y="741"/>
      <point x="421" y="764"/>
    </contour>
    <contour>
      <point x="420" y="534" type="line"/>
      <point x="33" y="534" type="line"/>
      <point x="15" y="400" type="line"/>
      <point x="380" y="400" type="line"/>
    </contour>
    <component base="eng" xOffset="308"/>
  </outline>
</glyph>
<glyph name="primemod" format="2">
  <advance width="317"/>
  <unicode hex="02B9"/>
  <outline>
    <contour>
      <point x="56" y="406" type="line"/>
      <point x="181" y="406" type="line"/>
      <point x="341" y="696" type="line"/>
      <point x="174" y="696" type="line"/>
    </contour>
  </outline>
</glyph>
<glyph name="colontriangularhalfmod" format="2">
  <advance width="221"/>
  <unicode hex="02D1"/>
  <outline>
    <contour>
      <point x="103" y="317" type="line"/>
      <point x="125" y="317" type="line"/>
      <point x="233" y="504" type="line"/>
      <point x="49" y="504" type="line"/>
    </contour>
  </outline>
</glyph>
<glyph name="gammasuperior" format="2">
  <advance width="368"/>
  <unicode hex="02E0"/>
  <outline>
    <contour>
      <point x="190" y="290" type="curve" smooth="yes"/>
      <point x="247" y="290"/>
      <point x="274" y="320"/>
      <point x="274" y="361" type="curve" smooth="yes"/>
      <point x="274" y="385"/>
      <point x="264" y="410"/>
      <point x="248" y="436" type="curve"/>
      <point x="216" y="490" type="line"/>
      <point x="185" y="665" type="line"/>
      <point x="99" y="665" type="line"/>
      <point x="171" y="438" type="line"/>
      <point x="204" y="396" type="line"/>
      <point x="209" y="382"/>
      <point x="211" y="373"/>
      <point x="211" y="364" type="curve" smooth="yes"/>
      <point x="211" y="351"/>
      <point x="205" y="342"/>
      <point x="194" y="342" type="curve" smooth="yes"/>
      <point x="186" y="342"/>
      <point x="184" y="346"/>
      <point x="184" y="353" type="curve" smooth="yes"/>
      <point x="184" y="365"/>
      <point x="192" y="380"/>
      <point x="204" y="396" type="curve"/>
      <point x="248" y="436" type="line"/>
      <point x="381" y="665" type="line"/>
      <point x="296" y="665" type="line"/>
      <point x="216" y="490" type="line"/>
      <point x="171" y="438" type="line"/>
      <point x="148" y="412"/>
      <point x="119" y="377"/>
      <point x="119" y="344" type="curve" smooth="yes"/>
      <point x="119" y="310"/>
      <point x="143" y="290"/>
    </contour>
  </outline>
</glyph>
<glyph name="xsuperior" format="2">
  <advance width="348"/>
  <unicode hex="02E3"/>
  <outline>
    <contour>
      <point x="187" y="665" type="line"/>
      <point x="99" y="665" type="line"/>
      <point x="164" y="540" type="line"/>
      <point x="206" y="497" type="line"/>
      <point x="245" y="400" type="line"/>
      <point x="334" y="400" type="line"/>
      <point x="261" y="542" type="line"/>
      <point x="218" y="583" type="line"/>
    </contour>
    <contour>
      <point x="357" y="665" type="line"/>
      <point x="271" y="665" type="line"/>
      <point x="218" y="583" type="line"/>
      <point x="163" y="540" type="line"/>
      <point x="52" y="400" type="line"/>
      <point x="139" y="400" type="line"/>
      <point x="206" y="497" type="line"/>
      <point x="263" y="542" type="line"/>
    </contour>
  </outline>
</glyph>
<glyph name="tonebarextralowmod" format="2">
  <advance width="384"/>
  <unicode hex="02E9"/>
  <outline>
    <contour>
      <point x="279" y="696" type="line"/>
      <point x="198" y="118" type="line"/>
      <point x="12" y="118" type="line"/>
      <point x="-4" y="0" type="line"/>
      <point x="314" y="0" type="line"/>
      <point x="411" y="696" type="line"/>
    </contour>
  </outline>
</glyph>
<glyph name="gravecomb" format="2">
  <unicode hex="0300"/>
  <anchor x="203" y="534" name="_top"/>
  <anchor x="243" y="856" name="top"/>
  <outline>
    <contour>
      <point x="173" y="856" type="line"/>
      <point x="93" y="712" type="line"/>
      <point x="332" y="616" type="line"/>
      <point x="385" y="709" type="line"/>
    </contour>
  </outline>
</glyph>
<glyph name="acutecomb" format="2">
  <unicode hex="0301"/>
  <anchor x="214" y="534" name="_top"/>
  <anchor x="244" y="856" name="top"/>
  <outline>
    <contour>
      <point x="331" y="856" type="line"/>
      <point x="87" y="712" type="line"/>
      <point x="131" y="613" type="line"/>
      <point x="391" y="712" type="line"/>
    </contour>
  </outline>
</glyph>
<glyph name="circumflexcomb" format="2">
  <unicode hex="0302"/>
  <anchor x="270" y="534" name="_top"/>
  <anchor x="309" y="840" name="top"/>
  <outline>
    <contour>
      <point x="147" y="612" type="line"/>
      <point x="294" y="708" type="line"/>
      <point x="414" y="612" type="line"/>
      <point x="489" y="689" type="line"/>
      <point x="368" y="840" type="line"/>
      <point x="252" y="840" type="line"/>
      <point x="89" y="689" type="line"/>
    </contour>
  </outline>
</glyph>
<glyph name="macroncomb" format="2">
  <unicode hex="0304"/>
  <anchor x="228" y="534" name="_top"/>
  <anchor x="255" y="782" name="top"/>
  <outline>
    <contour>
      <point x="403" y="648" type="line"/>
      <point x="422" y="782" type="line"/>
      <point x="103" y="782" type="line"/>
      <point x="84" y="648" type="line"/>
    </contour>
  </outline>
</glyph>
<glyph name="brevecomb" format="2">
  <unicode hex="0306"/>
  <anchor x="258" y="534" name="_top"/>
  <anchor x="291" y="840" name="top"/>
  <outline>
    <contour>
      <point x="265" y="626" type="curve" smooth="yes"/>
      <point x="382" y="626"/>
      <point x="450" y="719"/>
      <point x="470" y="821" type="curve"/>
      <point x="372" y="840" type="line"/>
      <point x="355" y="793"/>
      <point x="324" y="760"/>
      <point x="279" y="760" type="curve" smooth="yes"/>
      <point x="236" y="760"/>
      <point x="213" y="791"/>
      <point x="210" y="838" type="curve"/>
      <point x="108" y="823" type="line"/>
      <point x="102" y="721"/>
      <point x="146" y="626"/>
    </contour>
  </outline>
</glyph>
<glyph name="dotaccentcomb" format="2">
  <unicode hex="0307"/>
  <anchor x="203" y="723" name="_center"/>
  <anchor x="176" y="534" name="_top"/>
  <anchor x="216" y="829" name="top"/>
  <outline>
    <contour>
      <point x="190" y="617" type="curve"/>
      <point x="259" y="617"/>
      <point x="313" y="668"/>
      <point x="313" y="736" type="curve" smooth="yes"/>
      <point x="313" y="790"/>
      <point x="275" y="829"/>
      <point x="216" y="829" type="curve"/>
      <point x="147" y="829"/>
      <point x="93" y="778"/>
      <point x="93" y="710" type="curve" smooth="yes"/>
      <point x="93" y="656"/>
      <point x="131" y="617"/>
    </contour>
  </outline>
</glyph>
<glyph name="dieresiscomb" format="2">
  <unicode hex="0308"/>
  <anchor x="283" y="534" name="_top"/>
  <anchor x="312" y="818" name="top"/>
  <outline>
    <contour>
      <point x="179" y="634" type="curve"/>
      <point x="239" y="634"/>
      <point x="286" y="678"/>
      <point x="286" y="737" type="curve" smooth="yes"/>
      <point x="286" y="784"/>
      <point x="253" y="818"/>
      <point x="201" y="818" type="curve"/>
      <point x="141" y="818"/>
      <point x="94" y="774"/>
      <point x="94" y="715" type="curve" smooth="yes"/>
      <point x="94" y="668"/>
      <point x="127" y="634"/>
    </contour>
    <contour>
      <point x="419" y="634" type="curve"/>
      <point x="479" y="634"/>
      <point x="526" y="678"/>
      <point x="526" y="737" type="curve" smooth="yes"/>
      <point x="526" y="784"/>
      <point x="493" y="818"/>
      <point x="441" y="818" type="curve"/>
      <point x="381" y="818"/>
      <point x="334" y="774"/>
      <point x="334" y="715" type="curve" smooth="yes"/>
      <point x="334" y="668"/>
      <point x="367" y="634"/>
    </contour>
  </outline>
</glyph>
<glyph name="hookabovecomb" format="2">
  <unicode hex="0309"/>
  <anchor x="179" y="534" name="_top"/>
  <anchor x="99" y="511" name="_topright"/>
  <anchor x="246" y="856" name="top"/>
  <outline>
    <contour>
      <point x="135" y="601" type="line"/>
      <point x="242" y="601" type="line"/>
      <point x="249" y="650" type="line"/>
      <point x="309" y="662"/>
      <point x="349" y="702"/>
      <point x="349" y="761" type="curve" smooth="yes"/>
      <point x="349" y="817"/>
      <point x="309" y="856"/>
      <point x="229" y="856" type="curve" smooth="yes"/>
      <point x="180" y="856"/>
      <point x="142" y="847"/>
      <point x="110" y="829" type="curve"/>
      <point x="130" y="754" type="line"/>
      <point x="151" y="762"/>
      <point x="168" y="767"/>
      <point x="190" y="767" type="curve" smooth="yes"/>
      <point x="214" y="767"/>
      <point x="224" y="759"/>
      <point x="224" y="743" type="curve" smooth="yes"/>
      <point x="224" y="717"/>
      <point x="200" y="705"/>
      <point x="148" y="704" type="curve"/>
    </contour>
  </outline>
</glyph>
<glyph name="ringcomb" format="2">
  <unicode hex="030A"/>
  <anchor x="220" y="534" name="_top"/>
  <anchor x="261" y="886" name="top"/>
  <outline>
    <contour>
      <point x="267" y="886" type="curve"/>
      <point x="163" y="886"/>
      <point x="96" y="805"/>
      <point x="96" y="725" type="curve" smooth="yes"/>
      <point x="96" y="649"/>
      <point x="143" y="593"/>
      <point x="229" y="593" type="curve" smooth="yes"/>
      <point x="336" y="593"/>
      <point x="401" y="672"/>
      <point x="401" y="754" type="curve" smooth="yes"/>
      <point x="401" y="830"/>
      <point x="354" y="886"/>
    </contour>
    <contour>
      <point x="257" y="788" type="curve" smooth="yes"/>
      <point x="278" y="788"/>
      <point x="291" y="775"/>
      <point x="291" y="749" type="curve" smooth="yes"/>
      <point x="291" y="720"/>
      <point x="273" y="693"/>
      <point x="239" y="693" type="curve" smooth="yes"/>
      <point x="219" y="693"/>
      <point x="205" y="704"/>
      <point x="205" y="730" type="curve" smooth="yes"/>
      <point x="205" y="756"/>
      <point x="223" y="788"/>
    </contour>
  </outline>
</glyph>
<glyph name="hungarumlautcomb" format="2">
  <unicode hex="030B"/>
  <anchor x="222" y="534" name="_top"/>
  <outline>
    <contour>
      <point x="396" y="877" type="line"/>
      <point x="265" y="666" type="line"/>
      <point x="354" y="620" type="line"/>
      <point x="509" y="816" type="line"/>
    </contour>
    <contour>
      <point x="210" y="877" type="line"/>
      <point x="86" y="663" type="line"/>
      <point x="177" y="624" type="line"/>
      <point x="325" y="821" type="line"/>
    </contour>
  </outline>
</glyph>
<glyph name="caroncomb" format="2">
  <unicode hex="030C"/>
  <anchor x="268" y="534" name="_top"/>
  <anchor x="300" y="830" name="top"/>
  <outline>
    <contour>
      <point x="438" y="830" type="line"/>
      <point x="290" y="734" type="line"/>
      <point x="170" y="830" type="line"/>
      <point x="98" y="753" type="line"/>
      <point x="220" y="602" type="line"/>
      <point x="336" y="602" type="line"/>
      <point x="498" y="753" type="line"/>
    </contour>
  </outline>
</glyph>
<glyph name="verticallineabovecomb" format="2">
  <unicode hex="030D"/>
  <anchor x="152" y="534" name="_top"/>
  <anchor x="186" y="896" name="top"/>
  <outline>
    <contour>
      <point x="79" y="616" type="line"/>
      <point x="249" y="616" type="line"/>
      <point x="288" y="896" type="line"/>
      <point x="118" y="896" type="line"/>
    </contour>
  </outline>
</glyph>
<glyph name="dblgravecomb" format="2">
  <unicode hex="030F"/>
  <anchor x="316" y="534" name="_top"/>
  <anchor x="299" y="877" name="top"/>
  <outline>
    <contour>
      <point x="236" y="877" type="line"/>
      <point x="107" y="816" type="line"/>
      <point x="208" y="620" type="line"/>
      <point x="309" y="666" type="line"/>
    </contour>
    <contour>
      <point x="422" y="877" type="line"/>
      <point x="292" y="821" type="line"/>
      <point x="386" y="624" type="line"/>
      <point x="486" y="663" type="line"/>
    </contour>
  </outline>
</glyph>
<glyph name="breveinvertedcomb" format="2">
  <unicode hex="0311"/>
  <anchor x="252" y="534" name="_top"/>
  <anchor x="286" y="807" name="top"/>
  <outline>
    <contour>
      <point x="180" y="593" type="line"/>
      <point x="198" y="640"/>
      <point x="229" y="673"/>
      <point x="275" y="673" type="curve" smooth="yes"/>
      <point x="319" y="673"/>
      <point x="340" y="642"/>
      <point x="344" y="595" type="curve"/>
      <point x="449" y="610" type="line"/>
      <point x="455" y="712"/>
      <point x="411" y="807"/>
      <point x="290" y="807" type="curve" smooth="yes"/>
      <point x="171" y="807"/>
      <point x="101" y="714"/>
      <point x="79" y="612" type="curve"/>
    </contour>
  </outline>
</glyph>
<glyph name="lefttackbelowcomb" format="2">
  <unicode hex="0318"/>
  <anchor x="122" y="0" name="_bottom"/>
  <anchor x="85" y="-356" name="bottom"/>
  <outline>
    <contour>
      <point x="95" y="-56" type="line"/>
      <point x="81" y="-155" type="line"/>
      <point x="-27" y="-155" type="line"/>
      <point x="-41" y="-258" type="line"/>
      <point x="67" y="-258" type="line"/>
      <point x="53" y="-356" type="line"/>
      <point x="165" y="-356" type="line"/>
      <point x="207" y="-56" type="line"/>
    </contour>
  </outline>
</glyph>
<glyph name="righttackbelowcomb" format="2">
  <unicode hex="0319"/>
  <anchor x="86" y="0" name="_bottom"/>
  <anchor x="40" y="-356" name="bottom"/>
  <outline>
    <contour>
      <point x="97" y="-56" type="line"/>
      <point x="-15" y="-56" type="line"/>
      <point x="-57" y="-356" type="line"/>
      <point x="56" y="-356" type="line"/>
      <point x="69" y="-258" type="line"/>
      <point x="177" y="-258" type="line"/>
      <point x="192" y="-155" type="line"/>
      <point x="84" y="-155" type="line"/>
    </contour>
  </outline>
</glyph>
<glyph name="leftangleabovecomb" format="2">
  <unicode hex="031A"/>
  <anchor x="189" y="534" name="_top"/>
  <anchor x="216" y="815" name="top"/>
  <outline>
    <contour>
      <point x="108" y="815" type="line"/>
      <point x="95" y="715" type="line"/>
      <point x="207" y="715" type="line"/>
      <point x="190" y="596" type="line"/>
      <point x="301" y="596" type="line"/>
      <point x="332" y="815" type="line"/>
    </contour>
  </outline>
</glyph>
<glyph name="horncomb" format="2">
  <unicode hex="031B"/>
  <anchor x="92" y="534" name="_topright"/>
  <anchor x="143" y="534" name="topright"/>
  <outline>
    <contour>
      <point x="59" y="381" type="line"/>
      <point x="172" y="381"/>
      <point x="240" y="438"/>
      <point x="240" y="550" type="curve" smooth="yes"/>
      <point x="240" y="578"/>
      <point x="235" y="596"/>
      <point x="232" y="610" type="curve"/>
      <point x="110" y="597" type="line"/>
      <point x="114" y="583"/>
      <point x="116" y="567"/>
      <point x="116" y="546" type="curve" smooth="yes"/>
      <point x="116" y="500"/>
      <point x="100" y="475"/>
      <point x="59" y="471" type="curve"/>
    </contour>
  </outline>
</glyph>
<glyph name="downtackbelowcomb" format="2">
  <unicode hex="031E"/>
  <anchor x="173" y="0" name="_bottom"/>
  <anchor x="116" y="-329" name="bottom"/>
  <outline>
    <contour>
      <point x="303" y="-189" type="line"/>
      <point x="318" y="-85" type="line"/>
      <point x="-16" y="-85" type="line"/>
      <point x="-31" y="-189" type="line"/>
      <point x="75" y="-189" type="line"/>
      <point x="55" y="-329" type="line"/>
      <point x="176" y="-329" type="line"/>
      <point x="196" y="-189" type="line"/>
    </contour>
  </outline>
</glyph>
<glyph name="commaaccentcomb" format="2">
  <unicode hex="0326"/>
  <anchor x="84" y="0" name="_bottom"/>
  <outline>
    <contour>
      <point x="68" y="-62" type="curve" smooth="yes"/>
      <point x="15" y="-62"/>
      <point x="-29" y="-103"/>
      <point x="-29" y="-165" type="curve" smooth="yes"/>
      <point x="-29" y="-193"/>
      <point x="-17" y="-212"/>
      <point x="3" y="-226" type="curve"/>
      <point x="-41" y="-342" type="line"/>
      <point x="51" y="-342" type="line"/>
      <point x="114" y="-244" type="line" smooth="yes"/>
      <point x="140" y="-204"/>
      <point x="153" y="-178"/>
      <point x="153" y="-142" type="curve" smooth="yes"/>
      <point x="153" y="-94"/>
      <point x="117" y="-62"/>
    </contour>
  </outline>
</glyph>
<glyph name="cedillacomb" format="2">
  <unicode hex="0327"/>
  <anchor x="113" y="0" name="_bottom"/>
  <anchor x="94" y="-275" name="bottom"/>
  <outline>
    <contour>
      <point x="170" y="16" type="line"/>
      <point x="67" y="16" type="line"/>
      <point x="33" y="-120" type="line"/>
      <point x="96" y="-120"/>
      <point x="122" y="-126"/>
      <point x="121" y="-146" type="curve" smooth="yes"/>
      <point x="120" y="-166"/>
      <point x="100" y="-173"/>
      <point x="72" y="-173" type="curve" smooth="yes"/>
      <point x="49" y="-173"/>
      <point x="31" y="-167"/>
      <point x="12" y="-156" type="curve"/>
      <point x="-41" y="-240" type="line"/>
      <point x="-15" y="-258"/>
      <point x="26" y="-275"/>
      <point x="78" y="-275" type="curve" smooth="yes"/>
      <point x="215" y="-275"/>
      <point x="256" y="-193"/>
      <point x="256" y="-139" type="curve" smooth="yes"/>
      <point x="256" y="-85"/>
      <point x="223" y="-51"/>
      <point x="160" y="-43" type="curve"/>
    </contour>
  </outline>
</glyph>
<glyph name="bridgebelowcomb" format="2">
  <unicode hex="032A"/>
  <anchor x="153" y="0" name="_bottom"/>
  <anchor x="131" y="-259" name="bottom"/>
  <outline>
    <contour>
      <point x="-40" y="-259" type="line"/>
      <point x="71" y="-259" type="line"/>
      <point x="81" y="-179" type="line"/>
      <point x="173" y="-179" type="line"/>
      <point x="163" y="-259" type="line"/>
      <point x="274" y="-259" type="line"/>
      <point x="298" y="-85" type="line"/>
      <point x="-16" y="-85" type="line"/>
    </contour>
  </outline>
</glyph>
<glyph name="dblarchinvertedbelowcomb" format="2">
  <unicode hex="032B"/>
  <anchor x="223" y="0" name="_bottom"/>
  <anchor x="205" y="-244" name="bottom"/>
  <outline>
    <contour>
      <point x="277" y="-244" type="curve" smooth="yes"/>
      <point x="354" y="-244"/>
      <point x="403" y="-161"/>
      <point x="423" y="-62" type="curve"/>
      <point x="346" y="-50" type="line"/>
      <point x="331" y="-97"/>
      <point x="317" y="-120"/>
      <point x="286" y="-120" type="curve" smooth="yes"/>
      <point x="258" y="-120"/>
      <point x="250" y="-99"/>
      <point x="249" y="-52" type="curve"/>
      <point x="182" y="-50" type="line"/>
      <point x="171" y="-159"/>
      <point x="198" y="-244"/>
    </contour>
    <contour>
      <point x="81" y="-244" type="curve" smooth="yes"/>
      <point x="158" y="-244"/>
      <point x="207" y="-161"/>
      <point x="228" y="-52" type="curve"/>
      <point x="160" y="-50" type="line"/>
      <point x="145" y="-97"/>
      <point x="130" y="-120"/>
      <point x="100" y="-120" type="curve" smooth="yes"/>
      <point x="71" y="-120"/>
      <point x="64" y="-99"/>
      <point x="63" y="-52" type="curve"/>
      <point x="-16" y="-60" type="line"/>
      <point x="-25" y="-159"/>
      <point x="2" y="-244"/>
    </contour>
  </outline>
</glyph>
<glyph name="circumflexbelowcomb" format="2">
  <unicode hex="032D"/>
  <anchor x="197" y="0" name="_bottom"/>
  <anchor x="157" y="-288" name="bottom"/>
  <outline>
    <contour>
      <point x="21" y="-288" type="line"/>
      <point x="168" y="-192" type="line"/>
      <point x="288" y="-288" type="line"/>
      <point x="363" y="-211" type="line"/>
      <point x="242" y="-60" type="line"/>
      <point x="126" y="-60" type="line"/>
      <point x="-37" y="-211" type="line"/>
    </contour>
  </outline>
</glyph>
<glyph name="lowlinecomb" format="2">
  <unicode hex="0332"/>
  <anchor x="232" y="0" name="_bottom"/>
  <anchor x="216" y="-202" name="bottom"/>
  <outline>
    <contour>
      <point x="443" y="-202" type="line"/>
      <point x="463" y="-68" type="line"/>
      <point x="-16" y="-68" type="line"/>
      <point x="-36" y="-202" type="line"/>
    </contour>
  </outline>
</glyph>
<glyph name="ringhalfrightbelowcomb" format="2">
  <unicode hex="0339"/>
  <anchor x="58" y="0" name="_bottom"/>
  <anchor x="33" y="-337" name="bottom"/>
  <outline>
    <contour>
      <point x="-55" y="-337" type="curve"/>
      <point x="-39" y="-236" type="line"/>
      <point x="-14" y="-236"/>
      <point x="6" y="-219"/>
      <point x="6" y="-183" type="curve" smooth="yes"/>
      <point x="6" y="-155"/>
      <point x="-8" y="-144"/>
      <point x="-28" y="-144" type="curve"/>
      <point x="-13" y="-44" type="line"/>
      <point x="73" y="-44"/>
      <point x="118" y="-98"/>
      <point x="118" y="-175" type="curve" smooth="yes"/>
      <point x="118" y="-273"/>
      <point x="49" y="-337"/>
    </contour>
  </outline>
</glyph>
<glyph name="bridgeinvertedbelowcomb" format="2">
  <unicode hex="033A"/>
  <anchor x="149" y="0" name="_bottom"/>
  <anchor x="127" y="-259" name="bottom"/>
  <outline>
    <contour>
      <point x="-20" y="-85" type="line"/>
      <point x="-44" y="-259" type="line"/>
      <point x="270" y="-259" type="line"/>
      <point x="294" y="-85" type="line"/>
      <point x="183" y="-85" type="line"/>
      <point x="171" y="-165" type="line"/>
      <point x="80" y="-165" type="line"/>
      <point x="91" y="-85" type="line"/>
    </contour>
  </outline>
</glyph>
<glyph name="squarebelowcomb" format="2">
  <unicode hex="033B"/>
  <anchor x="153" y="0" name="_bottom"/>
  <anchor x="133" y="-258" name="bottom"/>
  <outline>
    <contour>
      <point x="-40" y="-258" type="line"/>
      <point x="274" y="-258" type="line"/>
      <point x="302" y="-58" type="line"/>
      <point x="-12" y="-58" type="line"/>
    </contour>
    <contour>
      <point x="52" y="-189" type="line"/>
      <point x="61" y="-127" type="line"/>
      <point x="208" y="-127" type="line"/>
      <point x="200" y="-189" type="line"/>
    </contour>
  </outline>
</glyph>
<glyph name="ypogegrammenicomb" format="2">
  <unicode hex="0345"/>
  <anchor x="52" y="0" name="_bottom"/>
  <anchor x="105" y="-212" name="bottom"/>
  <outline>
    <contour>
      <point x="107" y="-212" type="curve" smooth="yes"/>
      <point x="160" y="-212"/>
      <point x="197" y="-197"/>
      <point x="229" y="-174" type="curve"/>
      <point x="193" y="-92" type="line"/>
      <point x="176" y="-101"/>
      <point x="162" y="-107"/>
      <point x="144" y="-107" type="curve" smooth="yes"/>
      <point x="123" y="-107"/>
      <point x="113" y="-97"/>
      <point x="113" y="-78" type="curve" smooth="yes"/>
      <point x="113" y="-70"/>
      <point x="114" y="-63"/>
      <point x="117" y="-44" type="curve"/>
      <point x="-13" y="-44" type="line"/>
      <point x="-18" y="-69"/>
      <point x="-19" y="-84"/>
      <point x="-19" y="-103" type="curve" smooth="yes"/>
      <point x="-19" y="-163"/>
      <point x="23" y="-212"/>
    </contour>
  </outline>
</glyph>
<glyph name="Heta" format="2">
  <advance width="522"/>
  <unicode hex="0370"/>
  <anchor x="223.476" y="0" name="bottom"/>
  <anchor x="321.292" y="696" name="top"/>
  <outline>
    <contour>
      <point x="526" y="281" type="line"/>
      <point x="548" y="439" type="line"/>
      <point x="274" y="439" type="line"/>
      <point x="310" y="696" type="line"/>
      <point x="104" y="696" type="line"/>
      <point x="7" y="0" type="line"/>
      <point x="213" y="0" type="line"/>
      <point x="252" y="281" type="line"/>
    </contour>
  </outline>
</glyph>
<glyph name="heta" format="2">
  <advance width="478"/>
  <unicode hex="0371"/>
  <anchor x="201.476" y="0" name="bottom"/>
  <anchor x="276.524" y="534" name="top"/>
  <outline>
    <contour>
      <point x="8" y="0" type="line"/>
      <point x="202" y="0" type="line"/>
      <point x="251" y="348" type="line" smooth="yes"/>
      <point x="266" y="458"/>
      <point x="259" y="508"/>
      <point x="245" y="547" type="curve"/>
      <point x="62" y="525" type="line"/>
      <point x="67" y="496"/>
      <point x="69" y="443"/>
      <point x="64" y="398" type="curve" smooth="yes"/>
    </contour>
    <contour>
      <point x="151" y="196" type="line"/>
      <point x="445" y="196" type="line"/>
      <point x="466" y="345" type="line"/>
      <point x="172" y="345" type="line"/>
    </contour>
  </outline>
</glyph>
<glyph name="tonos" format="2">
  <advance width="302"/>
  <unicode hex="0384"/>
  <anchor x="138" y="534" name="_top"/>
  <outline>
    <contour>
      <point x="162" y="868" type="line"/>
      <point x="87" y="603" type="line"/>
      <point x="210" y="582" type="line"/>
      <point x="346" y="829" type="line"/>
    </contour>
  </outline>
</glyph>
<glyph name="Delta" format="2">
  <advance width="597"/>
  <unicode hex="0394"/>
  <anchor x="260" y="0" name="bottom"/>
  <anchor x="358" y="696" name="top"/>
  <outline>
    <contour>
      <point x="338" y="549" type="line"/>
      <point x="361" y="146" type="line"/>
      <point x="201" y="146" type="line"/>
    </contour>
    <contour>
      <point x="479" y="696" type="line"/>
      <point x="237" y="696" type="line"/>
      <point x="-63" y="0" type="line"/>
      <point x="584" y="0" type="line"/>
    </contour>
  </outline>
</glyph>
<glyph name="Theta" format="2">
  <advance width="677"/>
  <unicode hex="0398"/>
  <anchor x="300.976" y="0" name="bottom"/>
  <anchor x="398.792" y="696" name="top"/>
  <outline>
    <contour>
      <point x="447" y="405" type="line"/>
      <point x="270" y="405" type="line"/>
      <point x="255" y="299" type="line"/>
      <point x="431" y="299" type="line"/>
    </contour>
    <contour>
      <point x="400" y="716" type="curve" smooth="yes"/>
      <point x="112" y="716"/>
      <point x="25" y="448"/>
      <point x="25" y="268" type="curve" smooth="yes"/>
      <point x="25" y="86"/>
      <point x="121" y="-20"/>
      <point x="301" y="-20" type="curve" smooth="yes"/>
      <point x="591" y="-20"/>
      <point x="676" y="251"/>
      <point x="676" y="429" type="curve" smooth="yes"/>
      <point x="676" y="611"/>
      <point x="580" y="716"/>
    </contour>
    <contour>
      <point x="384" y="570" type="curve" smooth="yes"/>
      <point x="450" y="570"/>
      <point x="481" y="535"/>
      <point x="481" y="445" type="curve" smooth="yes"/>
      <point x="481" y="329"/>
      <point x="458" y="126"/>
      <point x="317" y="126" type="curve" smooth="yes"/>
      <point x="251" y="126"/>
      <point x="220" y="163"/>
      <point x="220" y="253" type="curve" smooth="yes"/>
      <point x="220" y="369"/>
      <point x="245" y="570"/>
    </contour>
  </outline>
</glyph>
<glyph name="Lambda" format="2">
  <advance width="589"/>
  <unicode hex="039B"/>
  <anchor x="260" y="0" name="bottom"/>
  <anchor x="354" y="696" name="top"/>
  <outline>
    <contour>
      <point x="475" y="696" type="line"/>
      <point x="233" y="696" type="line"/>
      <point x="-63" y="0" type="line"/>
      <point x="153" y="0" type="line"/>
      <point x="336" y="552" type="line"/>
      <point x="367" y="0" type="line"/>
      <point x="576" y="0" type="line"/>
    </contour>
  </outline>
</glyph>
<glyph name="Xi" format="2">
  <advance width="520"/>
  <unicode hex="039E"/>
  <anchor x="222.476" y="0" name="bottom"/>
  <anchor x="320.292" y="696" name="top"/>
  <outline>
    <contour>
      <point x="488" y="174" type="line"/>
      <point x="6" y="174" type="line"/>
      <point x="-18" y="0" type="line"/>
      <point x="464" y="0" type="line"/>
    </contour>
    <contour>
      <point x="460" y="431" type="line"/>
      <point x="107" y="431" type="line"/>
      <point x="85" y="276" type="line"/>
      <point x="438" y="276" type="line"/>
    </contour>
    <contour>
      <point x="566" y="696" type="line"/>
      <point x="79" y="696" type="line"/>
      <point x="55" y="528" type="line"/>
      <point x="521" y="528" type="line"/>
    </contour>
  </outline>
</glyph>
<glyph name="iota" format="2">
  <advance width="267"/>
  <unicode hex="03B9"/>
  <anchor x="95.9756" y="0" name="bottom"/>
  <anchor x="170" y="534" name="top"/>
  <outline>
    <contour>
      <point x="267" y="534" type="line"/>
      <point x="73" y="534" type="line"/>
      <point x="23" y="177" type="line" smooth="yes"/>
      <point x="6" y="53"/>
      <point x="67" y="-4"/>
      <point x="177" y="-20" type="curve"/>
      <point x="250" y="120" type="line"/>
      <point x="220" y="136"/>
      <point x="215" y="156"/>
      <point x="221" y="201" type="curve" smooth="yes"/>
    </contour>
  </outline>
</glyph>
<glyph name="pi" format="2">
  <advance width="596"/>
  <unicode hex="03C0"/>
  <anchor x="260.476" y="0" name="bottom"/>
  <anchor x="335.524" y="534" name="top"/>
  <outline>
    <contour>
      <point x="635" y="534" type="line"/>
      <point x="131" y="534" type="line" smooth="yes"/>
      <point x="89" y="534"/>
      <point x="53" y="525"/>
      <point x="22" y="513" type="curve"/>
      <point x="40" y="374" type="line"/>
      <point x="55.381" y="379.324"/>
      <point x="66.563" y="383.598"/>
      <point x="85.138" y="386.202" type="curve"/>
      <point x="32" y="0" type="line"/>
      <point x="222" y="0" type="line"/>
      <point x="275.523" y="389" type="line"/>
      <point x="353.417" y="389" type="line"/>
      <point x="323" y="177" type="line" smooth="yes"/>
      <point x="306" y="53"/>
      <point x="367" y="-4"/>
      <point x="477" y="-20" type="curve"/>
      <point x="550" y="120" type="line"/>
      <point x="520" y="136"/>
      <point x="516" y="156"/>
      <point x="522" y="201" type="curve" smooth="yes"/>
      <point x="548.338" y="389" type="line"/>
      <point x="615" y="389" type="line"/>
    </contour>
  </outline>
</glyph>
<glyph name="rho" format="2">
  <advance width="580"/>
  <unicode hex="03C1"/>
  <anchor x="319" y="534" name="top"/>
  <outline>
    <contour>
      <point x="-38" y="-227" type="line"/>
      <point x="158" y="-207" type="line"/>
      <point x="222" y="242" type="line" smooth="yes"/>
      <point x="241" y="372"/>
      <point x="264" y="413"/>
      <point x="310" y="413" type="curve" smooth="yes"/>
      <point x="340" y="413"/>
      <point x="362" y="400"/>
      <point x="362" y="329" type="curve" smooth="yes"/>
      <point x="362" y="244"/>
      <point x="337" y="121"/>
      <point x="267" y="121" type="curve" smooth="yes"/>
      <point x="235" y="121"/>
      <point x="216" y="135"/>
      <point x="200" y="165" type="curve"/>
      <point x="183" y="37" type="line"/>
      <point x="204" y="2"/>
      <point x="243" y="-20"/>
      <point x="294" y="-20" type="curve" smooth="yes"/>
      <point x="476" y="-20"/>
      <point x="561" y="153"/>
      <point x="561" y="327" type="curve" smooth="yes"/>
      <point x="561" y="476"/>
      <point x="464" y="554"/>
      <point x="319" y="554" type="curve" smooth="yes"/>
      <point x="144" y="554"/>
      <point x="56" y="453"/>
      <point x="32" y="278" type="curve" smooth="yes"/>
    </contour>
  </outline>
</glyph>
<glyph name="phi" format="2">
  <advance width="753"/>
  <unicode hex="03C6"/>
  <anchor x="414.024" y="534" name="top"/>
  <outline>
    <contour>
      <point x="537" y="554" type="curve" smooth="yes"/>
      <point x="395" y="554"/>
      <point x="312" y="463"/>
      <point x="292" y="318" type="curve" smooth="yes"/>
      <point x="263.377" y="112.742" type="line"/>
      <point x="216.816" y="122.898"/>
      <point x="199" y="150.707"/>
      <point x="199" y="202" type="curve" smooth="yes"/>
      <point x="199" y="303"/>
      <point x="227" y="398"/>
      <point x="297" y="534" type="curve"/>
      <point x="120" y="534" type="line"/>
      <point x="50" y="419"/>
      <point x="11" y="291"/>
      <point x="11" y="200" type="curve" smooth="yes"/>
      <point x="11" y="80.324"/>
      <point x="85.247" y="0.063"/>
      <point x="245.15" y="-17.965" type="curve"/>
      <point x="216" y="-227" type="line"/>
      <point x="397" y="-207" type="line"/>
      <point x="423.595" y="-18.352" type="line"/>
      <point x="683" y="9"/>
      <point x="735" y="183"/>
      <point x="735" y="343" type="curve" smooth="yes"/>
      <point x="735" y="479"/>
      <point x="672" y="554"/>
    </contour>
    <contour>
      <point x="525" y="426" type="curve" smooth="yes"/>
      <point x="543" y="426"/>
      <point x="554" y="416"/>
      <point x="554" y="375" type="curve" smooth="yes"/>
      <point x="554" y="293"/>
      <point x="546" y="130"/>
      <point x="442.117" y="113.027" type="curve"/>
      <point x="472" y="325" type="line" smooth="yes"/>
      <point x="484" y="409"/>
      <point x="498" y="426"/>
    </contour>
  </outline>
</glyph>
<glyph name="psi" format="2">
  <advance width="778"/>
  <unicode hex="03C8"/>
  <anchor x="426.524" y="534" name="top"/>
  <outline>
    <contour>
      <point x="766" y="418" type="curve" smooth="yes"/>
      <point x="766" y="461"/>
      <point x="763" y="499"/>
      <point x="760" y="534" type="curve"/>
      <point x="580" y="534" type="line"/>
      <point x="581" y="511"/>
      <point x="583" y="475"/>
      <point x="583" y="435" type="curve" smooth="yes"/>
      <point x="583" y="317.998"/>
      <point x="584.835" y="141.527"/>
      <point x="464.515" y="117.292" type="curve"/>
      <point x="523" y="534" type="line"/>
      <point x="341" y="534" type="line"/>
      <point x="282.858" y="116.586" type="line"/>
      <point x="225.013" y="127.897"/>
      <point x="210.709" y="164.143"/>
      <point x="218" y="217" type="curve" smooth="yes"/>
      <point x="262" y="534" type="line"/>
      <point x="73" y="534" type="line"/>
      <point x="27" y="209" type="line" smooth="yes"/>
      <point x="10.631" y="91.529"/>
      <point x="86.975" y="-0.909"/>
      <point x="264.067" y="-18.323" type="curve"/>
      <point x="235" y="-227" type="line"/>
      <point x="419" y="-207" type="line"/>
      <point x="445.578" y="-17.634" type="line"/>
      <point x="713.168" y="7.567"/>
      <point x="766" y="170.038"/>
    </contour>
  </outline>
</glyph>
<glyph name="KaiSymbol" format="2">
  <advance width="695"/>
  <unicode hex="03CF"/>
  <anchor x="288" y="0" name="bottom"/>
  <anchor x="385" y="696" name="top"/>
  <outline>
    <contour>
      <point x="476" y="154" type="line"/>
      <point x="455" y="0" type="line"/>
      <point x="657" y="0" type="line"/>
      <point x="676" y="154" type="line"/>
    </contour>
    <component base="Kappa"/>
    <component base="hookHELPER.case" xOffset="280"/>
  </outline>
</glyph>
<glyph name="KoppaArchaic" format="2">
  <advance width="678"/>
  <unicode hex="03D8"/>
  <anchor x="303" y="0" name="bottom"/>
  <anchor x="399" y="696" name="top"/>
  <anchor x="106" y="696" name="topleft"/>
  <anchor x="644" y="696" name="topright"/>
  <outline>
    <contour>
      <point x="171" y="-215" type="line"/>
      <point x="356" y="-215" type="line"/>
      <point x="387" y="0" type="line"/>
      <point x="202" y="0" type="line"/>
    </contour>
    <component base="O"/>
  </outline>
</glyph>
<glyph name="koppaArchaic" format="2">
  <advance width="572"/>
  <unicode hex="03D9"/>
  <anchor x="252" y="0" name="bottom"/>
  <anchor x="314" y="534" name="top"/>
  <anchor x="543" y="534" name="topright"/>
  <outline>
    <contour>
      <point x="335" y="7" type="line"/>
      <point x="165" y="7" type="line"/>
      <point x="132" y="-226" type="line"/>
      <point x="304" y="-206" type="line"/>
    </contour>
    <component base="o"/>
  </outline>
</glyph>
<glyph name="Digamma" format="2">
  <advance width="505"/>
  <unicode hex="03DC"/>
  <anchor x="213.476" y="0.0" name="bottom"/>
  <anchor x="218" y="0" name="bottomright"/>
  <anchor x="342" y="696" name="top"/>
  <outline>
    <contour>
      <point x="434" y="242" type="curve"/>
      <point x="495" y="369" type="line"/>
      <point x="465" y="391"/>
      <point x="427" y="402"/>
      <point x="373" y="402" type="curve" smooth="yes"/>
      <point x="106" y="402" type="line"/>
      <point x="86" y="258" type="line"/>
      <point x="345" y="258" type="line" smooth="yes"/>
      <point x="385" y="258"/>
      <point x="407" y="252"/>
    </contour>
    <component base="Gamma" xOffset="1"/>
  </outline>
</glyph>
<glyph name="Koppa" format="2">
  <advance width="512"/>
  <unicode hex="03DE"/>
  <anchor x="218.476" y="0" name="bottom"/>
  <anchor x="316.292" y="696" name="top"/>
  <outline>
    <contour>
      <point x="57" y="0" type="line"/>
      <point x="286" y="0" type="line"/>
      <point x="503" y="271" type="line"/>
      <point x="320" y="307" type="line"/>
    </contour>
    <contour>
      <point x="63" y="271" type="line"/>
      <point x="503" y="271" type="line"/>
      <point x="472" y="426" type="line"/>
      <point x="32" y="426" type="line"/>
    </contour>
    <contour>
      <point x="218" y="390" type="line"/>
      <point x="480" y="696" type="line"/>
      <point x="251" y="696" type="line"/>
      <point x="32" y="426" type="line"/>
    </contour>
  </outline>
</glyph>
<glyph name="Sampi" format="2">
  <advance width="601"/>
  <unicode hex="03E0"/>
  <anchor x="262.976" y="0" name="bottom"/>
  <anchor x="360.792" y="696" name="top"/>
  <outline>
    <contour>
      <point x="410" y="0" type="line"/>
      <point x="589" y="0" type="line"/>
      <point x="426" y="696" type="line"/>
      <point x="252" y="696" type="line"/>
      <point x="317" y="536" type="line"/>
    </contour>
    <contour>
      <point x="-62" y="0" type="line"/>
      <point x="113" y="0" type="line"/>
      <point x="415" y="666" type="line"/>
      <point x="274" y="651" type="line"/>
    </contour>
    <contour>
      <point x="178" y="0" type="line"/>
      <point x="301" y="0" type="line"/>
      <point x="451" y="389" type="line"/>
      <point x="352" y="395" type="line"/>
    </contour>
  </outline>
</glyph>
<glyph name="rhoStrokeSymbol" format="2">
  <advance width="584"/>
  <unicode hex="03FC"/>
  <anchor x="318" y="534" name="top"/>
  <outline>
    <contour>
      <point x="-59" y="-42" type="line"/>
      <point x="-74" y="-148" type="line"/>
      <point x="-23" y="-148" type="line"/>
      <point x="292" y="-148" type="line"/>
      <point x="307" y="-42" type="line"/>
    </contour>
    <component base="rho" xOffset="-1"/>
  </outline>
</glyph>
<glyph name="Tshe-cy" format="2">
  <advance width="752"/>
  <unicode hex="040B"/>
  <anchor x="400.976" y="0.0" name="bottom"/>
  <anchor x="706" y="0" name="bottomright"/>
  <anchor x="498.792" y="696.0" name="top"/>
  <outline>
    <contour>
      <point x="607" y="696" type="line"/>
      <point x="64" y="696" type="line"/>
      <point x="43" y="546" type="line"/>
      <point x="567" y="546" type="line"/>
    </contour>
    <component base="Shha-cy" xOffset="125"/>
  </outline>
</glyph>
<glyph name="Ge-cy" format="2">
  <advance width="500"/>
  <unicode hex="0413"/>
  <anchor x="212.476" y="0" name="bottom"/>
  <anchor x="217" y="0" name="bottomright"/>
  <anchor x="341" y="696" name="top"/>
  <outline>
    <contour>
      <point x="103" y="696" type="line"/>
      <point x="6" y="0" type="line"/>
      <point x="208" y="0" type="line"/>
      <point x="289" y="584" type="line"/>
    </contour>
    <contour>
      <point x="566" y="696" type="line"/>
      <point x="103" y="696" type="line"/>
      <point x="267" y="538" type="line"/>
      <point x="525" y="538" type="line"/>
    </contour>
  </outline>
</glyph>
<glyph name="De-cy" format="2">
  <advance width="630"/>
  <unicode hex="0414"/>
  <anchor x="520" y="0" name="_bottom"/>
  <anchor x="375.292" y="696" name="top"/>
  <outline>
    <contour>
      <point x="632" y="696" type="line"/>
      <point x="203" y="696" type="line"/>
      <point x="144" y="468" type="line" smooth="yes"/>
      <point x="91" y="272"/>
      <point x="80" y="196"/>
      <point x="20" y="154" type="curve"/>
      <point x="0" y="0" type="line"/>
      <point x="535" y="0" type="line"/>
    </contour>
    <contour>
      <point x="418" y="549" type="line"/>
      <point x="362" y="154" type="line"/>
      <point x="179" y="154" type="line"/>
      <point x="246" y="205"/>
      <point x="292" y="292"/>
      <point x="339" y="491" type="curve" smooth="yes"/>
      <point x="352" y="549" type="line"/>
    </contour>
    <component base="descStraight-cy.case" xOffset="400"/>
    <component base="descStraightleft-cy.case" xOffset="-64"/>
  </outline>
</glyph>
<glyph name="Ka-cy" format="2">
  <advance width="635"/>
  <unicode hex="041A"/>
  <anchor x="279.976" y="0" name="bottom"/>
  <anchor x="579" y="0" name="bottomright"/>
  <anchor x="388" y="696" name="top"/>
  <outline>
    <contour>
      <point x="646" y="716" type="line"/>
      <point x="524" y="704"/>
      <point x="479" y="684"/>
      <point x="419" y="591" type="curve" smooth="yes"/>
      <point x="315" y="430" type="line"/>
      <point x="269" y="430" type="line"/>
      <point x="306" y="696" type="line"/>
      <point x="104" y="696" type="line"/>
      <point x="7" y="0" type="line"/>
      <point x="209" y="0" type="line"/>
      <point x="250" y="291" type="line"/>
      <point x="303" y="291" type="line"/>
      <point x="405" y="0" type="line"/>
      <point x="613" y="0" type="line"/>
      <point x="473" y="367" type="line"/>
      <point x="567" y="504" type="line" smooth="yes"/>
      <point x="602" y="555"/>
      <point x="632" y="572"/>
      <point x="683" y="578" type="curve"/>
    </contour>
  </outline>
</glyph>
<glyph name="Pe-cy" format="2">
  <advance width="645"/>
  <unicode hex="041F"/>
  <anchor x="284.976" y="0" name="bottom"/>
  <anchor x="575" y="0" name="bottomright"/>
  <anchor x="382.792" y="696" name="top"/>
  <outline>
    <contour>
      <point x="662" y="696" type="line"/>
      <point x="103" y="696" type="line"/>
      <point x="6" y="0" type="line"/>
      <point x="208" y="0" type="line"/>
      <point x="284" y="542" type="line"/>
      <point x="439" y="542" type="line"/>
      <point x="363" y="0" type="line"/>
      <point x="565" y="0" type="line"/>
    </contour>
  </outline>
</glyph>
<glyph name="U-cy" format="2">
  <advance width="587"/>
  <unicode hex="0423"/>
  <anchor x="255.976" y="0" name="bottom"/>
  <anchor x="354" y="696" name="top"/>
  <outline>
    <contour>
      <point x="672" y="696" type="line"/>
      <point x="463" y="696" type="line"/>
      <point x="304" y="293" type="line"/>
      <point x="243" y="696" type="line"/>
      <point x="40" y="696" type="line"/>
      <point x="172" y="180" type="line"/>
      <point x="227" y="181" type="line"/>
      <point x="194" y="134"/>
      <point x="150" y="121"/>
      <point x="66" y="115" type="curve"/>
      <point x="75" y="-20" type="line"/>
      <point x="247" y="-9"/>
      <point x="342" y="38"/>
      <point x="432" y="218" type="curve" smooth="yes"/>
    </contour>
  </outline>
</glyph>
<glyph name="Sha-cy" format="2">
  <advance width="884"/>
  <unicode hex="0428"/>
  <anchor x="404.476" y="0" name="bottom"/>
  <anchor x="814" y="0" name="bottomright"/>
  <anchor x="502.292" y="696" name="top"/>
  <outline>
    <contour>
      <point x="901" y="696" type="line"/>
      <point x="703" y="696" type="line"/>
      <point x="627" y="158" type="line"/>
      <point x="521" y="158" type="line"/>
      <point x="596" y="696" type="line"/>
      <point x="408" y="696" type="line"/>
      <point x="332" y="158" type="line"/>
      <point x="226" y="158" type="line"/>
      <point x="301" y="696" type="line"/>
      <point x="103" y="696" type="line"/>
      <point x="6" y="0" type="line"/>
      <point x="804" y="0" type="line"/>
    </contour>
  </outline>
</glyph>
<glyph name="Hardsign-cy" format="2">
  <advance width="720"/>
  <unicode hex="042A"/>
  <anchor x="384.476" y="0.0" name="bottom"/>
  <anchor x="482.292" y="696.0" name="top"/>
  <outline>
    <contour>
      <point x="206" y="546" type="line"/>
      <point x="428" y="696" type="line"/>
      <point x="60" y="696" type="line"/>
      <point x="39" y="546" type="line"/>
    </contour>
    <component base="Softsign-cy" xOffset="124"/>
  </outline>
</glyph>
<glyph name="Softsign-cy" format="2">
  <advance width="596"/>
  <unicode hex="042C"/>
  <anchor x="260.476" y="0" name="bottom"/>
  <anchor x="358.292" y="696" name="top"/>
  <outline>
    <contour>
      <point x="104" y="696" type="line"/>
      <point x="7" y="0" type="line"/>
      <point x="281" y="0" type="line" smooth="yes"/>
      <point x="503" y="0"/>
      <point x="587" y="147"/>
      <point x="587" y="276" type="curve" smooth="yes"/>
      <point x="587" y="402"/>
      <point x="496" y="469"/>
      <point x="336" y="469" type="curve" smooth="yes"/>
      <point x="259" y="469" type="line"/>
      <point x="240" y="331" type="line"/>
      <point x="297" y="331" type="line" smooth="yes"/>
      <point x="353" y="331"/>
      <point x="375" y="300"/>
      <point x="375" y="260" type="curve" smooth="yes"/>
      <point x="375" y="217"/>
      <point x="356" y="145"/>
      <point x="273" y="145" type="curve" smooth="yes"/>
      <point x="229" y="145" type="line"/>
      <point x="306" y="696" type="line"/>
    </contour>
  </outline>
</glyph>
<glyph name="Ia-cy" format="2">
  <advance width="601"/>
  <unicode hex="042F"/>
  <anchor x="265" y="0" name="bottom"/>
  <anchor x="363" y="696" name="top"/>
  <outline>
    <contour>
      <point x="315" y="252" type="line"/>
      <point x="141" y="288" type="line"/>
      <point x="-49" y="0" type="line"/>
      <point x="170" y="0" type="line"/>
    </contour>
    <contour>
      <point x="146" y="269" type="curve"/>
      <point x="292" y="237" type="line"/>
      <point x="367" y="237" type="line"/>
      <point x="386" y="375" type="line"/>
      <point x="326" y="375" type="line" smooth="yes"/>
      <point x="283" y="375"/>
      <point x="256" y="397"/>
      <point x="256" y="441" type="curve" smooth="yes"/>
      <point x="256" y="482"/>
      <point x="275" y="555"/>
      <point x="361" y="555" type="curve" smooth="yes"/>
      <point x="395" y="555" type="line"/>
      <point x="318" y="0" type="line"/>
      <point x="520" y="0" type="line"/>
      <point x="617" y="696" type="line"/>
      <point x="369" y="696" type="line" smooth="yes"/>
      <point x="104" y="696"/>
      <point x="43" y="556"/>
      <point x="43" y="428" type="curve" smooth="yes"/>
      <point x="43" y="351"/>
      <point x="83" y="299"/>
    </contour>
  </outline>
</glyph>
<glyph name="ka-cy" format="2">
  <advance width="565"/>
  <unicode hex="043A"/>
  <anchor x="244.976" y="0" name="bottom"/>
  <anchor x="492" y="0" name="bottomright"/>
  <anchor x="326" y="534" name="top"/>
  <outline>
    <contour>
      <point x="522" y="554" type="line"/>
      <point x="423" y="535"/>
      <point x="387" y="505"/>
      <point x="348" y="442" type="curve" smooth="yes"/>
      <point x="277" y="329" type="line"/>
      <point x="244" y="329" type="line"/>
      <point x="272" y="534" type="line"/>
      <point x="78" y="534" type="line"/>
      <point x="4" y="0" type="line"/>
      <point x="198" y="0" type="line"/>
      <point x="228" y="219" type="line"/>
      <point x="262" y="219" type="line"/>
      <point x="326" y="0" type="line"/>
      <point x="523" y="0" type="line"/>
      <point x="432" y="268" type="line"/>
      <point x="470" y="329" type="line" smooth="yes"/>
      <point x="497" y="372"/>
      <point x="517" y="397"/>
      <point x="572" y="413" type="curve"/>
    </contour>
  </outline>
</glyph>
<glyph name="em-cy" format="2">
  <advance width="660"/>
  <unicode hex="043C"/>
  <anchor x="292.476" y="0" name="bottom"/>
  <anchor x="623" y="0" name="bottomright"/>
  <anchor x="367.524" y="534" name="top"/>
  <outline>
    <contour>
      <point x="642" y="534" type="line"/>
      <point x="418" y="534" type="line"/>
      <point x="322" y="214" type="line"/>
      <point x="313" y="534" type="line"/>
      <point x="91" y="534" type="line"/>
      <point x="-27" y="0" type="line"/>
      <point x="155" y="0" type="line"/>
      <point x="180" y="153" type="line" smooth="yes"/>
      <point x="193" y="229"/>
      <point x="201" y="290"/>
      <point x="200" y="381" type="curve"/>
      <point x="222" y="51" type="line"/>
      <point x="377" y="51" type="line"/>
      <point x="490" y="379" type="line"/>
      <point x="463" y="284"/>
      <point x="456" y="241"/>
      <point x="447" y="155" type="curve" smooth="yes"/>
      <point x="430" y="0" type="line"/>
      <point x="613" y="0" type="line"/>
    </contour>
  </outline>
</glyph>
<glyph name="en-cy" format="2">
  <advance width="570"/>
  <unicode hex="043D"/>
  <anchor x="248" y="0" name="bottom"/>
  <anchor x="502" y="0" name="bottomright"/>
  <anchor x="322" y="534" name="top"/>
  <outline>
    <contour>
      <point x="298" y="0" type="line"/>
      <point x="492" y="0" type="line"/>
      <point x="566" y="534" type="line"/>
      <point x="372" y="534" type="line"/>
      <point x="346" y="341" type="line"/>
      <point x="246" y="341" type="line"/>
      <point x="272" y="534" type="line"/>
      <point x="78" y="534" type="line"/>
      <point x="4" y="0" type="line"/>
      <point x="198" y="0" type="line"/>
      <point x="226" y="199" type="line"/>
      <point x="326" y="199" type="line"/>
    </contour>
  </outline>
</glyph>
<glyph name="pe-cy" format="2">
  <advance width="566"/>
  <unicode hex="043F"/>
  <anchor x="245.476" y="0" name="bottom"/>
  <anchor x="498" y="0" name="bottomright"/>
  <anchor x="320.524" y="534" name="top"/>
  <outline>
    <contour>
      <point x="294" y="0" type="line"/>
      <point x="488" y="0" type="line"/>
      <point x="562" y="534" type="line"/>
      <point x="78" y="534" type="line"/>
      <point x="4" y="0" type="line"/>
      <point x="198" y="0" type="line"/>
      <point x="252" y="391" type="line"/>
      <point x="348" y="391" type="line"/>
    </contour>
  </outline>
</glyph>
<glyph name="hardsign-cy" format="2">
  <advance width="609"/>
  <unicode hex="044A"/>
  <anchor x="314.476" y="0.0" name="bottom"/>
  <anchor x="389.524" y="534.0" name="top"/>
  <outline>
    <contour>
      <point x="154" y="395" type="line"/>
      <point x="367" y="534" type="line"/>
      <point x="32" y="534" type="line"/>
      <point x="12" y="395" type="line"/>
    </contour>
    <component base="softsign-cy" xOffset="95"/>
  </outline>
</glyph>
<glyph name="yeru-cy" format="2">
  <advance width="762"/>
  <unicode hex="044B"/>
  <anchor x="343.476" y="0" name="bottom"/>
  <anchor x="418" y="534" name="top"/>
  <outline>
    <contour>
      <point x="758" y="534" type="line"/>
      <point x="564" y="534" type="line"/>
      <point x="490" y="0" type="line"/>
      <point x="684" y="0" type="line"/>
    </contour>
    <contour>
      <point x="266" y="371" type="curve" smooth="yes"/>
      <point x="249.394" y="371" type="line"/>
      <point x="272" y="534" type="line"/>
      <point x="78" y="534" type="line"/>
      <point x="7" y="18" type="line"/>
      <point x="86" y="-7"/>
      <point x="151" y="-20"/>
      <point x="231" y="-20" type="curve" smooth="yes"/>
      <point x="430" y="-20"/>
      <point x="491" y="111"/>
      <point x="491" y="203" type="curve" smooth="yes"/>
      <point x="491" y="317"/>
      <point x="417" y="371"/>
    </contour>
    <contour>
      <point x="237" y="103" type="curve" smooth="yes"/>
      <point x="229" y="103"/>
      <point x="223" y="104"/>
      <point x="214" y="107" type="curve"/>
      <point x="232.752" y="251" type="line"/>
      <point x="248" y="251" type="line" smooth="yes"/>
      <point x="285" y="251"/>
      <point x="298" y="232"/>
      <point x="298" y="197" type="curve" smooth="yes"/>
      <point x="298" y="161"/>
      <point x="285" y="103"/>
    </contour>
  </outline>
</glyph>
<glyph name="ereversed-cy" format="2">
  <advance width="476"/>
  <unicode hex="044D"/>
  <anchor x="199.976" y="0" name="bottom"/>
  <anchor x="256" y="534" name="top"/>
  <outline>
    <contour>
      <point x="153" y="-20" type="curve" smooth="yes"/>
      <point x="348" y="-20"/>
      <point x="461" y="118"/>
      <point x="461" y="314" type="curve" smooth="yes"/>
      <point x="461" y="456"/>
      <point x="378" y="554"/>
      <point x="231" y="554" type="curve" smooth="yes"/>
      <point x="155" y="554"/>
      <point x="92" y="532"/>
      <point x="34" y="489" type="curve"/>
      <point x="103" y="381" type="line"/>
      <point x="139" y="404"/>
      <point x="168" y="414"/>
      <point x="203" y="414" type="curve" smooth="yes"/>
      <point x="244" y="414"/>
      <point x="270" y="390"/>
      <point x="270" y="340" type="curve" smooth="yes"/>
      <point x="270" y="328"/>
      <point x="270" y="332"/>
      <point x="265" y="270" type="curve"/>
      <point x="262" y="243" type="line"/>
      <point x="253" y="149"/>
      <point x="200" y="120"/>
      <point x="151" y="120" type="curve" smooth="yes"/>
      <point x="120" y="120"/>
      <point x="94" y="127"/>
      <point x="61" y="153" type="curve"/>
      <point x="-32" y="47" type="line"/>
      <point x="17" y="5"/>
      <point x="76" y="-20"/>
    </contour>
    <contour>
      <point x="85" y="219" type="line"/>
      <point x="274" y="219" type="line"/>
      <point x="285" y="323" type="line"/>
      <point x="100" y="323" type="line"/>
    </contour>
  </outline>
</glyph>
<glyph name="ia-cy" format="2">
  <advance width="548"/>
  <unicode hex="044F"/>
  <anchor x="236.476" y="0" name="bottom"/>
  <anchor x="311.524" y="534" name="top"/>
  <outline>
    <contour>
      <point x="318" y="554" type="curve" smooth="yes"/>
      <point x="103" y="554"/>
      <point x="39" y="440"/>
      <point x="39" y="350" type="curve" smooth="yes"/>
      <point x="39" y="296.002"/>
      <point x="64.713" y="250.819"/>
      <point x="103" y="219" type="curve"/>
      <point x="-53" y="0" type="line"/>
      <point x="166" y="0" type="line"/>
      <point x="272.481" y="175" type="line"/>
      <point x="300.883" y="175" type="line"/>
      <point x="276" y="0" type="line"/>
      <point x="470" y="0" type="line"/>
      <point x="543" y="529" type="line"/>
      <point x="478" y="544"/>
      <point x="401" y="554"/>
    </contour>
    <contour>
      <point x="316" y="431" type="curve" smooth="yes"/>
      <point x="323" y="431"/>
      <point x="331" y="430"/>
      <point x="337" y="429" type="curve"/>
      <point x="316.24" y="283" type="line"/>
      <point x="289" y="283" type="line" smooth="yes"/>
      <point x="253" y="283"/>
      <point x="238" y="305"/>
      <point x="238" y="344" type="curve" smooth="yes"/>
      <point x="238" y="393"/>
      <point x="263" y="431"/>
    </contour>
  </outline>
</glyph>
<glyph name="dzhe-cy" format="2">
  <advance width="554"/>
  <unicode hex="045F"/>
  <anchor x="251" y="0" name="bottom"/>
  <anchor x="486" y="0" name="bottomright"/>
  <anchor x="484" y="0" name="ogonek"/>
  <anchor x="312" y="534" name="top"/>
  <anchor x="560" y="534" name="topright"/>
  <outline>
    <contour>
      <point x="78" y="66" type="line"/>
      <point x="66" y="-175" type="line"/>
      <point x="192" y="-175" type="line"/>
      <point x="219" y="44" type="line"/>
    </contour>
    <component base="u"/>
  </outline>
</glyph>
<glyph name="Eiotified-cy" format="2">
  <advance width="870"/>
  <unicode hex="0464"/>
  <anchor x="397.476" y="0" name="bottom"/>
  <anchor x="495.292" y="696" name="top"/>
  <outline>
    <contour>
      <point x="306" y="696" type="line"/>
      <point x="104" y="696" type="line"/>
      <point x="7" y="0" type="line"/>
      <point x="209" y="0" type="line"/>
      <point x="248" y="281" type="line"/>
      <point x="374" y="281" type="line"/>
      <point x="396" y="429" type="line"/>
      <point x="270" y="429" type="line"/>
    </contour>
    <component base="E-cy" xOffset="304"/>
  </outline>
</glyph>
<glyph name="eiotified-cy" format="2">
  <advance width="748"/>
  <unicode hex="0465"/>
  <anchor x="336.476" y="0" name="bottom"/>
  <anchor x="411.524" y="534" name="top"/>
  <outline>
    <contour>
      <point x="274" y="534" type="line"/>
      <point x="78" y="534" type="line"/>
      <point x="5" y="0" type="line"/>
      <point x="200" y="0" type="line"/>
      <point x="230" y="216" type="line"/>
      <point x="305" y="216" type="line"/>
      <point x="316" y="327" type="line"/>
      <point x="245" y="327" type="line"/>
    </contour>
    <component base="e-cy" xOffset="269"/>
  </outline>
</glyph>
<glyph name="yuslittle-cy" format="2">
  <advance width="594"/>
  <unicode hex="0467"/>
  <anchor x="259.476" y="0" name="bottom"/>
  <anchor x="334.524" y="534" name="top"/>
  <outline>
    <contour>
      <point x="440" y="534" type="line"/>
      <point x="224" y="534" type="line"/>
      <point x="-55" y="0" type="line"/>
      <point x="126" y="0" type="line"/>
      <point x="318" y="440" type="line"/>
      <point x="390" y="0" type="line"/>
      <point x="571" y="0" type="line"/>
    </contour>
    <contour>
      <point x="390" y="298" type="line"/>
      <point x="205" y="298" type="line"/>
      <point x="189" y="178" type="line"/>
      <point x="374" y="178" type="line"/>
    </contour>
    <contour>
      <point x="223" y="188" type="line"/>
      <point x="197" y="0" type="line"/>
      <point x="320" y="0" type="line"/>
      <point x="346" y="188" type="line"/>
    </contour>
  </outline>
</glyph>
<glyph name="Yuslittleiotified-cy" format="2">
  <advance width="937"/>
  <unicode hex="0468"/>
  <anchor x="430.976" y="0" name="bottom"/>
  <anchor x="528.792" y="696" name="top"/>
  <outline>
    <contour>
      <point x="463" y="239" type="line"/>
      <point x="483" y="382" type="line"/>
      <point x="262" y="382" type="line"/>
      <point x="306" y="696" type="line"/>
      <point x="104" y="696" type="line"/>
      <point x="7" y="0" type="line"/>
      <point x="209" y="0" type="line"/>
      <point x="242" y="239" type="line"/>
    </contour>
    <component base="Yuslittle-cy" xScale="0.98" xOffset="286"/>
  </outline>
</glyph>
<glyph name="Yusbig-cy" format="2">
  <advance width="822"/>
  <unicode hex="046A"/>
  <anchor x="373.476" y="0" name="bottom"/>
  <anchor x="471.292" y="696" name="top"/>
  <outline>
    <contour>
      <point x="-54" y="0" type="line"/>
      <point x="153" y="0" type="line"/>
      <point x="287" y="248" type="line"/>
      <point x="318" y="248" type="line"/>
      <point x="284" y="0" type="line"/>
      <point x="466" y="0" type="line"/>
      <point x="500" y="248" type="line"/>
      <point x="531" y="248" type="line"/>
      <point x="599" y="0" type="line"/>
      <point x="800" y="0" type="line"/>
      <point x="688" y="387" type="line"/>
      <point x="166" y="387" type="line"/>
    </contour>
    <contour>
      <point x="294" y="319" type="line"/>
      <point x="558" y="320" type="line"/>
      <point x="765" y="576" type="line"/>
      <point x="781" y="696" type="line"/>
      <point x="646" y="696" type="line"/>
      <point x="431" y="387" type="line"/>
      <point x="286" y="696" type="line"/>
      <point x="152" y="696" type="line"/>
      <point x="136" y="576" type="line"/>
    </contour>
    <contour>
      <point x="269" y="563" type="line"/>
      <point x="650" y="563" type="line"/>
      <point x="669" y="696" type="line"/>
      <point x="261" y="696" type="line"/>
    </contour>
  </outline>
</glyph>
<glyph name="Gheupturn-cy" format="2">
  <advance width="500"/>
  <unicode hex="0490"/>
  <anchor x="212.476" y="0.0" name="bottom"/>
  <anchor x="217" y="0" name="bottomright"/>
  <anchor x="341" y="696" name="top"/>
  <outline>
    <contour>
      <point x="380" y="686" type="line"/>
      <point x="565" y="696" type="line"/>
      <point x="587" y="854" type="line"/>
      <point x="403" y="854" type="line"/>
    </contour>
    <component base="Ge-cy"/>
  </outline>
</glyph>
<glyph name="gheupturn-cy" format="2">
  <advance width="435"/>
  <unicode hex="0491"/>
  <anchor x="208" y="0" name="bottomright"/>
  <outline>
    <contour>
      <point x="302" y="524" type="line"/>
      <point x="474" y="534" type="line"/>
      <point x="497" y="696" type="line"/>
      <point x="326" y="696" type="line"/>
    </contour>
    <contour>
      <point x="198" y="0" type="line"/>
      <point x="252" y="387" type="line"/>
      <point x="431" y="387" type="line"/>
      <point x="474" y="534" type="line"/>
      <point x="78" y="534" type="line"/>
      <point x="4" y="0" type="line"/>
    </contour>
  </outline>
</glyph>
<glyph name="Ghestroke-cy" format="2">
  <advance width="507"/>
  <unicode hex="0492"/>
  <anchor x="219.476" y="0.0" name="bottom"/>
  <anchor x="225" y="0" name="bottomright"/>
  <anchor x="348" y="696" name="top"/>
  <outline>
    <contour>
      <point x="407" y="433" type="line"/>
      <point x="9" y="433" type="line"/>
      <point x="-7" y="317" type="line"/>
      <point x="58" y="317" type="line"/>
      <point x="390" y="317" type="line"/>
    </contour>
    <component base="Ge-cy" xOffset="7"/>
  </outline>
</glyph>
<glyph name="Ghemiddlehook-cy" format="2">
  <advance width="628"/>
  <unicode hex="0494"/>
  <anchor x="374.292" y="696" name="top"/>
  <outline>
    <contour>
      <point x="525" y="696" type="line"/>
      <point x="259" y="696" type="line"/>
      <point x="234" y="543" type="line"/>
      <point x="505" y="543" type="line"/>
    </contour>
    <contour>
      <point x="413" y="461" type="curve" smooth="yes"/>
      <point x="350" y="461"/>
      <point x="301" y="442"/>
      <point x="254" y="405" type="curve"/>
      <point x="238" y="277" type="line"/>
      <point x="263" y="299"/>
      <point x="293" y="315"/>
      <point x="338" y="315" type="curve" smooth="yes"/>
      <point x="392" y="315"/>
      <point x="408" y="283"/>
      <point x="398" y="206" type="curve" smooth="yes"/>
      <point x="370" y="0" type="line"/>
      <point x="572" y="0" type="line"/>
      <point x="600" y="204" type="line" smooth="yes"/>
      <point x="622" y="362"/>
      <point x="558" y="461"/>
    </contour>
    <contour>
      <point x="306" y="696" type="line"/>
      <point x="104" y="696" type="line"/>
      <point x="8" y="0" type="line"/>
      <point x="210" y="0" type="line"/>
    </contour>
    <component base="hookHELPER.case" xOffset="195"/>
  </outline>
</glyph>
<glyph name="kaverticalstroke-cy" format="2">
  <advance width="590"/>
  <unicode hex="049D"/>
  <anchor x="257.476" y="0" name="bottom"/>
  <anchor x="332.524" y="534" name="top"/>
  <outline>
    <contour>
      <point x="460" y="268" type="line"/>
      <point x="496" y="329" type="line" smooth="yes"/>
      <point x="522" y="372"/>
      <point x="537" y="397"/>
      <point x="592" y="413" type="curve"/>
      <point x="542" y="554" type="line"/>
      <point x="443" y="535"/>
      <point x="400" y="507"/>
      <point x="368" y="442" type="curve" smooth="yes"/>
      <point x="313" y="329" type="line"/>
      <point x="299.094" y="329" type="line"/>
      <point x="314" y="435" type="line"/>
      <point x="268" y="435" type="line"/>
      <point x="253.094" y="329" type="line"/>
      <point x="231.592" y="329" type="line"/>
      <point x="260" y="534" type="line"/>
      <point x="78" y="534" type="line"/>
      <point x="4" y="0" type="line"/>
      <point x="186" y="0" type="line"/>
      <point x="216.348" y="219" type="line"/>
      <point x="237.625" y="219" type="line"/>
      <point x="223" y="115" type="line"/>
      <point x="269" y="115" type="line"/>
      <point x="283.625" y="219" type="line"/>
      <point x="298" y="219" type="line"/>
      <point x="346" y="0" type="line"/>
      <point x="543" y="0" type="line"/>
    </contour>
  </outline>
</glyph>
<glyph name="Kastroke-cy" format="2">
  <advance width="644"/>
  <unicode hex="049E"/>
  <anchor x="288.976" y="0.0" name="bottom"/>
  <anchor x="588" y="0" name="bottomright"/>
  <anchor x="397" y="696" name="top"/>
  <outline>
    <contour>
      <point x="365" y="625" type="line"/>
      <point x="102" y="625" type="line"/>
      <point x="54" y="625" type="line"/>
      <point x="38" y="509" type="line"/>
      <point x="349" y="509" type="line"/>
    </contour>
    <component base="Ka-cy" xOffset="9"/>
  </outline>
</glyph>
<glyph name="Kabashkir-cy" format="2">
  <advance width="738"/>
  <unicode hex="04A0"/>
  <anchor x="382.976" y="0.0" name="bottom"/>
  <anchor x="682" y="0" name="bottomright"/>
  <anchor x="491" y="696" name="top"/>
  <outline>
    <contour>
      <point x="408" y="696" type="line"/>
      <point x="60" y="696" type="line"/>
      <point x="39" y="546" type="line"/>
      <point x="275" y="546" type="line"/>
    </contour>
    <component base="Ka-cy" xOffset="103"/>
  </outline>
</glyph>
<glyph name="kabashkir-cy" format="2">
  <advance width="660"/>
  <unicode hex="04A1"/>
  <anchor x="339.976" y="0.0" name="bottom"/>
  <anchor x="587" y="0" name="bottomright"/>
  <anchor x="421" y="534" name="top"/>
  <outline>
    <contour>
      <point x="154" y="395" type="line"/>
      <point x="367" y="534" type="line"/>
      <point x="32" y="534" type="line"/>
      <point x="12" y="395" type="line"/>
    </contour>
    <component base="ka-cy" xOffset="95"/>
  </outline>
</glyph>
<glyph name="Enghe-cy" format="2">
  <advance width="763"/>
  <unicode hex="04A4"/>
  <anchor x="284" y="0" name="bottom"/>
  <anchor x="574" y="0" name="bottomright"/>
  <anchor x="334" y="348" name="center"/>
  <anchor x="382" y="696" name="top"/>
  <anchor x="104" y="696" name="topleft"/>
  <outline>
    <contour>
      <point x="460" y="696" type="line"/>
      <point x="588" y="546" type="line"/>
      <point x="802" y="546" type="line"/>
      <point x="822" y="696" type="line"/>
    </contour>
    <component base="H"/>
  </outline>
</glyph>
<glyph name="enghe-cy" format="2">
  <advance width="648"/>
  <unicode hex="04A5"/>
  <anchor x="248" y="0" name="bottom"/>
  <anchor x="502" y="0" name="bottomright"/>
  <anchor x="322" y="534" name="top"/>
  <outline>
    <contour>
      <point x="510" y="395" type="line"/>
      <point x="672" y="395" type="line"/>
      <point x="692" y="534" type="line"/>
      <point x="483" y="534" type="line"/>
    </contour>
    <component base="en-cy"/>
  </outline>
</glyph>
<glyph name="Pemiddlehook-cy" format="2">
  <advance width="989"/>
  <unicode hex="04A6"/>
  <anchor x="285.976" y="0.0" name="bottom"/>
  <anchor x="576" y="0" name="bottomright"/>
  <anchor x="554.792" y="696" name="top"/>
  <outline>
    <contour>
      <point x="777" y="481" type="curve" smooth="yes"/>
      <point x="714" y="481"/>
      <point x="665" y="462"/>
      <point x="618" y="425" type="curve"/>
      <point x="602" y="297" type="line"/>
      <point x="627" y="319"/>
      <point x="657" y="335"/>
      <point x="702" y="335" type="curve" smooth="yes"/>
      <point x="756" y="335"/>
      <point x="773" y="303"/>
      <point x="762" y="226" type="curve" smooth="yes"/>
      <point x="731" y="0" type="line"/>
      <point x="933" y="0" type="line"/>
      <point x="964" y="224" type="line" smooth="yes"/>
      <point x="986" y="382"/>
      <point x="922" y="481"/>
    </contour>
    <component base="Pe-cy" xOffset="1"/>
    <component base="hookHELPER.case" xOffset="556"/>
  </outline>
</glyph>
<glyph name="pemiddlehook-cy" format="2">
  <advance width="834"/>
  <unicode hex="04A7"/>
  <anchor x="245.476" y="0.0" name="bottom"/>
  <anchor x="498" y="0" name="bottomright"/>
  <anchor x="454.524" y="534" name="top"/>
  <outline>
    <contour>
      <point x="582" y="0" type="line"/>
      <point x="776" y="0" type="line"/>
      <point x="803" y="193" type="line" smooth="yes"/>
      <point x="817" y="295"/>
      <point x="770" y="354"/>
      <point x="682" y="354" type="curve" smooth="yes"/>
      <point x="614" y="354"/>
      <point x="561" y="328"/>
      <point x="500" y="275" type="curve"/>
      <point x="510" y="166" type="line"/>
      <point x="537" y="192"/>
      <point x="562" y="210"/>
      <point x="584" y="210" type="curve" smooth="yes"/>
      <point x="600" y="210"/>
      <point x="610" y="201"/>
      <point x="603" y="159" type="curve" smooth="yes"/>
    </contour>
    <component base="pe-cy"/>
    <component base="hookHELPER" xOffset="415"/>
  </outline>
</glyph>
<glyph name="Ustraitstroke-cy" format="2">
  <advance width="608"/>
  <unicode hex="04B0"/>
  <anchor x="267" y="0" name="bottom"/>
  <anchor x="364" y="696" name="top"/>
  <anchor x="46" y="696" name="topleft"/>
  <outline>
    <contour>
      <point x="521" y="320" type="line"/>
      <point x="213" y="320" type="line"/>
      <point x="105" y="320" type="line"/>
      <point x="90" y="214" type="line"/>
      <point x="398" y="214" type="line"/>
      <point x="506" y="214" type="line"/>
    </contour>
    <component base="Y"/>
  </outline>
</glyph>
<glyph name="ustraitstroke-cy" format="2">
  <advance width="514"/>
  <unicode hex="04B1"/>
  <outline>
    <contour>
      <point x="337" y="90" type="line"/>
      <point x="567" y="534" type="line"/>
      <point x="369" y="534" type="line"/>
      <point x="245" y="170" type="line"/>
      <point x="234" y="534" type="line"/>
      <point x="21" y="534" type="line"/>
      <point x="128" y="90" type="line"/>
      <point x="49" y="90" type="line"/>
      <point x="35" y="-10" type="line"/>
      <point x="124.59" y="-10" type="line"/>
      <point x="94" y="-227" type="line"/>
      <point x="284" y="-207" type="line"/>
      <point x="312.551" y="-10" type="line"/>
      <point x="403" y="-10" type="line"/>
      <point x="417" y="90" type="line"/>
    </contour>
  </outline>
</glyph>
<glyph name="Tetse-cy" format="2">
  <advance width="805"/>
  <unicode hex="04B4"/>
  <anchor x="417" y="0" name="bottom"/>
  <anchor x="703" y="0" name="bottomright"/>
  <anchor x="462.792" y="696" name="top"/>
  <outline>
    <contour>
      <point x="548" y="696" type="line"/>
      <point x="66" y="696" type="line"/>
      <point x="43" y="546" type="line"/>
      <point x="215" y="546" type="line"/>
      <point x="419" y="546" type="line"/>
      <point x="507" y="546" type="line"/>
    </contour>
    <component base="Tse-cy" xOffset="133"/>
  </outline>
</glyph>
<glyph name="tetse-cy" format="2">
  <advance width="686"/>
  <unicode hex="04B5"/>
  <anchor x="571" y="0" name="_bottom"/>
  <anchor x="334" y="0" name="bottom"/>
  <anchor x="569" y="0" name="bottomright"/>
  <anchor x="567" y="0" name="ogonek"/>
  <anchor x="380.524" y="534" name="top"/>
  <anchor x="643" y="534" name="topright"/>
  <outline>
    <contour>
      <point x="405" y="534" type="line"/>
      <point x="17" y="534" type="line"/>
      <point x="-5" y="395" type="line"/>
      <point x="136" y="395" type="line"/>
      <point x="331" y="395" type="line"/>
      <point x="368" y="395" type="line"/>
    </contour>
    <component base="tse-cy" xOffset="83"/>
  </outline>
</glyph>
<glyph name="Cheverticalstroke-cy" format="2">
  <advance width="611"/>
  <unicode hex="04B8"/>
  <anchor x="267.976" y="0.0" name="bottom"/>
  <anchor x="310" y="0" name="bottomleft"/>
  <anchor x="541" y="0" name="bottomright"/>
  <anchor x="347" y="696" name="top"/>
  <outline>
    <contour>
      <point x="367" y="555" type="line"/>
      <point x="302" y="555" type="line"/>
      <point x="242" y="125" type="line"/>
      <point x="307" y="125" type="line"/>
    </contour>
    <component base="Che-cy"/>
  </outline>
</glyph>
<glyph name="cheverticalstroke-cy" format="2">
  <advance width="538"/>
  <unicode hex="04B9"/>
  <anchor x="231.476" y="0.0" name="bottom"/>
  <anchor x="365" y="0" name="bottomleft"/>
  <anchor x="470" y="0" name="bottomright"/>
  <anchor x="293" y="534" name="top"/>
  <outline>
    <contour>
      <point x="296" y="402" type="line"/>
      <point x="249" y="402" type="line"/>
      <point x="204" y="82" type="line"/>
      <point x="252" y="82" type="line"/>
    </contour>
    <component base="che-cy"/>
  </outline>
</glyph>
<glyph name="cheabkhasian-cy" format="2">
  <advance width="683"/>
  <unicode hex="04BD"/>
  <anchor x="391" y="0" name="bottom"/>
  <anchor x="552" y="11" name="ogonek"/>
  <anchor x="456" y="534" name="top"/>
  <outline>
    <contour>
      <point x="207" y="309" type="line"/>
      <point x="170" y="309" type="line" smooth="yes"/>
      <point x="147" y="309"/>
      <point x="135" y="321"/>
      <point x="135" y="340" type="curve" smooth="yes"/>
      <point x="135" y="368"/>
      <point x="148" y="390"/>
      <point x="157" y="406" type="curve"/>
      <point x="52" y="450" type="line"/>
      <point x="31" y="422"/>
      <point x="-2" y="374"/>
      <point x="-2" y="313" type="curve" smooth="yes"/>
      <point x="-2" y="236"/>
      <point x="51" y="188"/>
      <point x="165" y="188" type="curve" smooth="yes"/>
      <point x="190" y="188" type="line"/>
    </contour>
    <component base="e" xOffset="140"/>
  </outline>
</glyph>
<glyph name="kahook-cy" format="2">
  <advance width="564"/>
  <unicode hex="04C4"/>
  <anchor x="319.524" y="534" name="top"/>
  <outline>
    <contour>
      <point x="575" y="413" type="curve"/>
      <point x="525" y="554" type="line"/>
      <point x="457" y="543"/>
      <point x="400" y="519"/>
      <point x="358" y="452" type="curve" smooth="yes"/>
      <point x="277" y="321" type="line"/>
      <point x="243" y="321" type="line"/>
      <point x="272" y="534" type="line"/>
      <point x="78" y="534" type="line"/>
      <point x="4" y="0" type="line"/>
      <point x="198" y="0" type="line"/>
      <point x="227" y="211" type="line"/>
      <point x="296" y="210" type="line"/>
      <point x="429" y="270" type="line"/>
      <point x="460" y="320" type="line" smooth="yes"/>
      <point x="487" y="363"/>
      <point x="517" y="401"/>
    </contour>
    <contour>
      <point x="374" y="322" type="curve"/>
      <point x="297" y="210" type="line"/>
      <point x="324" y="210"/>
      <point x="334" y="198"/>
      <point x="329" y="169" type="curve" smooth="yes"/>
      <point x="306" y="0" type="line"/>
      <point x="500" y="0" type="line"/>
      <point x="522" y="161" type="line" smooth="yes"/>
      <point x="537" y="263"/>
      <point x="490" y="322"/>
    </contour>
    <component base="hookHELPER" xOffset="139"/>
  </outline>
</glyph>
<glyph name="Chekhakassian-cy" format="2">
  <advance width="612"/>
  <unicode hex="04CB"/>
  <anchor x="267.976" y="0" name="bottom"/>
  <anchor x="310" y="0" name="bottomleft"/>
  <anchor x="541" y="0" name="bottomright"/>
  <anchor x="347" y="696" name="top"/>
  <outline>
    <contour>
      <point x="218" y="205" type="curve" smooth="yes"/>
      <point x="280" y="205"/>
      <point x="330" y="224"/>
      <point x="377" y="263" type="curve"/>
      <point x="392" y="390" type="line"/>
      <point x="368" y="366"/>
      <point x="341" y="351"/>
      <point x="296" y="351" type="curve" smooth="yes"/>
      <point x="239" y="351"/>
      <point x="223" y="383"/>
      <point x="233" y="450" type="curve" smooth="yes"/>
      <point x="268" y="696" type="line"/>
      <point x="70" y="696" type="line"/>
      <point x="35" y="452" type="line" smooth="yes"/>
      <point x="14" y="304"/>
      <point x="77" y="205"/>
    </contour>
    <contour>
      <point x="201" y="-175" type="line"/>
      <point x="335" y="-175" type="line"/>
      <point x="394" y="0" type="line"/>
      <point x="446" y="0" type="line"/>
      <point x="426" y="144" type="line"/>
      <point x="245" y="144" type="line"/>
    </contour>
    <contour>
      <point x="329" y="0" type="line"/>
      <point x="531" y="0" type="line"/>
      <point x="628" y="696" type="line"/>
      <point x="426" y="696" type="line"/>
    </contour>
  </outline>
</glyph>
<glyph name="chekhakassian-cy" format="2">
  <advance width="538"/>
  <unicode hex="04CC"/>
  <anchor x="231.476" y="0" name="bottom"/>
  <anchor x="365" y="0" name="bottomleft"/>
  <anchor x="470" y="0" name="bottomright"/>
  <anchor x="306.524" y="534" name="top"/>
  <outline>
    <contour>
      <point x="534" y="534" type="line"/>
      <point x="340" y="534" type="line"/>
      <point x="313" y="343" type="line"/>
      <point x="297" y="326"/>
      <point x="272" y="311"/>
      <point x="251" y="311" type="curve" smooth="yes"/>
      <point x="227" y="311"/>
      <point x="215" y="325"/>
      <point x="221" y="365" type="curve" smooth="yes"/>
      <point x="245" y="534" type="line"/>
      <point x="51" y="534" type="line"/>
      <point x="26" y="345" type="line" smooth="yes"/>
      <point x="11" y="229"/>
      <point x="49" y="165"/>
      <point x="154" y="167" type="curve" smooth="yes"/>
      <point x="206" y="168"/>
      <point x="254" y="182"/>
      <point x="294" y="210" type="curve"/>
      <point x="266" y="0" type="line"/>
      <point x="460" y="0" type="line"/>
    </contour>
    <contour>
      <point x="155" y="-175" type="line"/>
      <point x="283" y="-175" type="line"/>
      <point x="345" y="0" type="line"/>
      <point x="401" y="0" type="line"/>
      <point x="414" y="132" type="line"/>
      <point x="199" y="132" type="line"/>
    </contour>
  </outline>
</glyph>
<glyph name="obarred-cy" format="2">
  <advance width="575"/>
  <unicode hex="04E9"/>
  <anchor x="250" y="0" name="bottom"/>
  <anchor x="316" y="534" name="top"/>
  <outline>
    <contour>
      <point x="325" y="554" type="curve" smooth="yes"/>
      <point x="91" y="554"/>
      <point x="13" y="370"/>
      <point x="13" y="211" type="curve" smooth="yes"/>
      <point x="13" y="66"/>
      <point x="102" y="-20"/>
      <point x="249" y="-20" type="curve" smooth="yes"/>
      <point x="483" y="-20"/>
      <point x="561" y="165"/>
      <point x="562" y="323" type="curve" smooth="yes"/>
      <point x="563" y="465"/>
      <point x="473" y="554"/>
    </contour>
    <contour>
      <point x="309" y="412" type="curve" smooth="yes"/>
      <point x="346" y="412"/>
      <point x="370" y="390"/>
      <point x="369" y="334" type="curve" smooth="yes"/>
      <point x="369" y="329"/>
      <point x="369" y="327"/>
      <point x="369" y="321" type="curve"/>
      <point x="219" y="321" type="line"/>
      <point x="232" y="373"/>
      <point x="259" y="412"/>
    </contour>
    <contour>
      <point x="265" y="122" type="curve" smooth="yes"/>
      <point x="229" y="122"/>
      <point x="206" y="144"/>
      <point x="206" y="201" type="curve" smooth="yes"/>
      <point x="206" y="208"/>
      <point x="206" y="214"/>
      <point x="206" y="221" type="curve"/>
      <point x="358" y="221" type="line"/>
      <point x="345" y="165"/>
      <point x="318" y="122"/>
    </contour>
  </outline>
</glyph>
<glyph name="gedescender-cy" format="2">
  <advance width="481"/>
  <unicode hex="04F7"/>
  <anchor x="202.976" y="0.0" name="bottom"/>
  <anchor x="279" y="534" name="top"/>
  <outline>
    <contour>
      <point x="140" y="66" type="line"/>
      <point x="128" y="-175" type="line"/>
      <point x="254" y="-175" type="line"/>
      <point x="281" y="44" type="line"/>
    </contour>
    <component base="ge-cy"/>
  </outline>
</glyph>
<glyph name="Gestrokehook-cy" format="2">
  <advance width="507"/>
  <unicode hex="04FA"/>
  <anchor x="219.476" y="0.0" name="bottom"/>
  <anchor x="225" y="0" name="bottomright"/>
  <anchor x="348" y="696" name="top"/>
  <outline>
    <contour>
      <point x="45" y="154" type="line"/>
      <point x="23" y="0" type="line"/>
      <point x="304" y="0" type="line"/>
      <point x="326" y="154" type="line"/>
    </contour>
    <component base="Ghestroke-cy"/>
    <component base="hookHELPER.case" xOffset="-73"/>
  </outline>
</glyph>
<glyph name="Hahook-cy" format="2">
  <advance width="630"/>
  <unicode hex="04FC"/>
  <anchor x="258" y="0" name="bottom"/>
  <anchor x="507" y="0" name="bottomright"/>
  <anchor x="356" y="696" name="top"/>
  <outline>
    <contour>
      <point x="611" y="154" type="line"/>
      <point x="411" y="154" type="line"/>
      <point x="390" y="0" type="line"/>
      <point x="592" y="0" type="line"/>
    </contour>
    <component base="hookHELPER.case" xOffset="215"/>
    <component base="X"/>
  </outline>
</glyph>
<glyph name="hahook-cy" format="2">
  <advance width="545"/>
  <unicode hex="04FD"/>
  <anchor x="219" y="0" name="bottom"/>
  <anchor x="431" y="0" name="bottomright"/>
  <anchor x="310.024" y="534" name="top"/>
  <outline>
    <contour>
      <point x="324" y="142" type="line"/>
      <point x="304" y="0" type="line"/>
      <point x="512" y="0" type="line"/>
      <point x="528" y="142" type="line"/>
    </contour>
    <component base="hookHELPER" xOffset="151"/>
    <component base="x"/>
  </outline>
</glyph>
<glyph name="Hastroke-cy" format="2">
  <advance width="594"/>
  <unicode hex="04FE"/>
  <anchor x="259.476" y="0" name="bottom"/>
  <anchor x="508" y="0" name="bottomright"/>
  <anchor x="357.292" y="696" name="top"/>
  <outline>
    <contour>
      <point x="278" y="696" type="line"/>
      <point x="63" y="696" type="line"/>
      <point x="187" y="369" type="line"/>
      <point x="293" y="269" type="line"/>
      <point x="351" y="0" type="line"/>
      <point x="567" y="0" type="line"/>
      <point x="429" y="375" type="line"/>
      <point x="324" y="466" type="line"/>
    </contour>
    <contour>
      <point x="650" y="696" type="line"/>
      <point x="435" y="696" type="line"/>
      <point x="324" y="466" type="line"/>
      <point x="186" y="369" type="line"/>
      <point x="-47" y="0" type="line"/>
      <point x="169" y="0" type="line"/>
      <point x="293" y="269" type="line"/>
      <point x="430" y="375" type="line"/>
    </contour>
    <component base="hyphen" xScale="1.5" yScale="0.8" xOffset="-5" yOffset="118"/>
  </outline>
</glyph>
<glyph name="hastroke-cy" format="2">
  <advance width="518"/>
  <unicode hex="04FF"/>
  <anchor x="221.476" y="0" name="bottom"/>
  <anchor x="431" y="0" name="bottomright"/>
  <anchor x="296.524" y="534" name="top"/>
  <outline>
    <contour>
      <point x="244" y="534" type="line"/>
      <point x="30" y="534" type="line"/>
      <point x="141" y="283" type="line"/>
      <point x="245" y="198" type="line"/>
      <point x="286" y="0" type="line"/>
      <point x="499" y="0" type="line"/>
      <point x="379" y="282" type="line"/>
      <point x="271" y="357" type="line"/>
    </contour>
    <contour>
      <point x="545" y="534" type="line"/>
      <point x="341" y="534" type="line"/>
      <point x="271" y="357" type="line"/>
      <point x="141" y="283" type="line"/>
      <point x="-57" y="0" type="line"/>
      <point x="151" y="0" type="line"/>
      <point x="245" y="198" type="line"/>
      <point x="379" y="282" type="line"/>
    </contour>
    <component base="hyphen" xScale="1.3" yScale="0.75" xOffset="-12" yOffset="40"/>
  </outline>
</glyph>
<glyph name="Komizje-cy" format="2">
  <advance width="727"/>
  <unicode hex="0504"/>
  <anchor x="325.976" y="0" name="bottom"/>
  <anchor x="423.792" y="696" name="top"/>
  <outline>
    <contour>
      <point x="421" y="-20" type="curve" smooth="yes"/>
      <point x="621" y="-20"/>
      <point x="709" y="115"/>
      <point x="720" y="380" type="curve"/>
      <point x="527" y="380" type="line"/>
      <point x="522" y="262"/>
      <point x="504" y="122"/>
      <point x="434" y="122" type="curve" smooth="yes"/>
      <point x="411" y="122"/>
      <point x="397" y="133"/>
      <point x="381" y="166" type="curve" smooth="yes"/>
      <point x="322" y="300" type="line"/>
      <point x="136" y="262" type="line"/>
      <point x="187" y="131" type="line" smooth="yes"/>
      <point x="227" y="28"/>
      <point x="294" y="-20"/>
    </contour>
    <contour>
      <point x="57" y="248" type="line"/>
      <point x="252" y="247" type="line"/>
      <point x="394" y="309"/>
      <point x="478" y="371"/>
      <point x="478" y="509" type="curve" smooth="yes"/>
      <point x="478" y="641"/>
      <point x="388" y="696"/>
      <point x="212" y="696" type="curve" smooth="yes"/>
      <point x="80" y="696" type="line"/>
      <point x="61" y="555" type="line"/>
      <point x="189" y="555" type="line" smooth="yes"/>
      <point x="242" y="555"/>
      <point x="271" y="537"/>
      <point x="271" y="488" type="curve" smooth="yes"/>
      <point x="271" y="435"/>
      <point x="240" y="386"/>
      <point x="174" y="386" type="curve" smooth="yes"/>
      <point x="77" y="386" type="line"/>
    </contour>
  </outline>
</glyph>
<glyph name="komidzje-cy" format="2">
  <advance width="454"/>
  <unicode hex="0507"/>
  <anchor x="344.6" y="0" name="_bottom"/>
  <anchor x="264.524" y="534" name="top"/>
  <outline>
    <contour>
      <point x="51" y="172" type="line"/>
      <point x="212" y="172" type="line"/>
      <point x="338" y="197"/>
      <point x="420" y="257"/>
      <point x="420" y="375" type="curve" smooth="yes"/>
      <point x="420" y="487"/>
      <point x="346" y="534"/>
      <point x="204" y="534" type="curve" smooth="yes"/>
      <point x="58" y="534" type="line"/>
      <point x="40" y="402" type="line"/>
      <point x="183" y="402" type="line" smooth="yes"/>
      <point x="218" y="402"/>
      <point x="230" y="389"/>
      <point x="230" y="364" type="curve" smooth="yes"/>
      <point x="230" y="328"/>
      <point x="212" y="298"/>
      <point x="164" y="298" type="curve" smooth="yes"/>
      <point x="68" y="298" type="line"/>
    </contour>
    <contour>
      <point x="308" y="222" type="line"/>
      <point x="141" y="184" type="line"/>
      <point x="207" y="0" type="line"/>
      <point x="411" y="0" type="line"/>
    </contour>
    <component base="descStraight-cy" xScale="0.98" xOffset="227"/>
  </outline>
</glyph>
<glyph name="komitje-cy" format="2">
  <advance width="632"/>
  <unicode hex="050F"/>
  <anchor x="278.476" y="0" name="bottom"/>
  <anchor x="353.524" y="534" name="top"/>
  <outline>
    <contour>
      <point x="326" y="-20" type="curve" smooth="yes"/>
      <point x="526" y="-20"/>
      <point x="611" y="116"/>
      <point x="622" y="355" type="curve"/>
      <point x="429" y="355" type="line"/>
      <point x="424" y="263"/>
      <point x="406" y="122"/>
      <point x="336" y="122" type="curve" smooth="yes"/>
      <point x="310" y="122"/>
      <point x="297" y="141"/>
      <point x="302" y="176" type="curve" smooth="yes"/>
      <point x="335" y="401" type="line"/>
      <point x="462" y="401" type="line"/>
      <point x="500" y="534" type="line"/>
      <point x="16" y="534" type="line"/>
      <point x="-1" y="401" type="line"/>
      <point x="140" y="401" type="line"/>
      <point x="112" y="209" type="line" smooth="yes"/>
      <point x="89" y="50"/>
      <point x="188" y="-20"/>
    </contour>
  </outline>
</glyph>
<glyph name="Lha-cy" format="2">
  <advance width="835"/>
  <unicode hex="0514"/>
  <anchor x="379.976" y="0" name="bottom"/>
  <anchor x="749.86" y="0" name="bottomright"/>
  <anchor x="477.792" y="696" name="top"/>
  <outline>
    <contour>
      <point x="170" y="696" type="line"/>
      <point x="95" y="365" type="line" smooth="yes"/>
      <point x="62" y="208"/>
      <point x="39" y="151"/>
      <point x="-35" y="121" type="curve"/>
      <point x="-6" y="-20" type="line"/>
      <point x="164" y="14"/>
      <point x="232" y="110"/>
      <point x="280" y="347" type="curve" smooth="yes"/>
      <point x="322" y="555" type="line"/>
    </contour>
    <contour>
      <point x="454" y="696" type="line"/>
      <point x="170" y="696" type="line"/>
      <point x="303" y="547" type="line"/>
      <point x="454" y="547" type="line"/>
    </contour>
    <component base="X" xScale="0.98" xOffset="253"/>
  </outline>
</glyph>
<glyph name="lha-cy" format="2">
  <advance width="762"/>
  <unicode hex="0515"/>
  <anchor x="343.476" y="0" name="bottom"/>
  <anchor x="676.38" y="0" name="bottomright"/>
  <anchor x="418.524" y="534" name="top"/>
  <outline>
    <contour>
      <point x="119" y="534" type="line"/>
      <point x="252" y="396" type="line"/>
      <point x="461" y="396" type="line"/>
      <point x="461" y="534" type="line"/>
    </contour>
    <contour>
      <point x="269" y="397" type="line"/>
      <point x="119" y="534" type="line"/>
      <point x="81" y="325" type="line" smooth="yes"/>
      <point x="52" y="168"/>
      <point x="39" y="158"/>
      <point x="-24" y="128" type="curve"/>
      <point x="6" y="-13" type="line"/>
      <point x="178" y="20"/>
      <point x="214" y="100"/>
      <point x="255" y="316" type="curve" smooth="yes"/>
    </contour>
    <component base="x" xScale="0.98" xOffset="254"/>
  </outline>
</glyph>
<glyph name="Aleutka-cy" format="2">
  <advance width="625"/>
  <unicode hex="051E"/>
  <anchor x="275.37648" y="0.0" name="bottom"/>
  <anchor x="568.42" y="0" name="bottomright"/>
  <anchor x="381.24" y="696" name="top"/>
  <outline>
    <contour>
      <point x="304" y="567" type="line"/>
      <point x="601" y="413" type="line"/>
      <point x="651" y="505" type="line"/>
      <point x="354" y="652" type="line"/>
    </contour>
    <component base="Ka-cy" xScale="0.98" xOffset="1"/>
  </outline>
</glyph>
<glyph name="aleutka-cy" format="2">
  <advance width="555"/>
  <unicode hex="051F"/>
  <anchor x="239.976" y="0" name="bottom"/>
  <anchor x="483.16" y="0" name="bottomright"/>
  <anchor x="315.024" y="534" name="top"/>
  <outline>
    <contour>
      <point x="257" y="399" type="line"/>
      <point x="507" y="277" type="line"/>
      <point x="554" y="354" type="line"/>
      <point x="304" y="480" type="line"/>
    </contour>
    <component base="ka-cy" xScale="0.98" xOffset="1"/>
  </outline>
</glyph>
<glyph name="Elmiddlehook-cy" format="2">
  <advance width="959"/>
  <unicode hex="0520"/>
  <anchor x="270.92648" y="0.0" name="bottom"/>
  <anchor x="557.6" y="0" name="bottomright"/>
  <anchor x="539.792" y="696" name="top"/>
  <outline>
    <contour>
      <point x="751" y="481" type="curve" smooth="yes"/>
      <point x="688" y="481"/>
      <point x="639" y="462"/>
      <point x="592" y="425" type="curve"/>
      <point x="576" y="297" type="line"/>
      <point x="601" y="319"/>
      <point x="631" y="335"/>
      <point x="676" y="335" type="curve" smooth="yes"/>
      <point x="730" y="335"/>
      <point x="747" y="303"/>
      <point x="736" y="226" type="curve" smooth="yes"/>
      <point x="705" y="0" type="line"/>
      <point x="903" y="0" type="line"/>
      <point x="934" y="224" type="line" smooth="yes"/>
      <point x="956" y="382"/>
      <point x="896" y="481"/>
    </contour>
    <component base="El-cy" xScale="0.98" xOffset="-1"/>
    <component base="hookHELPER.case" xScale="0.98" xOffset="534" yOffset="4"/>
  </outline>
</glyph>
